Pridi-600.ufo
<glyph name="exclam" format="1">
  <advance width="233"/>
  <unicode hex="0021"/>
  <note>
	exclam
  </note>
  <outline>
    <contour>
      <point x="193" y="211" type="line"/>
      <point x="200" y="647" type="line"/>
      <point x="34" y="647" type="line"/>
      <point x="41" y="211" type="line"/>
    </contour>
    <contour>
      <point x="202" y="0" type="line"/>
      <point x="202" y="118" type="line"/>
      <point x="31" y="118" type="line"/>
      <point x="31" y="0" type="line"/>
    </contour>
  </outline>
</glyph>
<glyph name="numbersign" format="1">
  <advance width="749"/>
  <unicode hex="0023"/>
  <note>
	numbersign
  </note>
  <outline>
    <contour>
      <point x="230" y="0" type="line"/>
      <point x="266" y="167" type="line"/>
      <point x="414" y="167" type="line"/>
      <point x="378" y="0" type="line"/>
      <point x="511" y="0" type="line"/>
      <point x="547" y="167" type="line"/>
      <point x="690" y="167" type="line"/>
      <point x="690" y="268" type="line"/>
      <point x="570" y="268" type="line"/>
      <point x="599" y="398" type="line"/>
      <point x="718" y="398" type="line"/>
      <point x="718" y="500" type="line"/>
      <point x="622" y="500" type="line"/>
      <point x="655" y="647" type="line"/>
      <point x="522" y="647" type="line"/>
      <point x="489" y="500" type="line"/>
      <point x="341" y="500" type="line"/>
      <point x="374" y="647" type="line"/>
      <point x="240" y="647" type="line"/>
      <point x="207" y="500" type="line"/>
      <point x="59" y="500" type="line"/>
      <point x="59" y="398" type="line"/>
      <point x="185" y="398" type="line"/>
      <point x="155" y="268" type="line"/>
      <point x="31" y="268" type="line"/>
      <point x="31" y="167" type="line"/>
      <point x="133" y="167" type="line"/>
      <point x="96" y="0" type="line"/>
    </contour>
    <contour>
      <point x="318" y="398" type="line"/>
      <point x="466" y="398" type="line"/>
      <point x="437" y="268" type="line"/>
      <point x="289" y="268" type="line"/>
    </contour>
  </outline>
</glyph>
<glyph name="dollar" format="1">
  <advance width="568"/>
  <unicode hex="0024"/>
  <note>
	dollar
  </note>
  <outline>
    <contour>
      <point x="348" y="-120" type="line"/>
      <point x="348" y="-11" type="line"/>
      <point x="471" y="5"/>
      <point x="537" y="78"/>
      <point x="537" y="169" type="curve" smooth="yes"/>
      <point x="537" y="288"/>
      <point x="464" y="318"/>
      <point x="323" y="378" type="curve" smooth="yes"/>
      <point x="263" y="403"/>
      <point x="192" y="426"/>
      <point x="192" y="488" type="curve" smooth="yes"/>
      <point x="192" y="541"/>
      <point x="229" y="560"/>
      <point x="282" y="560" type="curve" smooth="yes"/>
      <point x="315" y="560"/>
      <point x="343" y="554"/>
      <point x="368" y="540" type="curve"/>
      <point x="368" y="474" type="line"/>
      <point x="526" y="474" type="line"/>
      <point x="526" y="579" type="line"/>
      <point x="483" y="615"/>
      <point x="427" y="648"/>
      <point x="348" y="658" type="curve"/>
      <point x="348" y="767" type="line"/>
      <point x="206" y="767" type="line"/>
      <point x="206" y="653" type="line"/>
      <point x="108" y="635"/>
      <point x="37" y="579"/>
      <point x="37" y="482" type="curve" smooth="yes"/>
      <point x="37" y="375"/>
      <point x="114" y="327"/>
      <point x="247" y="271" type="curve" smooth="yes"/>
      <point x="334" y="234"/>
      <point x="382" y="214"/>
      <point x="382" y="161" type="curve" smooth="yes"/>
      <point x="382" y="110"/>
      <point x="351" y="87"/>
      <point x="292" y="87" type="curve" smooth="yes"/>
      <point x="251" y="87"/>
      <point x="217" y="95"/>
      <point x="190" y="110" type="curve"/>
      <point x="190" y="183" type="line"/>
      <point x="31" y="183" type="line"/>
      <point x="31" y="67" type="line"/>
      <point x="76" y="31"/>
      <point x="136" y="4"/>
      <point x="206" y="-8" type="curve"/>
      <point x="206" y="-120" type="line"/>
    </contour>
  </outline>
</glyph>
<glyph name="percent" format="1">
  <advance width="767"/>
  <unicode hex="0025"/>
  <note>
	percent
  </note>
  <outline>
    <contour>
      <point x="279" y="0" type="line"/>
      <point x="656" y="647" type="line"/>
      <point x="497" y="647" type="line"/>
      <point x="120" y="0" type="line"/>
    </contour>
    <contour>
      <point x="270" y="354"/>
      <point x="339" y="423"/>
      <point x="339" y="508" type="curve" smooth="yes"/>
      <point x="339" y="593"/>
      <point x="270" y="662"/>
      <point x="185" y="662" type="curve" smooth="yes"/>
      <point x="100" y="662"/>
      <point x="31" y="593"/>
      <point x="31" y="508" type="curve" smooth="yes"/>
      <point x="31" y="423"/>
      <point x="100" y="354"/>
      <point x="185" y="354" type="curve" smooth="yes"/>
    </contour>
    <contour>
      <point x="154" y="452"/>
      <point x="129" y="477"/>
      <point x="129" y="508" type="curve" smooth="yes"/>
      <point x="129" y="539"/>
      <point x="154" y="564"/>
      <point x="185" y="564" type="curve" smooth="yes"/>
      <point x="217" y="564"/>
      <point x="241" y="539"/>
      <point x="241" y="508" type="curve" smooth="yes"/>
      <point x="241" y="477"/>
      <point x="217" y="452"/>
      <point x="185" y="452" type="curve" smooth="yes"/>
    </contour>
    <contour>
      <point x="666" y="-15"/>
      <point x="735" y="54"/>
      <point x="735" y="139" type="curve" smooth="yes"/>
      <point x="735" y="224"/>
      <point x="666" y="293"/>
      <point x="581" y="293" type="curve" smooth="yes"/>
      <point x="496" y="293"/>
      <point x="427" y="224"/>
      <point x="427" y="139" type="curve" smooth="yes"/>
      <point x="427" y="54"/>
      <point x="496" y="-15"/>
      <point x="581" y="-15" type="curve" smooth="yes"/>
    </contour>
    <contour>
      <point x="550" y="83"/>
      <point x="525" y="108"/>
      <point x="525" y="139" type="curve" smooth="yes"/>
      <point x="525" y="170"/>
      <point x="550" y="195"/>
      <point x="581" y="195" type="curve" smooth="yes"/>
      <point x="613" y="195"/>
      <point x="637" y="170"/>
      <point x="637" y="139" type="curve" smooth="yes"/>
      <point x="637" y="108"/>
      <point x="613" y="83"/>
      <point x="581" y="83" type="curve" smooth="yes"/>
    </contour>
  </outline>
</glyph>
<glyph name="ampersand" format="1">
  <advance width="705"/>
  <unicode hex="0026"/>
  <note>
	ampersand
  </note>
  <outline>
    <contour>
      <point x="358" y="-15"/>
      <point x="413" y="-4"/>
      <point x="465" y="35" type="curve"/>
      <point x="499" y="0" type="line"/>
      <point x="674" y="0" type="line"/>
      <point x="560" y="117" type="line"/>
      <point x="586" y="160"/>
      <point x="594" y="205"/>
      <point x="594" y="259" type="curve" smooth="yes"/>
      <point x="594" y="280"/>
      <point x="600" y="287"/>
      <point x="620" y="287" type="curve" smooth="yes"/>
      <point x="651" y="287" type="line"/>
      <point x="651" y="385" type="line"/>
      <point x="455" y="385" type="line"/>
      <point x="455" y="305" type="line" smooth="yes"/>
      <point x="455" y="283"/>
      <point x="453" y="261"/>
      <point x="449" y="242" type="curve"/>
      <point x="309" y="389" type="line" smooth="yes"/>
      <point x="266" y="435"/>
      <point x="233" y="462"/>
      <point x="233" y="505" type="curve" smooth="yes"/>
      <point x="233" y="549"/>
      <point x="251" y="563"/>
      <point x="275" y="563" type="curve" smooth="yes"/>
      <point x="300" y="563"/>
      <point x="315" y="547"/>
      <point x="315" y="519" type="curve" smooth="yes"/>
      <point x="315" y="478" type="line"/>
      <point x="472" y="478" type="line"/>
      <point x="472" y="502" type="line" smooth="yes"/>
      <point x="472" y="591"/>
      <point x="408" y="662"/>
      <point x="274" y="662" type="curve" smooth="yes"/>
      <point x="148" y="662"/>
      <point x="78" y="604"/>
      <point x="78" y="505" type="curve" smooth="yes"/>
      <point x="78" y="451"/>
      <point x="111" y="405"/>
      <point x="157" y="360" type="curve"/>
      <point x="73" y="313"/>
      <point x="31" y="256"/>
      <point x="31" y="168" type="curve" smooth="yes"/>
      <point x="31" y="51"/>
      <point x="129" y="-15"/>
      <point x="279" y="-15" type="curve" smooth="yes"/>
    </contour>
    <contour>
      <point x="234" y="84"/>
      <point x="188" y="112"/>
      <point x="188" y="168" type="curve" smooth="yes"/>
      <point x="188" y="216"/>
      <point x="204" y="243"/>
      <point x="243" y="270" type="curve"/>
      <point x="390" y="113" type="line"/>
      <point x="358" y="91"/>
      <point x="329" y="84"/>
      <point x="283" y="84" type="curve" smooth="yes"/>
    </contour>
  </outline>
</glyph>
<glyph name="quotesingle" format="1">
  <advance width="217"/>
  <unicode hex="0027"/>
  <note>
	quotesingle
  </note>
  <outline>
    <contour>
      <point x="172" y="507" type="line"/>
      <point x="186" y="721" type="line"/>
      <point x="31" y="721" type="line"/>
      <point x="45" y="507" type="line"/>
    </contour>
  </outline>
</glyph>
<glyph name="parenleft" format="1">
  <advance width="382"/>
  <unicode hex="0028"/>
  <note>
	parenleft
  </note>
  <outline>
    <contour>
      <point x="351" y="-75" type="line"/>
      <point x="228" y="35"/>
      <point x="186" y="164"/>
      <point x="186" y="316" type="curve" smooth="yes"/>
      <point x="186" y="465"/>
      <point x="235" y="599"/>
      <point x="351" y="707" type="curve"/>
      <point x="176" y="707" type="line"/>
      <point x="80" y="610"/>
      <point x="31" y="478"/>
      <point x="31" y="316" type="curve" smooth="yes"/>
      <point x="31" y="154"/>
      <point x="80" y="22"/>
      <point x="176" y="-75" type="curve"/>
    </contour>
  </outline>
</glyph>
<glyph name="parenright" format="1">
  <advance width="382"/>
  <unicode hex="0029"/>
  <note>
	parenright
  </note>
  <outline>
    <contour>
      <point x="207" y="-75" type="line"/>
      <point x="303" y="22"/>
      <point x="351" y="154"/>
      <point x="351" y="316" type="curve" smooth="yes"/>
      <point x="351" y="478"/>
      <point x="303" y="610"/>
      <point x="207" y="707" type="curve"/>
      <point x="31" y="707" type="line"/>
      <point x="155" y="597"/>
      <point x="197" y="468"/>
      <point x="197" y="316" type="curve" smooth="yes"/>
      <point x="197" y="167"/>
      <point x="148" y="33"/>
      <point x="31" y="-75" type="curve"/>
    </contour>
  </outline>
</glyph>
<glyph name="asterisk" format="1">
  <advance width="437"/>
  <unicode hex="002A"/>
  <note>
	asterisk
  </note>
  <outline>
    <contour>
      <point x="218" y="466" type="line"/>
      <point x="270" y="384" type="line"/>
      <point x="370" y="452" type="line"/>
      <point x="306" y="530" type="line"/>
      <point x="406" y="556" type="line"/>
      <point x="366" y="665" type="line"/>
      <point x="282" y="629" type="line"/>
      <point x="287" y="721" type="line"/>
      <point x="151" y="721" type="line"/>
      <point x="153" y="629" type="line"/>
      <point x="71" y="666" type="line"/>
      <point x="31" y="556" type="line"/>
      <point x="130" y="530" type="line"/>
      <point x="68" y="452" type="line"/>
      <point x="167" y="383" type="line"/>
    </contour>
  </outline>
</glyph>
<glyph name="plus" format="1">
  <advance width="413"/>
  <unicode hex="002B"/>
  <note>
	plus
  </note>
  <outline>
    <contour>
      <point x="267" y="157" type="line"/>
      <point x="267" y="258" type="line"/>
      <point x="382" y="258" type="line"/>
      <point x="382" y="359" type="line"/>
      <point x="267" y="359" type="line"/>
      <point x="267" y="461" type="line"/>
      <point x="144" y="461" type="line"/>
      <point x="144" y="359" type="line"/>
      <point x="31" y="359" type="line"/>
      <point x="31" y="258" type="line"/>
      <point x="144" y="258" type="line"/>
      <point x="144" y="157" type="line"/>
    </contour>
  </outline>
</glyph>
<glyph name="comma" format="1">
  <advance width="247"/>
  <unicode hex="002C"/>
  <note>
	comma
  </note>
  <outline>
    <contour>
      <point x="146" y="-120" type="line"/>
      <point x="216" y="106" type="line"/>
      <point x="67" y="106" type="line"/>
      <point x="31" y="-120" type="line"/>
    </contour>
  </outline>
</glyph>
<glyph name="hyphen" format="1">
  <advance width="369"/>
  <unicode hex="002D"/>
  <note>
	hyphen
  </note>
  <outline>
    <contour>
      <point x="338" y="250" type="line"/>
      <point x="338" y="351" type="line"/>
      <point x="31" y="351" type="line"/>
      <point x="31" y="250" type="line"/>
    </contour>
  </outline>
</glyph>
<glyph name="period" format="1">
  <advance width="179"/>
  <unicode hex="002E"/>
  <note>
	period
  </note>
  <outline>
    <contour>
      <point x="147" y="0" type="line"/>
      <point x="147" y="106" type="line"/>
      <point x="31" y="106" type="line"/>
      <point x="31" y="0" type="line"/>
    </contour>
  </outline>
</glyph>
<glyph name="slash" format="1">
  <advance width="472"/>
  <unicode hex="002F"/>
  <note>
	slash
  </note>
  <outline>
    <contour>
      <point x="191" y="0" type="line"/>
      <point x="441" y="676" type="line"/>
      <point x="282" y="676" type="line"/>
      <point x="31" y="0" type="line"/>
    </contour>
  </outline>
</glyph>
<glyph name="zero" format="1">
  <advance width="629"/>
  <unicode hex="0030"/>
  <note>
	zero
  </note>
  <outline>
    <contour>
      <point x="515" y="-15"/>
      <point x="608" y="99"/>
      <point x="608" y="324" type="curve" smooth="yes"/>
      <point x="608" y="548"/>
      <point x="515" y="661"/>
      <point x="314" y="661" type="curve" smooth="yes"/>
      <point x="115" y="661"/>
      <point x="21" y="548"/>
      <point x="21" y="324" type="curve" smooth="yes"/>
      <point x="21" y="99"/>
      <point x="115" y="-15"/>
      <point x="314" y="-15" type="curve" smooth="yes"/>
    </contour>
    <contour>
      <point x="230" y="87"/>
      <point x="177" y="149"/>
      <point x="177" y="324" type="curve" smooth="yes"/>
      <point x="177" y="498"/>
      <point x="230" y="559"/>
      <point x="314" y="559" type="curve" smooth="yes"/>
      <point x="399" y="559"/>
      <point x="453" y="498"/>
      <point x="453" y="324" type="curve" smooth="yes"/>
      <point x="453" y="149"/>
      <point x="399" y="87"/>
      <point x="314" y="87" type="curve" smooth="yes"/>
    </contour>
  </outline>
</glyph>
<glyph name="one" format="1">
  <advance width="429"/>
  <unicode hex="0031"/>
  <note>
	one
  </note>
  <outline>
    <contour>
      <point x="408" y="0" type="line"/>
      <point x="408" y="101" type="line"/>
      <point x="354" y="101" type="line" smooth="yes"/>
      <point x="325" y="101"/>
      <point x="313" y="114"/>
      <point x="313" y="140" type="curve" smooth="yes"/>
      <point x="313" y="647" type="line"/>
      <point x="186" y="647" type="line"/>
      <point x="21" y="543" type="line"/>
      <point x="79" y="448" type="line"/>
      <point x="156" y="496" type="line"/>
      <point x="156" y="140" type="line" smooth="yes"/>
      <point x="156" y="114"/>
      <point x="145" y="101"/>
      <point x="116" y="101" type="curve" smooth="yes"/>
      <point x="62" y="101" type="line"/>
      <point x="62" y="0" type="line"/>
    </contour>
  </outline>
</glyph>
<glyph name="two" format="1">
  <advance width="549"/>
  <unicode hex="0032"/>
  <note>
	two
  </note>
  <outline>
    <contour>
      <point x="510" y="0" type="line"/>
      <point x="510" y="101" type="line"/>
      <point x="189" y="101" type="line"/>
      <point x="189" y="172"/>
      <point x="251" y="209"/>
      <point x="323" y="248" type="curve" smooth="yes"/>
      <point x="460" y="322"/>
      <point x="518" y="375"/>
      <point x="518" y="479" type="curve" smooth="yes"/>
      <point x="518" y="607"/>
      <point x="417" y="662"/>
      <point x="271" y="662" type="curve" smooth="yes"/>
      <point x="182" y="662"/>
      <point x="99" y="633"/>
      <point x="36" y="591" type="curve"/>
      <point x="36" y="481" type="line"/>
      <point x="190" y="481" type="line"/>
      <point x="190" y="544" type="line"/>
      <point x="221" y="556"/>
      <point x="245" y="560"/>
      <point x="272" y="560" type="curve" smooth="yes"/>
      <point x="330" y="560"/>
      <point x="363" y="534"/>
      <point x="363" y="478" type="curve" smooth="yes"/>
      <point x="363" y="405"/>
      <point x="327" y="376"/>
      <point x="253" y="339" type="curve" smooth="yes"/>
      <point x="117" y="272"/>
      <point x="31" y="189"/>
      <point x="31" y="61" type="curve" smooth="yes"/>
      <point x="31" y="0" type="line"/>
    </contour>
  </outline>
</glyph>
<glyph name="three" format="1">
  <advance width="565"/>
  <unicode hex="0033"/>
  <note>
	three
  </note>
  <outline>
    <contour>
      <point x="451" y="-15"/>
      <point x="534" y="50"/>
      <point x="534" y="200" type="curve" smooth="yes"/>
      <point x="534" y="264"/>
      <point x="502" y="309"/>
      <point x="446" y="339" type="curve"/>
      <point x="506" y="381"/>
      <point x="528" y="430"/>
      <point x="528" y="484" type="curve" smooth="yes"/>
      <point x="528" y="608"/>
      <point x="420" y="662"/>
      <point x="281" y="662" type="curve" smooth="yes"/>
      <point x="191" y="662"/>
      <point x="102" y="633"/>
      <point x="44" y="590" type="curve"/>
      <point x="44" y="481" type="line"/>
      <point x="201" y="481" type="line"/>
      <point x="201" y="546" type="line"/>
      <point x="232" y="557"/>
      <point x="258" y="560"/>
      <point x="282" y="560" type="curve" smooth="yes"/>
      <point x="336" y="560"/>
      <point x="373" y="534"/>
      <point x="373" y="479" type="curve" smooth="yes"/>
      <point x="373" y="413"/>
      <point x="341" y="388"/>
      <point x="291" y="388" type="curve" smooth="yes"/>
      <point x="202" y="388" type="line"/>
      <point x="202" y="288" type="line"/>
      <point x="290" y="288" type="line" smooth="yes"/>
      <point x="352" y="288"/>
      <point x="380" y="253"/>
      <point x="380" y="195" type="curve" smooth="yes"/>
      <point x="380" y="113"/>
      <point x="349" y="87"/>
      <point x="279" y="87" type="curve" smooth="yes"/>
      <point x="248" y="87"/>
      <point x="218" y="94"/>
      <point x="188" y="111" type="curve"/>
      <point x="188" y="177" type="line"/>
      <point x="31" y="177" type="line"/>
      <point x="31" y="66" type="line"/>
      <point x="89" y="12"/>
      <point x="178" y="-15"/>
      <point x="276" y="-15" type="curve" smooth="yes"/>
    </contour>
  </outline>
</glyph>
<glyph name="four" format="1">
  <advance width="544"/>
  <unicode hex="0034"/>
  <note>
	four
  </note>
  <outline>
    <contour>
      <point x="512" y="0" type="line"/>
      <point x="512" y="101" type="line"/>
      <point x="474" y="101" type="line" smooth="yes"/>
      <point x="445" y="101"/>
      <point x="433" y="114"/>
      <point x="433" y="140" type="curve" smooth="yes"/>
      <point x="433" y="171" type="line"/>
      <point x="532" y="171" type="line"/>
      <point x="532" y="272" type="line"/>
      <point x="433" y="272" type="line"/>
      <point x="433" y="647" type="line"/>
      <point x="297" y="647" type="line"/>
      <point x="11" y="261" type="line"/>
      <point x="11" y="171" type="line"/>
      <point x="281" y="171" type="line"/>
      <point x="281" y="140" type="line" smooth="yes"/>
      <point x="281" y="114"/>
      <point x="269" y="101"/>
      <point x="240" y="101" type="curve" smooth="yes"/>
      <point x="202" y="101" type="line"/>
      <point x="202" y="0" type="line"/>
    </contour>
    <contour>
      <point x="293" y="444" type="line"/>
      <point x="293" y="272" type="line"/>
      <point x="166" y="272" type="line"/>
    </contour>
  </outline>
</glyph>
<glyph name="five" format="1">
  <advance width="568"/>
  <unicode hex="0035"/>
  <note>
	five
  </note>
  <outline>
    <contour>
      <point x="457" y="-15"/>
      <point x="537" y="73"/>
      <point x="537" y="221" type="curve" smooth="yes"/>
      <point x="537" y="386"/>
      <point x="430" y="442"/>
      <point x="279" y="442" type="curve" smooth="yes"/>
      <point x="209" y="442" type="line"/>
      <point x="219" y="546" type="line"/>
      <point x="517" y="546" type="line"/>
      <point x="517" y="647" type="line"/>
      <point x="73" y="647" type="line"/>
      <point x="53" y="408" type="line"/>
      <point x="53" y="339" type="line"/>
      <point x="260" y="339" type="line" smooth="yes"/>
      <point x="342" y="339"/>
      <point x="382" y="306"/>
      <point x="382" y="221" type="curve" smooth="yes"/>
      <point x="382" y="136"/>
      <point x="355" y="87"/>
      <point x="286" y="87" type="curve" smooth="yes"/>
      <point x="252" y="87"/>
      <point x="217" y="95"/>
      <point x="188" y="110" type="curve"/>
      <point x="188" y="177" type="line"/>
      <point x="31" y="177" type="line"/>
      <point x="31" y="67" type="line"/>
      <point x="97" y="12"/>
      <point x="178" y="-15"/>
      <point x="282" y="-15" type="curve" smooth="yes"/>
    </contour>
  </outline>
</glyph>
<glyph name="six" format="1">
  <advance width="575"/>
  <unicode hex="0036"/>
  <note>
	six
  </note>
  <outline>
    <contour>
      <point x="473" y="-15"/>
      <point x="564" y="71"/>
      <point x="564" y="231" type="curve" smooth="yes"/>
      <point x="564" y="380"/>
      <point x="490" y="459"/>
      <point x="334" y="459" type="curve" smooth="yes"/>
      <point x="272" y="459"/>
      <point x="226" y="446"/>
      <point x="179" y="407" type="curve"/>
      <point x="204" y="503"/>
      <point x="250" y="552"/>
      <point x="343" y="552" type="curve" smooth="yes"/>
      <point x="400" y="552"/>
      <point x="437" y="536"/>
      <point x="468" y="509" type="curve"/>
      <point x="523" y="598" type="line"/>
      <point x="468" y="641"/>
      <point x="418" y="662"/>
      <point x="326" y="662" type="curve" smooth="yes"/>
      <point x="180" y="662"/>
      <point x="31" y="570"/>
      <point x="31" y="282" type="curve" smooth="yes"/>
      <point x="31" y="72"/>
      <point x="140" y="-15"/>
      <point x="295" y="-15" type="curve" smooth="yes"/>
    </contour>
    <contour>
      <point x="229" y="87"/>
      <point x="187" y="124"/>
      <point x="187" y="240" type="curve" smooth="yes"/>
      <point x="187" y="322"/>
      <point x="232" y="363"/>
      <point x="296" y="363" type="curve" smooth="yes"/>
      <point x="376" y="363"/>
      <point x="409" y="321"/>
      <point x="409" y="231" type="curve" smooth="yes"/>
      <point x="409" y="122"/>
      <point x="375" y="87"/>
      <point x="295" y="87" type="curve" smooth="yes"/>
    </contour>
  </outline>
</glyph>
<glyph name="seven" format="1">
  <advance width="523"/>
  <unicode hex="0037"/>
  <note>
	seven
  </note>
  <outline>
    <contour>
      <point x="277" y="0" type="line"/>
      <point x="512" y="583" type="line"/>
      <point x="512" y="647" type="line"/>
      <point x="11" y="647" type="line"/>
      <point x="11" y="478" type="line"/>
      <point x="169" y="478" type="line"/>
      <point x="169" y="546" type="line"/>
      <point x="340" y="546" type="line"/>
      <point x="118" y="0" type="line"/>
    </contour>
  </outline>
</glyph>
<glyph name="eight" format="1">
  <advance width="592"/>
  <unicode hex="0038"/>
  <note>
	eight
  </note>
  <outline>
    <contour>
      <point x="462" y="-15"/>
      <point x="561" y="45"/>
      <point x="561" y="184" type="curve" smooth="yes"/>
      <point x="561" y="252"/>
      <point x="530" y="303"/>
      <point x="476" y="337" type="curve"/>
      <point x="532" y="378"/>
      <point x="552" y="423"/>
      <point x="552" y="477" type="curve" smooth="yes"/>
      <point x="552" y="601"/>
      <point x="445" y="662"/>
      <point x="296" y="662" type="curve" smooth="yes"/>
      <point x="148" y="662"/>
      <point x="41" y="601"/>
      <point x="41" y="477" type="curve" smooth="yes"/>
      <point x="41" y="423"/>
      <point x="62" y="376"/>
      <point x="115" y="337" type="curve"/>
      <point x="60" y="303"/>
      <point x="31" y="252"/>
      <point x="31" y="184" type="curve" smooth="yes"/>
      <point x="31" y="45"/>
      <point x="131" y="-15"/>
      <point x="296" y="-15" type="curve" smooth="yes"/>
    </contour>
    <contour>
      <point x="221" y="87"/>
      <point x="186" y="119"/>
      <point x="186" y="192" type="curve" smooth="yes"/>
      <point x="186" y="254"/>
      <point x="221" y="288"/>
      <point x="288" y="288" type="curve" smooth="yes"/>
      <point x="305" y="288" type="line" smooth="yes"/>
      <point x="372" y="288"/>
      <point x="406" y="254"/>
      <point x="406" y="192" type="curve" smooth="yes"/>
      <point x="406" y="119"/>
      <point x="372" y="87"/>
      <point x="296" y="87" type="curve" smooth="yes"/>
    </contour>
    <contour>
      <point x="227" y="385"/>
      <point x="197" y="411"/>
      <point x="197" y="477" type="curve" smooth="yes"/>
      <point x="197" y="535"/>
      <point x="235" y="560"/>
      <point x="296" y="560" type="curve" smooth="yes"/>
      <point x="357" y="560"/>
      <point x="397" y="535"/>
      <point x="397" y="477" type="curve" smooth="yes"/>
      <point x="397" y="411"/>
      <point x="366" y="385"/>
      <point x="306" y="385" type="curve" smooth="yes"/>
      <point x="287" y="385" type="line" smooth="yes"/>
    </contour>
  </outline>
</glyph>
<glyph name="nine" format="1">
  <advance width="595"/>
  <unicode hex="0039"/>
  <note>
	nine
  </note>
  <outline>
    <contour>
      <point x="423" y="-15"/>
      <point x="564" y="77"/>
      <point x="564" y="365" type="curve" smooth="yes"/>
      <point x="564" y="575"/>
      <point x="457" y="662"/>
      <point x="301" y="662" type="curve" smooth="yes"/>
      <point x="130" y="662"/>
      <point x="31" y="579"/>
      <point x="31" y="419" type="curve" smooth="yes"/>
      <point x="31" y="270"/>
      <point x="111" y="188"/>
      <point x="267" y="188" type="curve" smooth="yes"/>
      <point x="327" y="188"/>
      <point x="372" y="199"/>
      <point x="417" y="237" type="curve"/>
      <point x="386" y="140"/>
      <point x="344" y="94"/>
      <point x="252" y="94" type="curve" smooth="yes"/>
      <point x="202" y="94"/>
      <point x="163" y="109"/>
      <point x="129" y="137" type="curve"/>
      <point x="70" y="40" type="line"/>
      <point x="126" y="1"/>
      <point x="189" y="-15"/>
      <point x="276" y="-15" type="curve" smooth="yes"/>
    </contour>
    <contour>
      <point x="220" y="284"/>
      <point x="186" y="326"/>
      <point x="186" y="416" type="curve" smooth="yes"/>
      <point x="186" y="525"/>
      <point x="222" y="560"/>
      <point x="301" y="560" type="curve" smooth="yes"/>
      <point x="367" y="560"/>
      <point x="408" y="527"/>
      <point x="408" y="410" type="curve" smooth="yes"/>
      <point x="408" y="328"/>
      <point x="370" y="284"/>
      <point x="299" y="284" type="curve" smooth="yes"/>
    </contour>
  </outline>
</glyph>
<glyph name="colon" format="1">
  <advance width="179"/>
  <unicode hex="003A"/>
  <note>
	colon
  </note>
  <outline>
    <contour>
      <point x="148" y="0" type="line"/>
      <point x="148" y="124" type="line"/>
      <point x="31" y="124" type="line"/>
      <point x="31" y="0" type="line"/>
    </contour>
    <contour>
      <point x="148" y="375" type="line"/>
      <point x="148" y="498" type="line"/>
      <point x="31" y="498" type="line"/>
      <point x="31" y="375" type="line"/>
    </contour>
  </outline>
</glyph>
<glyph name="semicolon" format="1">
  <advance width="238"/>
  <unicode hex="003B"/>
  <note>
	semicolon
  </note>
  <outline>
    <contour>
      <point x="138" y="-120" type="line"/>
      <point x="207" y="106" type="line"/>
      <point x="66" y="106" type="line"/>
      <point x="31" y="-120" type="line"/>
    </contour>
    <contour>
      <point x="197" y="375" type="line"/>
      <point x="197" y="498" type="line"/>
      <point x="64" y="498" type="line"/>
      <point x="64" y="375" type="line"/>
    </contour>
  </outline>
</glyph>
<glyph name="less" format="1">
  <advance width="621"/>
  <unicode hex="003C"/>
  <note>
	less
  </note>
  <outline>
    <contour>
      <point x="589" y="164" type="line"/>
      <point x="212" y="326" type="line"/>
      <point x="589" y="488" type="line"/>
      <point x="589" y="612" type="line"/>
      <point x="31" y="361" type="line"/>
      <point x="31" y="290" type="line"/>
      <point x="589" y="39" type="line"/>
    </contour>
  </outline>
</glyph>
<glyph name="equal" format="1">
  <advance width="428"/>
  <unicode hex="003D"/>
  <note>
	equal
  </note>
  <outline>
    <contour>
      <point x="397" y="166" type="line"/>
      <point x="397" y="268" type="line"/>
      <point x="31" y="268" type="line"/>
      <point x="31" y="166" type="line"/>
    </contour>
    <contour>
      <point x="397" y="336" type="line"/>
      <point x="397" y="437" type="line"/>
      <point x="31" y="437" type="line"/>
      <point x="31" y="336" type="line"/>
    </contour>
  </outline>
</glyph>
<glyph name="greater" format="1">
  <advance width="621"/>
  <unicode hex="003E"/>
  <note>
	greater
  </note>
  <outline>
    <contour>
      <point x="589" y="290" type="line"/>
      <point x="589" y="361" type="line"/>
      <point x="31" y="612" type="line"/>
      <point x="31" y="488" type="line"/>
      <point x="409" y="326" type="line"/>
      <point x="31" y="164" type="line"/>
      <point x="31" y="39" type="line"/>
    </contour>
  </outline>
</glyph>
<glyph name="question" format="1">
  <advance width="550"/>
  <unicode hex="003F"/>
  <note>
	question
  </note>
  <outline>
    <contour>
      <point x="316" y="164" type="line"/>
      <point x="316" y="184" type="line" smooth="yes"/>
      <point x="316" y="247"/>
      <point x="323" y="273"/>
      <point x="382" y="306" type="curve" smooth="yes"/>
      <point x="473" y="360"/>
      <point x="518" y="397"/>
      <point x="518" y="485" type="curve" smooth="yes"/>
      <point x="518" y="605"/>
      <point x="428" y="662"/>
      <point x="271" y="662" type="curve" smooth="yes"/>
      <point x="171" y="662"/>
      <point x="88" y="632"/>
      <point x="31" y="590" type="curve"/>
      <point x="31" y="476" type="line"/>
      <point x="170" y="476" type="line"/>
      <point x="170" y="538" type="line"/>
      <point x="197" y="550"/>
      <point x="229" y="560"/>
      <point x="266" y="560" type="curve" smooth="yes"/>
      <point x="332" y="560"/>
      <point x="364" y="534"/>
      <point x="364" y="485" type="curve" smooth="yes"/>
      <point x="364" y="433"/>
      <point x="329" y="409"/>
      <point x="279" y="382" type="curve" smooth="yes"/>
      <point x="191" y="332"/>
      <point x="158" y="274"/>
      <point x="158" y="192" type="curve" smooth="yes"/>
      <point x="158" y="164" type="line"/>
    </contour>
    <contour>
      <point x="323" y="0" type="line"/>
      <point x="323" y="120" type="line"/>
      <point x="151" y="120" type="line"/>
      <point x="151" y="0" type="line"/>
    </contour>
  </outline>
</glyph>
<glyph name="at" format="1">
  <advance width="864"/>
  <unicode hex="0040"/>
  <note>
	at
  </note>
  <outline>
    <contour>
      <point x="531" y="-110"/>
      <point x="590" y="-100"/>
      <point x="675" y="-72" type="curve"/>
      <point x="675" y="41" type="line"/>
      <point x="601" y="16"/>
      <point x="510" y="7"/>
      <point x="440" y="7" type="curve" smooth="yes"/>
      <point x="267" y="7"/>
      <point x="168" y="77"/>
      <point x="168" y="278" type="curve" smooth="yes"/>
      <point x="168" y="456"/>
      <point x="271" y="529"/>
      <point x="440" y="529" type="curve" smooth="yes"/>
      <point x="626" y="529"/>
      <point x="697" y="461"/>
      <point x="697" y="310" type="curve" smooth="yes"/>
      <point x="697" y="209"/>
      <point x="681" y="168"/>
      <point x="649" y="168" type="curve" smooth="yes"/>
      <point x="631" y="168"/>
      <point x="625" y="181"/>
      <point x="625" y="201" type="curve" smooth="yes"/>
      <point x="625" y="328" type="line" smooth="yes"/>
      <point x="625" y="421"/>
      <point x="570" y="469"/>
      <point x="444" y="469" type="curve" smooth="yes"/>
      <point x="377" y="469"/>
      <point x="317" y="452"/>
      <point x="269" y="417" type="curve"/>
      <point x="269" y="348" type="line"/>
      <point x="399" y="348" type="line"/>
      <point x="399" y="375" type="line"/>
      <point x="412" y="381"/>
      <point x="422" y="385"/>
      <point x="442" y="385" type="curve" smooth="yes"/>
      <point x="473" y="385"/>
      <point x="486" y="372"/>
      <point x="486" y="340" type="curve" smooth="yes"/>
      <point x="486" y="318" type="line"/>
      <point x="372" y="310" type="line" smooth="yes"/>
      <point x="290" y="305"/>
      <point x="243" y="258"/>
      <point x="243" y="181" type="curve" smooth="yes"/>
      <point x="243" y="109"/>
      <point x="290" y="61"/>
      <point x="396" y="61" type="curve" smooth="yes"/>
      <point x="469" y="61"/>
      <point x="525" y="83"/>
      <point x="557" y="129" type="curve"/>
      <point x="568" y="91"/>
      <point x="617" y="67"/>
      <point x="660" y="67" type="curve" smooth="yes"/>
      <point x="787" y="67"/>
      <point x="833" y="162"/>
      <point x="833" y="306" type="curve" smooth="yes"/>
      <point x="833" y="523"/>
      <point x="693" y="652"/>
      <point x="440" y="652" type="curve" smooth="yes"/>
      <point x="195" y="652"/>
      <point x="31" y="504"/>
      <point x="31" y="278" type="curve" smooth="yes"/>
      <point x="31" y="51"/>
      <point x="143" y="-110"/>
      <point x="439" y="-110" type="curve" smooth="yes"/>
    </contour>
    <contour>
      <point x="392" y="146"/>
      <point x="371" y="157"/>
      <point x="371" y="183" type="curve" smooth="yes"/>
      <point x="371" y="215"/>
      <point x="391" y="225"/>
      <point x="415" y="226" type="curve" smooth="yes"/>
      <point x="486" y="231" type="line"/>
      <point x="486" y="208" type="line" smooth="yes"/>
      <point x="486" y="165"/>
      <point x="457" y="146"/>
      <point x="416" y="146" type="curve" smooth="yes"/>
    </contour>
  </outline>
</glyph>
<glyph name="B" format="1">
  <advance width="606"/>
  <unicode hex="0042"/>
  <note>
	B
  </note>
  <outline>
    <contour>
      <point x="401" y="0" type="line" smooth="yes"/>
      <point x="512" y="0"/>
      <point x="585" y="72"/>
      <point x="585" y="182" type="curve" smooth="yes"/>
      <point x="585" y="259"/>
      <point x="548" y="303"/>
      <point x="485" y="329" type="curve"/>
      <point x="542" y="358"/>
      <point x="575" y="412"/>
      <point x="575" y="471" type="curve" smooth="yes"/>
      <point x="575" y="587"/>
      <point x="504" y="647"/>
      <point x="392" y="647" type="curve" smooth="yes"/>
      <point x="21" y="647" type="line"/>
      <point x="21" y="546" type="line"/>
      <point x="46" y="546" type="line" smooth="yes"/>
      <point x="74" y="546"/>
      <point x="85" y="533"/>
      <point x="85" y="509" type="curve" smooth="yes"/>
      <point x="85" y="140" type="line" smooth="yes"/>
      <point x="85" y="113"/>
      <point x="74" y="101"/>
      <point x="46" y="101" type="curve" smooth="yes"/>
      <point x="21" y="101" type="line"/>
      <point x="21" y="0" type="line"/>
    </contour>
    <contour>
      <point x="242" y="272" type="line"/>
      <point x="340" y="272" type="line" smooth="yes"/>
      <point x="389" y="272"/>
      <point x="430" y="254"/>
      <point x="430" y="188" type="curve" smooth="yes"/>
      <point x="430" y="127"/>
      <point x="394" y="101"/>
      <point x="348" y="101" type="curve" smooth="yes"/>
      <point x="242" y="101" type="line"/>
    </contour>
    <contour>
      <point x="242" y="546" type="line"/>
      <point x="338" y="546" type="line" smooth="yes"/>
      <point x="391" y="546"/>
      <point x="419" y="515"/>
      <point x="419" y="462" type="curve" smooth="yes"/>
      <point x="419" y="402"/>
      <point x="381" y="376"/>
      <point x="336" y="376" type="curve" smooth="yes"/>
      <point x="242" y="376" type="line"/>
    </contour>
  </outline>
</glyph>
<glyph name="C" format="1">
  <advance width="608"/>
  <unicode hex="0043"/>
  <note>
	C
  </note>
  <outline>
    <contour>
      <point x="462" y="-15"/>
      <point x="517" y="-2"/>
      <point x="587" y="46" type="curve"/>
      <point x="533" y="132" type="line"/>
      <point x="481" y="99"/>
      <point x="435" y="87"/>
      <point x="374" y="87" type="curve" smooth="yes"/>
      <point x="241" y="87"/>
      <point x="176" y="172"/>
      <point x="176" y="319" type="curve" smooth="yes"/>
      <point x="176" y="469"/>
      <point x="236" y="560"/>
      <point x="352" y="560" type="curve" smooth="yes"/>
      <point x="382" y="560"/>
      <point x="404" y="557"/>
      <point x="425" y="549" type="curve"/>
      <point x="425" y="475" type="line"/>
      <point x="582" y="475" type="line"/>
      <point x="582" y="601" type="line"/>
      <point x="520" y="643"/>
      <point x="454" y="662"/>
      <point x="349" y="662" type="curve" smooth="yes"/>
      <point x="121" y="662"/>
      <point x="21" y="514"/>
      <point x="21" y="319" type="curve" smooth="yes"/>
      <point x="21" y="124"/>
      <point x="136" y="-15"/>
      <point x="366" y="-15" type="curve" smooth="yes"/>
    </contour>
  </outline>
</glyph>
<glyph name="F" format="1">
  <advance width="547"/>
  <unicode hex="0046"/>
  <note>
	F
  </note>
  <outline>
    <contour>
      <point x="305" y="0" type="line"/>
      <point x="305" y="101" type="line"/>
      <point x="281" y="101" type="line" smooth="yes"/>
      <point x="254" y="101"/>
      <point x="242" y="114"/>
      <point x="242" y="138" type="curve" smooth="yes"/>
      <point x="242" y="273" type="line"/>
      <point x="378" y="273" type="line"/>
      <point x="378" y="374" type="line"/>
      <point x="242" y="374" type="line"/>
      <point x="242" y="546" type="line"/>
      <point x="343" y="546" type="line" smooth="yes"/>
      <point x="370" y="546"/>
      <point x="383" y="534"/>
      <point x="383" y="508" type="curve" smooth="yes"/>
      <point x="383" y="493" type="line"/>
      <point x="526" y="493" type="line"/>
      <point x="526" y="647" type="line"/>
      <point x="21" y="647" type="line"/>
      <point x="21" y="546" type="line"/>
      <point x="45" y="546" type="line" smooth="yes"/>
      <point x="73" y="546"/>
      <point x="85" y="533"/>
      <point x="85" y="509" type="curve" smooth="yes"/>
      <point x="85" y="140" type="line" smooth="yes"/>
      <point x="85" y="113"/>
      <point x="73" y="101"/>
      <point x="45" y="101" type="curve" smooth="yes"/>
      <point x="21" y="101" type="line"/>
      <point x="21" y="0" type="line"/>
    </contour>
  </outline>
</glyph>
<glyph name="J" format="1">
  <advance width="509"/>
  <unicode hex="004A"/>
  <note>
	J
  </note>
  <outline>
    <contour>
      <point x="350" y="-15"/>
      <point x="425" y="61"/>
      <point x="425" y="187" type="curve" smooth="yes"/>
      <point x="425" y="509" type="line" smooth="yes"/>
      <point x="425" y="533"/>
      <point x="437" y="546"/>
      <point x="464" y="546" type="curve" smooth="yes"/>
      <point x="488" y="546" type="line"/>
      <point x="488" y="647" type="line"/>
      <point x="204" y="647" type="line"/>
      <point x="204" y="546" type="line"/>
      <point x="228" y="546" type="line" smooth="yes"/>
      <point x="256" y="546"/>
      <point x="267" y="533"/>
      <point x="267" y="509" type="curve" smooth="yes"/>
      <point x="267" y="162" type="line" smooth="yes"/>
      <point x="267" y="109"/>
      <point x="247" y="87"/>
      <point x="197" y="87" type="curve" smooth="yes"/>
      <point x="171" y="87"/>
      <point x="147" y="96"/>
      <point x="131" y="112" type="curve"/>
      <point x="131" y="164" type="line"/>
      <point x="-9" y="164" type="line"/>
      <point x="-9" y="69" type="line"/>
      <point x="37" y="14"/>
      <point x="113" y="-15"/>
      <point x="207" y="-15" type="curve" smooth="yes"/>
    </contour>
  </outline>
</glyph>
<glyph name="K" format="1">
  <advance width="662"/>
  <unicode hex="004B"/>
  <note>
	K
  </note>
  <outline>
    <contour>
      <point x="287" y="0" type="line"/>
      <point x="287" y="101" type="line"/>
      <point x="274" y="101" type="line" smooth="yes"/>
      <point x="250" y="101"/>
      <point x="242" y="117"/>
      <point x="242" y="138" type="curve" smooth="yes"/>
      <point x="242" y="203" type="line"/>
      <point x="311" y="277" type="line"/>
      <point x="425" y="101" type="line"/>
      <point x="372" y="101" type="line"/>
      <point x="372" y="0" type="line"/>
      <point x="641" y="0" type="line"/>
      <point x="641" y="101" type="line"/>
      <point x="610" y="101" type="line" smooth="yes"/>
      <point x="586" y="101"/>
      <point x="572" y="108"/>
      <point x="561" y="125" type="curve" smooth="yes"/>
      <point x="401" y="369" type="line"/>
      <point x="546" y="523" type="line" smooth="yes"/>
      <point x="559" y="537"/>
      <point x="569" y="546"/>
      <point x="598" y="546" type="curve" smooth="yes"/>
      <point x="633" y="546" type="line"/>
      <point x="633" y="647" type="line"/>
      <point x="379" y="647" type="line"/>
      <point x="379" y="550" type="line"/>
      <point x="422" y="550" type="line"/>
      <point x="242" y="355" type="line"/>
      <point x="242" y="509" type="line" smooth="yes"/>
      <point x="242" y="530"/>
      <point x="252" y="545"/>
      <point x="275" y="545" type="curve" smooth="yes"/>
      <point x="287" y="545" type="line"/>
      <point x="287" y="647" type="line"/>
      <point x="21" y="647" type="line"/>
      <point x="21" y="546" type="line"/>
      <point x="45" y="546" type="line" smooth="yes"/>
      <point x="73" y="546"/>
      <point x="84" y="533"/>
      <point x="84" y="509" type="curve" smooth="yes"/>
      <point x="84" y="138" type="line" smooth="yes"/>
      <point x="84" y="115"/>
      <point x="73" y="101"/>
      <point x="45" y="101" type="curve" smooth="yes"/>
      <point x="21" y="101" type="line"/>
      <point x="21" y="0" type="line"/>
    </contour>
  </outline>
</glyph>
<glyph name="P" format="1">
  <advance width="629"/>
  <unicode hex="0050"/>
  <note>
	P
  </note>
  <outline>
    <contour>
      <point x="304" y="0" type="line"/>
      <point x="304" y="101" type="line"/>
      <point x="280" y="101" type="line" smooth="yes"/>
      <point x="251" y="101"/>
      <point x="240" y="115"/>
      <point x="240" y="138" type="curve" smooth="yes"/>
      <point x="240" y="227" type="line"/>
      <point x="374" y="227" type="line" smooth="yes"/>
      <point x="517" y="227"/>
      <point x="608" y="305"/>
      <point x="608" y="441" type="curve" smooth="yes"/>
      <point x="608" y="578"/>
      <point x="517" y="647"/>
      <point x="375" y="647" type="curve" smooth="yes"/>
      <point x="21" y="647" type="line"/>
      <point x="21" y="546" type="line"/>
      <point x="44" y="546" type="line" smooth="yes"/>
      <point x="73" y="546"/>
      <point x="84" y="532"/>
      <point x="84" y="509" type="curve" smooth="yes"/>
      <point x="84" y="138" type="line" smooth="yes"/>
      <point x="84" y="115"/>
      <point x="73" y="101"/>
      <point x="44" y="101" type="curve" smooth="yes"/>
      <point x="21" y="101" type="line"/>
      <point x="21" y="0" type="line"/>
    </contour>
    <contour>
      <point x="240" y="546" type="line"/>
      <point x="353" y="546" type="line" smooth="yes"/>
      <point x="422" y="546"/>
      <point x="453" y="519"/>
      <point x="453" y="441" type="curve" smooth="yes"/>
      <point x="453" y="364"/>
      <point x="422" y="329"/>
      <point x="353" y="329" type="curve" smooth="yes"/>
      <point x="240" y="329" type="line"/>
    </contour>
  </outline>
</glyph>
<glyph name="Q" format="1">
  <advance width="666"/>
  <unicode hex="0051"/>
  <note>
	Q
  </note>
  <outline>
    <contour>
      <point x="536" y="-145"/>
      <point x="595" y="-119"/>
      <point x="628" y="-77" type="curve"/>
      <point x="628" y="-14" type="line"/>
      <point x="515" y="-14" type="line"/>
      <point x="515" y="-38" type="line"/>
      <point x="504" y="-47"/>
      <point x="488" y="-53"/>
      <point x="460" y="-53" type="curve" smooth="yes"/>
      <point x="431" y="-53"/>
      <point x="403" y="-43"/>
      <point x="390" y="-13" type="curve"/>
      <point x="562" y="7"/>
      <point x="645" y="122"/>
      <point x="645" y="321" type="curve" smooth="yes"/>
      <point x="645" y="539"/>
      <point x="552" y="661"/>
      <point x="333" y="661" type="curve" smooth="yes"/>
      <point x="114" y="661"/>
      <point x="21" y="539"/>
      <point x="21" y="321" type="curve" smooth="yes"/>
      <point x="21" y="123"/>
      <point x="103" y="7"/>
      <point x="274" y="-13" type="curve"/>
      <point x="292" y="-89"/>
      <point x="345" y="-145"/>
      <point x="457" y="-145" type="curve" smooth="yes"/>
    </contour>
    <contour>
      <point x="223" y="87"/>
      <point x="177" y="156"/>
      <point x="177" y="321" type="curve" smooth="yes"/>
      <point x="177" y="490"/>
      <point x="222" y="559"/>
      <point x="333" y="559" type="curve" smooth="yes"/>
      <point x="444" y="559"/>
      <point x="490" y="490"/>
      <point x="490" y="321" type="curve" smooth="yes"/>
      <point x="490" y="156"/>
      <point x="444" y="87"/>
      <point x="333" y="87" type="curve" smooth="yes"/>
    </contour>
  </outline>
</glyph>
<glyph name="V" format="1">
  <advance width="710"/>
  <unicode hex="0056"/>
  <note>
	V
  </note>
  <outline>
    <contour>
      <point x="433" y="0" type="line"/>
      <point x="604" y="501" type="line" smooth="yes"/>
      <point x="617" y="538"/>
      <point x="634" y="546"/>
      <point x="676" y="546" type="curve" smooth="yes"/>
      <point x="689" y="546" type="line"/>
      <point x="689" y="647" type="line"/>
      <point x="484" y="647" type="line"/>
      <point x="356" y="201" type="line"/>
      <point x="224" y="647" type="line"/>
      <point x="21" y="647" type="line"/>
      <point x="21" y="546" type="line"/>
      <point x="35" y="546" type="line" smooth="yes"/>
      <point x="76" y="546"/>
      <point x="93" y="537"/>
      <point x="106" y="501" type="curve" smooth="yes"/>
      <point x="280" y="0" type="line"/>
    </contour>
  </outline>
</glyph>
<glyph name="X" format="1">
  <advance width="687"/>
  <unicode hex="0058"/>
  <note>
	X
  </note>
  <outline>
    <contour>
      <point x="295" y="0" type="line"/>
      <point x="295" y="101" type="line"/>
      <point x="260" y="101" type="line"/>
      <point x="343" y="234" type="line"/>
      <point x="427" y="101" type="line"/>
      <point x="391" y="101" type="line"/>
      <point x="391" y="0" type="line"/>
      <point x="666" y="0" type="line"/>
      <point x="666" y="101" type="line"/>
      <point x="637" y="101" type="line" smooth="yes"/>
      <point x="599" y="101"/>
      <point x="578" y="110"/>
      <point x="557" y="140" type="curve" smooth="yes"/>
      <point x="425" y="323" type="line"/>
      <point x="556" y="508" type="line" smooth="yes"/>
      <point x="577" y="538"/>
      <point x="598" y="546"/>
      <point x="636" y="546" type="curve" smooth="yes"/>
      <point x="656" y="546" type="line"/>
      <point x="656" y="647" type="line"/>
      <point x="390" y="647" type="line"/>
      <point x="390" y="546" type="line"/>
      <point x="426" y="546" type="line"/>
      <point x="343" y="412" type="line"/>
      <point x="261" y="546" type="line"/>
      <point x="296" y="546" type="line"/>
      <point x="296" y="647" type="line"/>
      <point x="30" y="647" type="line"/>
      <point x="30" y="546" type="line"/>
      <point x="50" y="546" type="line" smooth="yes"/>
      <point x="89" y="546"/>
      <point x="110" y="538"/>
      <point x="131" y="508" type="curve" smooth="yes"/>
      <point x="261" y="323" type="line"/>
      <point x="130" y="140" type="line" smooth="yes"/>
      <point x="108" y="110"/>
      <point x="88" y="101"/>
      <point x="49" y="101" type="curve" smooth="yes"/>
      <point x="21" y="101" type="line"/>
      <point x="21" y="0" type="line"/>
    </contour>
  </outline>
</glyph>
<glyph name="bracketleft" format="1">
  <advance width="321"/>
  <unicode hex="005B"/>
  <note>
	bracketleft
  </note>
  <outline>
    <contour>
      <point x="290" y="-83" type="line"/>
      <point x="290" y="18" type="line"/>
      <point x="199" y="18" type="line"/>
      <point x="199" y="649" type="line"/>
      <point x="290" y="649" type="line"/>
      <point x="290" y="750" type="line"/>
      <point x="41" y="750" type="line"/>
      <point x="41" y="-83" type="line"/>
    </contour>
  </outline>
</glyph>
<glyph name="backslash" format="1">
  <advance width="470"/>
  <unicode hex="005C"/>
  <note>
	backslash
  </note>
  <outline>
    <contour>
      <point x="439" y="0" type="line"/>
      <point x="190" y="676" type="line"/>
      <point x="31" y="676" type="line"/>
      <point x="281" y="0" type="line"/>
    </contour>
  </outline>
</glyph>
<glyph name="bracketright" format="1">
  <advance width="321"/>
  <unicode hex="005D"/>
  <note>
	bracketright
  </note>
  <outline>
    <contour>
      <point x="280" y="-83" type="line"/>
      <point x="280" y="750" type="line"/>
      <point x="31" y="750" type="line"/>
      <point x="31" y="649" type="line"/>
      <point x="122" y="649" type="line"/>
      <point x="122" y="18" type="line"/>
      <point x="31" y="18" type="line"/>
      <point x="31" y="-83" type="line"/>
    </contour>
  </outline>
</glyph>
<glyph name="asciicircum" format="1">
  <advance width="626"/>
  <unicode hex="005E"/>
  <note>
	asciicircum
  </note>
  <outline>
    <contour>
      <point x="193" y="358" type="line"/>
      <point x="313" y="572" type="line"/>
      <point x="433" y="358" type="line"/>
      <point x="595" y="358" type="line"/>
      <point x="375" y="719" type="line"/>
      <point x="251" y="719" type="line"/>
      <point x="31" y="358" type="line"/>
    </contour>
  </outline>
</glyph>
<glyph name="underscore" format="1">
  <advance width="483"/>
  <unicode hex="005F"/>
  <note>
	underscore
  </note>
  <outline>
    <contour>
      <point x="451" y="-103" type="line"/>
      <point x="451" y="0" type="line"/>
      <point x="31" y="0" type="line"/>
      <point x="31" y="-103" type="line"/>
    </contour>
  </outline>
</glyph>
<glyph name="grave" format="1">
  <advance width="319"/>
  <unicode hex="0060"/>
  <note>
	grave
  </note>
  <outline>
    <contour>
      <point x="288" y="508" type="line"/>
      <point x="202" y="706" type="line"/>
      <point x="31" y="706" type="line"/>
      <point x="155" y="508" type="line"/>
    </contour>
  </outline>
</glyph>
<glyph name="b" format="1">
  <advance width="597"/>
  <unicode hex="0062"/>
  <note>
	b
  </note>
  <outline>
    <contour>
      <point x="485" y="-15"/>
      <point x="576" y="73"/>
      <point x="576" y="235" type="curve" smooth="yes"/>
      <point x="576" y="401"/>
      <point x="505" y="495"/>
      <point x="364" y="495" type="curve" smooth="yes"/>
      <point x="298" y="495"/>
      <point x="251" y="478"/>
      <point x="209" y="440" type="curve"/>
      <point x="209" y="662" type="line"/>
      <point x="11" y="662" type="line"/>
      <point x="11" y="559" type="line"/>
      <point x="28" y="559" type="line" smooth="yes"/>
      <point x="58" y="559"/>
      <point x="65" y="544"/>
      <point x="65" y="519" type="curve" smooth="yes"/>
      <point x="65" y="0" type="line"/>
      <point x="174" y="0" type="line"/>
      <point x="182" y="67" type="line"/>
      <point x="221" y="6"/>
      <point x="276" y="-15"/>
      <point x="354" y="-15" type="curve" smooth="yes"/>
    </contour>
    <contour>
      <point x="255" y="75"/>
      <point x="218" y="137"/>
      <point x="218" y="211" type="curve" smooth="yes"/>
      <point x="218" y="266" type="line" smooth="yes"/>
      <point x="218" y="349"/>
      <point x="255" y="397"/>
      <point x="318" y="397" type="curve" smooth="yes"/>
      <point x="396" y="397"/>
      <point x="420" y="347"/>
      <point x="420" y="237" type="curve" smooth="yes"/>
      <point x="420" y="126"/>
      <point x="395" y="75"/>
      <point x="320" y="75" type="curve" smooth="yes"/>
    </contour>
  </outline>
</glyph>
<glyph name="f" format="1">
  <advance width="440"/>
  <unicode hex="0066"/>
  <note>
	f
  </note>
  <outline>
    <contour>
      <point x="298" y="0" type="line"/>
      <point x="298" y="102" type="line"/>
      <point x="280" y="102" type="line" smooth="yes"/>
      <point x="252" y="102"/>
      <point x="243" y="115"/>
      <point x="243" y="139" type="curve" smooth="yes"/>
      <point x="243" y="379" type="line"/>
      <point x="374" y="379" type="line"/>
      <point x="374" y="480" type="line"/>
      <point x="243" y="480" type="line"/>
      <point x="243" y="522" type="line" smooth="yes"/>
      <point x="243" y="565"/>
      <point x="264" y="584"/>
      <point x="301" y="584" type="curve" smooth="yes"/>
      <point x="323" y="584"/>
      <point x="338" y="578"/>
      <point x="350" y="565" type="curve"/>
      <point x="350" y="529" type="line"/>
      <point x="477" y="529" type="line"/>
      <point x="477" y="625" type="line"/>
      <point x="435" y="658"/>
      <point x="374" y="681"/>
      <point x="291" y="681" type="curve" smooth="yes"/>
      <point x="151" y="681"/>
      <point x="85" y="616"/>
      <point x="85" y="507" type="curve" smooth="yes"/>
      <point x="85" y="480" type="line"/>
      <point x="11" y="480" type="line"/>
      <point x="11" y="379" type="line"/>
      <point x="85" y="379" type="line"/>
      <point x="85" y="140" type="line" smooth="yes"/>
      <point x="85" y="115"/>
      <point x="73" y="102"/>
      <point x="44" y="102" type="curve" smooth="yes"/>
      <point x="26" y="102" type="line"/>
      <point x="26" y="0" type="line"/>
    </contour>
  </outline>
</glyph>
<glyph name="h" format="1">
  <advance width="611"/>
  <unicode hex="0068"/>
  <note>
	h
  </note>
  <outline>
    <contour>
      <point x="293" y="0" type="line"/>
      <point x="293" y="102" type="line"/>
      <point x="273" y="102" type="line" smooth="yes"/>
      <point x="247" y="102"/>
      <point x="238" y="115"/>
      <point x="238" y="139" type="curve" smooth="yes"/>
      <point x="238" y="320" type="line" smooth="yes"/>
      <point x="238" y="373"/>
      <point x="268" y="397"/>
      <point x="315" y="397" type="curve" smooth="yes"/>
      <point x="358" y="397"/>
      <point x="380" y="377"/>
      <point x="380" y="326" type="curve" smooth="yes"/>
      <point x="380" y="0" type="line"/>
      <point x="600" y="0" type="line"/>
      <point x="600" y="102" type="line"/>
      <point x="577" y="102" type="line" smooth="yes"/>
      <point x="549" y="102"/>
      <point x="538" y="115"/>
      <point x="538" y="139" type="curve" smooth="yes"/>
      <point x="538" y="327" type="line" smooth="yes"/>
      <point x="538" y="434"/>
      <point x="493" y="495"/>
      <point x="381" y="495" type="curve" smooth="yes"/>
      <point x="317" y="495"/>
      <point x="272" y="484"/>
      <point x="219" y="439" type="curve"/>
      <point x="219" y="662" type="line"/>
      <point x="21" y="662" type="line"/>
      <point x="21" y="560" type="line"/>
      <point x="41" y="560" type="line" smooth="yes"/>
      <point x="71" y="560"/>
      <point x="80" y="545"/>
      <point x="80" y="520" type="curve" smooth="yes"/>
      <point x="80" y="140" type="line" smooth="yes"/>
      <point x="80" y="115"/>
      <point x="68" y="102"/>
      <point x="40" y="102" type="curve" smooth="yes"/>
      <point x="21" y="102" type="line"/>
      <point x="21" y="0" type="line"/>
    </contour>
  </outline>
</glyph>
<glyph name="j" format="1">
  <advance width="403"/>
  <unicode hex="006A"/>
  <note>
	j
  </note>
  <outline>
    <contour>
      <point x="294" y="-174"/>
      <point x="361" y="-111"/>
      <point x="361" y="1" type="curve" smooth="yes"/>
      <point x="361" y="480" type="line"/>
      <point x="139" y="480" type="line"/>
      <point x="139" y="378" type="line"/>
      <point x="163" y="378" type="line" smooth="yes"/>
      <point x="193" y="378"/>
      <point x="202" y="363"/>
      <point x="202" y="338" type="curve" smooth="yes"/>
      <point x="202" y="-19" type="line" smooth="yes"/>
      <point x="202" y="-61"/>
      <point x="181" y="-74"/>
      <point x="144" y="-74" type="curve" smooth="yes"/>
      <point x="121" y="-74"/>
      <point x="104" y="-69"/>
      <point x="89" y="-56" type="curve"/>
      <point x="89" y="-15" type="line"/>
      <point x="-39" y="-15" type="line"/>
      <point x="-39" y="-116" type="line"/>
      <point x="5" y="-151"/>
      <point x="69" y="-174"/>
      <point x="152" y="-174" type="curve" smooth="yes"/>
    </contour>
    <contour>
      <point x="362" y="548" type="line"/>
      <point x="362" y="668" type="line"/>
      <point x="200" y="668" type="line"/>
      <point x="200" y="548" type="line"/>
    </contour>
  </outline>
</glyph>
<glyph name="k" format="1">
  <advance width="589"/>
  <unicode hex="006B"/>
  <note>
	k
  </note>
  <outline>
    <contour>
      <point x="290" y="0" type="line"/>
      <point x="290" y="98" type="line"/>
      <point x="262" y="98" type="line" smooth="yes"/>
      <point x="237" y="98"/>
      <point x="228" y="109"/>
      <point x="228" y="133" type="curve" smooth="yes"/>
      <point x="228" y="176" type="line"/>
      <point x="284" y="223" type="line"/>
      <point x="413" y="0" type="line"/>
      <point x="578" y="0" type="line"/>
      <point x="578" y="98" type="line"/>
      <point x="531" y="98" type="line" smooth="yes"/>
      <point x="509" y="98"/>
      <point x="500" y="103"/>
      <point x="491" y="119" type="curve" smooth="yes"/>
      <point x="385" y="304" type="line"/>
      <point x="460" y="368" type="line" smooth="yes"/>
      <point x="472" y="378"/>
      <point x="480" y="383"/>
      <point x="503" y="383" type="curve" smooth="yes"/>
      <point x="556" y="383" type="line"/>
      <point x="556" y="480" type="line"/>
      <point x="288" y="480" type="line"/>
      <point x="288" y="383" type="line"/>
      <point x="325" y="383" type="line"/>
      <point x="228" y="299" type="line"/>
      <point x="228" y="528" type="line" smooth="yes"/>
      <point x="228" y="553"/>
      <point x="235" y="565"/>
      <point x="262" y="565" type="curve" smooth="yes"/>
      <point x="287" y="565" type="line"/>
      <point x="287" y="662" type="line"/>
      <point x="21" y="662" type="line"/>
      <point x="21" y="565" type="line"/>
      <point x="46" y="565" type="line" smooth="yes"/>
      <point x="73" y="565"/>
      <point x="80" y="553"/>
      <point x="80" y="528" type="curve" smooth="yes"/>
      <point x="80" y="134" type="line" smooth="yes"/>
      <point x="80" y="109"/>
      <point x="70" y="98"/>
      <point x="45" y="98" type="curve" smooth="yes"/>
      <point x="21" y="98" type="line"/>
      <point x="21" y="0" type="line"/>
    </contour>
  </outline>
</glyph>
<glyph name="m" format="1">
  <advance width="873"/>
  <unicode hex="006D"/>
  <note>
	m
  </note>
  <outline>
    <contour>
      <point x="290" y="0" type="line"/>
      <point x="290" y="102" type="line"/>
      <point x="269" y="102" type="line" smooth="yes"/>
      <point x="243" y="102"/>
      <point x="234" y="115"/>
      <point x="234" y="139" type="curve" smooth="yes"/>
      <point x="234" y="320" type="line" smooth="yes"/>
      <point x="234" y="374"/>
      <point x="259" y="397"/>
      <point x="306" y="397" type="curve" smooth="yes"/>
      <point x="347" y="397"/>
      <point x="367" y="376"/>
      <point x="367" y="326" type="curve" smooth="yes"/>
      <point x="367" y="0" type="line"/>
      <point x="572" y="0" type="line"/>
      <point x="572" y="102" type="line"/>
      <point x="549" y="102" type="line" smooth="yes"/>
      <point x="522" y="102"/>
      <point x="513" y="115"/>
      <point x="513" y="139" type="curve" smooth="yes"/>
      <point x="513" y="323" type="line" smooth="yes"/>
      <point x="513" y="375"/>
      <point x="537" y="397"/>
      <point x="583" y="397" type="curve" smooth="yes"/>
      <point x="625" y="397"/>
      <point x="645" y="378"/>
      <point x="645" y="327" type="curve" smooth="yes"/>
      <point x="645" y="0" type="line"/>
      <point x="862" y="0" type="line"/>
      <point x="862" y="102" type="line"/>
      <point x="839" y="102" type="line" smooth="yes"/>
      <point x="812" y="102"/>
      <point x="801" y="115"/>
      <point x="801" y="139" type="curve" smooth="yes"/>
      <point x="801" y="327" type="line" smooth="yes"/>
      <point x="801" y="435"/>
      <point x="755" y="495"/>
      <point x="636" y="495" type="curve" smooth="yes"/>
      <point x="573" y="495"/>
      <point x="525" y="476"/>
      <point x="489" y="428" type="curve"/>
      <point x="460" y="469"/>
      <point x="417" y="495"/>
      <point x="360" y="495" type="curve" smooth="yes"/>
      <point x="284" y="495"/>
      <point x="223" y="468"/>
      <point x="183" y="412" type="curve"/>
      <point x="175" y="480" type="line"/>
      <point x="21" y="480" type="line"/>
      <point x="21" y="378" type="line"/>
      <point x="41" y="378" type="line" smooth="yes"/>
      <point x="69" y="378"/>
      <point x="80" y="364"/>
      <point x="80" y="340" type="curve" smooth="yes"/>
      <point x="80" y="140" type="line" smooth="yes"/>
      <point x="80" y="115"/>
      <point x="68" y="102"/>
      <point x="40" y="102" type="curve" smooth="yes"/>
      <point x="21" y="102" type="line"/>
      <point x="21" y="0" type="line"/>
    </contour>
  </outline>
</glyph>
<glyph name="p" format="1">
  <advance width="604"/>
  <unicode hex="0070"/>
  <note>
	p
  </note>
  <outline>
    <contour>
      <point x="274" y="-208" type="line"/>
      <point x="274" y="-106" type="line"/>
      <point x="255" y="-106" type="line" smooth="yes"/>
      <point x="227" y="-106"/>
      <point x="216" y="-93"/>
      <point x="216" y="-69" type="curve" smooth="yes"/>
      <point x="216" y="36" type="line"/>
      <point x="258" y="0"/>
      <point x="296" y="-15"/>
      <point x="364" y="-15" type="curve" smooth="yes"/>
      <point x="505" y="-15"/>
      <point x="583" y="79"/>
      <point x="583" y="245" type="curve" smooth="yes"/>
      <point x="583" y="410"/>
      <point x="494" y="495"/>
      <point x="361" y="495" type="curve" smooth="yes"/>
      <point x="283" y="495"/>
      <point x="228" y="465"/>
      <point x="190" y="412" type="curve"/>
      <point x="180" y="480" type="line"/>
      <point x="16" y="480" type="line"/>
      <point x="16" y="377" type="line"/>
      <point x="30" y="377" type="line" smooth="yes"/>
      <point x="58" y="377"/>
      <point x="70" y="363"/>
      <point x="70" y="339" type="curve" smooth="yes"/>
      <point x="70" y="-68" type="line" smooth="yes"/>
      <point x="70" y="-93"/>
      <point x="58" y="-106"/>
      <point x="30" y="-106" type="curve" smooth="yes"/>
      <point x="11" y="-106" type="line"/>
      <point x="11" y="-208" type="line"/>
    </contour>
    <contour>
      <point x="262" y="79"/>
      <point x="221" y="129"/>
      <point x="221" y="212" type="curve" smooth="yes"/>
      <point x="221" y="267" type="line" smooth="yes"/>
      <point x="221" y="343"/>
      <point x="260" y="404"/>
      <point x="326" y="404" type="curve" smooth="yes"/>
      <point x="403" y="404"/>
      <point x="427" y="353"/>
      <point x="427" y="244" type="curve" smooth="yes"/>
      <point x="427" y="134"/>
      <point x="402" y="79"/>
      <point x="324" y="79" type="curve" smooth="yes"/>
    </contour>
  </outline>
</glyph>
<glyph name="q" format="1">
  <advance width="604"/>
  <unicode hex="0071"/>
  <note>
	q
  </note>
  <outline>
    <contour>
      <point x="593" y="-208" type="line"/>
      <point x="593" y="-106" type="line"/>
      <point x="574" y="-106" type="line" smooth="yes"/>
      <point x="546" y="-106"/>
      <point x="534" y="-93"/>
      <point x="534" y="-68" type="curve" smooth="yes"/>
      <point x="534" y="339" type="line" smooth="yes"/>
      <point x="534" y="363"/>
      <point x="546" y="377"/>
      <point x="574" y="377" type="curve" smooth="yes"/>
      <point x="588" y="377" type="line"/>
      <point x="588" y="480" type="line"/>
      <point x="424" y="480" type="line"/>
      <point x="415" y="409" type="line"/>
      <point x="376" y="466"/>
      <point x="323" y="495"/>
      <point x="243" y="495" type="curve" smooth="yes"/>
      <point x="110" y="495"/>
      <point x="21" y="410"/>
      <point x="21" y="245" type="curve" smooth="yes"/>
      <point x="21" y="79"/>
      <point x="95" y="-15"/>
      <point x="237" y="-15" type="curve" smooth="yes"/>
      <point x="300" y="-15"/>
      <point x="347" y="1"/>
      <point x="388" y="37" type="curve"/>
      <point x="388" y="-208" type="line"/>
    </contour>
    <contour>
      <point x="203" y="80"/>
      <point x="177" y="134"/>
      <point x="177" y="244" type="curve" smooth="yes"/>
      <point x="177" y="353"/>
      <point x="201" y="404"/>
      <point x="278" y="404" type="curve" smooth="yes"/>
      <point x="347" y="404"/>
      <point x="383" y="348"/>
      <point x="383" y="270" type="curve" smooth="yes"/>
      <point x="383" y="212" type="line" smooth="yes"/>
      <point x="383" y="129"/>
      <point x="343" y="80"/>
      <point x="280" y="80" type="curve" smooth="yes"/>
    </contour>
  </outline>
</glyph>
<glyph name="v" format="1">
  <advance width="568"/>
  <unicode hex="0076"/>
  <note>
	v
  </note>
  <outline>
    <contour>
      <point x="357" y="0" type="line"/>
      <point x="482" y="351" type="line" smooth="yes"/>
      <point x="490" y="374"/>
      <point x="501" y="382"/>
      <point x="540" y="382" type="curve" smooth="yes"/>
      <point x="556" y="382" type="line"/>
      <point x="556" y="480" type="line"/>
      <point x="379" y="480" type="line"/>
      <point x="285" y="166" type="line"/>
      <point x="190" y="480" type="line"/>
      <point x="11" y="480" type="line"/>
      <point x="11" y="382" type="line"/>
      <point x="27" y="382" type="line" smooth="yes"/>
      <point x="66" y="382"/>
      <point x="77" y="374"/>
      <point x="85" y="351" type="curve" smooth="yes"/>
      <point x="211" y="0" type="line"/>
    </contour>
  </outline>
</glyph>
<glyph name="w" format="1">
  <advance width="759"/>
  <unicode hex="0077"/>
  <note>
	w
  </note>
  <outline>
    <contour>
      <point x="302" y="0" type="line"/>
      <point x="380" y="244" type="line"/>
      <point x="456" y="0" type="line"/>
      <point x="592" y="0" type="line"/>
      <point x="677" y="350" type="line" smooth="yes"/>
      <point x="683" y="375"/>
      <point x="698" y="382"/>
      <point x="725" y="382" type="curve" smooth="yes"/>
      <point x="747" y="382" type="line"/>
      <point x="747" y="480" type="line"/>
      <point x="572" y="480" type="line"/>
      <point x="506" y="196" type="line"/>
      <point x="432" y="437" type="line"/>
      <point x="326" y="437" type="line"/>
      <point x="252" y="196" type="line"/>
      <point x="187" y="480" type="line"/>
      <point x="11" y="480" type="line"/>
      <point x="11" y="382" type="line"/>
      <point x="34" y="382" type="line" smooth="yes"/>
      <point x="61" y="382"/>
      <point x="76" y="375"/>
      <point x="82" y="350" type="curve" smooth="yes"/>
      <point x="166" y="0" type="line"/>
    </contour>
  </outline>
</glyph>
<glyph name="x" format="1">
  <advance width="557"/>
  <unicode hex="0078"/>
  <note>
	x
  </note>
  <outline>
    <contour>
      <point x="246" y="0" type="line"/>
      <point x="246" y="87" type="line"/>
      <point x="222" y="87" type="line"/>
      <point x="278" y="165" type="line"/>
      <point x="335" y="87" type="line"/>
      <point x="311" y="87" type="line"/>
      <point x="311" y="0" type="line"/>
      <point x="546" y="0" type="line"/>
      <point x="546" y="87" type="line"/>
      <point x="520" y="87" type="line" smooth="yes"/>
      <point x="489" y="87"/>
      <point x="474" y="94"/>
      <point x="457" y="117" type="curve" smooth="yes"/>
      <point x="362" y="241" type="line"/>
      <point x="457" y="364" type="line" smooth="yes"/>
      <point x="474" y="386"/>
      <point x="489" y="393"/>
      <point x="520" y="393" type="curve" smooth="yes"/>
      <point x="542" y="393" type="line"/>
      <point x="542" y="480" type="line"/>
      <point x="311" y="480" type="line"/>
      <point x="311" y="393" type="line"/>
      <point x="335" y="393" type="line"/>
      <point x="278" y="315" type="line"/>
      <point x="222" y="393" type="line"/>
      <point x="246" y="393" type="line"/>
      <point x="246" y="480" type="line"/>
      <point x="15" y="480" type="line"/>
      <point x="15" y="393" type="line"/>
      <point x="36" y="393" type="line" smooth="yes"/>
      <point x="68" y="393"/>
      <point x="82" y="386"/>
      <point x="99" y="364" type="curve" smooth="yes"/>
      <point x="194" y="241" type="line"/>
      <point x="99" y="117" type="line" smooth="yes"/>
      <point x="82" y="94"/>
      <point x="68" y="87"/>
      <point x="36" y="87" type="curve" smooth="yes"/>
      <point x="11" y="87" type="line"/>
      <point x="11" y="0" type="line"/>
    </contour>
  </outline>
</glyph>
<glyph name="braceleft" format="1">
  <advance width="345"/>
  <unicode hex="007B"/>
  <note>
	braceleft
  </note>
  <outline>
    <contour>
      <point x="314" y="-85" type="line"/>
      <point x="314" y="16" type="line"/>
      <point x="297" y="16" type="line" smooth="yes"/>
      <point x="257" y="16"/>
      <point x="235" y="35"/>
      <point x="235" y="77" type="curve" smooth="yes"/>
      <point x="235" y="238" type="line" smooth="yes"/>
      <point x="235" y="274"/>
      <point x="214" y="311"/>
      <point x="178" y="334" type="curve"/>
      <point x="214" y="359"/>
      <point x="235" y="396"/>
      <point x="235" y="433" type="curve" smooth="yes"/>
      <point x="235" y="589" type="line" smooth="yes"/>
      <point x="235" y="631"/>
      <point x="258" y="650"/>
      <point x="297" y="650" type="curve" smooth="yes"/>
      <point x="314" y="650" type="line"/>
      <point x="314" y="751" type="line"/>
      <point x="249" y="751" type="line" smooth="yes"/>
      <point x="127" y="751"/>
      <point x="78" y="690"/>
      <point x="78" y="584" type="curve" smooth="yes"/>
      <point x="78" y="446" type="line" smooth="yes"/>
      <point x="78" y="401"/>
      <point x="53" y="387"/>
      <point x="11" y="387" type="curve"/>
      <point x="11" y="285" type="line"/>
      <point x="53" y="285"/>
      <point x="78" y="270"/>
      <point x="78" y="225" type="curve" smooth="yes"/>
      <point x="78" y="82" type="line" smooth="yes"/>
      <point x="78" y="-24"/>
      <point x="127" y="-85"/>
      <point x="249" y="-85" type="curve" smooth="yes"/>
    </contour>
  </outline>
</glyph>
<glyph name="bar" format="1">
  <advance width="220"/>
  <unicode hex="007C"/>
  <note>
	bar
  </note>
  <outline>
    <contour>
      <point x="189" y="-120" type="line"/>
      <point x="189" y="767" type="line"/>
      <point x="31" y="767" type="line"/>
      <point x="31" y="-120" type="line"/>
    </contour>
  </outline>
</glyph>
<glyph name="braceright" format="1">
  <advance width="346"/>
  <unicode hex="007D"/>
  <note>
	braceright
  </note>
  <outline>
    <contour>
      <point x="97" y="-85" type="line" smooth="yes"/>
      <point x="219" y="-85"/>
      <point x="268" y="-24"/>
      <point x="268" y="82" type="curve" smooth="yes"/>
      <point x="268" y="225" type="line" smooth="yes"/>
      <point x="268" y="270"/>
      <point x="293" y="285"/>
      <point x="335" y="285" type="curve"/>
      <point x="335" y="387" type="line"/>
      <point x="293" y="387"/>
      <point x="268" y="401"/>
      <point x="268" y="446" type="curve" smooth="yes"/>
      <point x="268" y="584" type="line" smooth="yes"/>
      <point x="268" y="690"/>
      <point x="219" y="751"/>
      <point x="97" y="751" type="curve" smooth="yes"/>
      <point x="32" y="751" type="line"/>
      <point x="32" y="650" type="line"/>
      <point x="49" y="650" type="line" smooth="yes"/>
      <point x="88" y="650"/>
      <point x="111" y="631"/>
      <point x="111" y="589" type="curve" smooth="yes"/>
      <point x="111" y="433" type="line" smooth="yes"/>
      <point x="111" y="396"/>
      <point x="132" y="359"/>
      <point x="168" y="334" type="curve"/>
      <point x="132" y="311"/>
      <point x="111" y="274"/>
      <point x="111" y="238" type="curve" smooth="yes"/>
      <point x="111" y="77" type="line" smooth="yes"/>
      <point x="111" y="35"/>
      <point x="89" y="16"/>
      <point x="49" y="16" type="curve" smooth="yes"/>
      <point x="32" y="16" type="line"/>
      <point x="32" y="-85" type="line"/>
    </contour>
  </outline>
</glyph>
<glyph name="asciitilde" format="1">
  <advance width="558"/>
  <unicode hex="007E"/>
  <note>
	asciitilde
  </note>
  <outline>
    <contour>
      <point x="152" y="225" type="line"/>
      <point x="152" y="258"/>
      <point x="167" y="278"/>
      <point x="202" y="278" type="curve" smooth="yes"/>
      <point x="258" y="278"/>
      <point x="296" y="225"/>
      <point x="391" y="225" type="curve" smooth="yes"/>
      <point x="484" y="225"/>
      <point x="526" y="282"/>
      <point x="526" y="398" type="curve"/>
      <point x="406" y="398" type="line"/>
      <point x="406" y="365"/>
      <point x="393" y="345"/>
      <point x="357" y="345" type="curve" smooth="yes"/>
      <point x="293" y="345"/>
      <point x="257" y="398"/>
      <point x="171" y="398" type="curve" smooth="yes"/>
      <point x="77" y="398"/>
      <point x="31" y="339"/>
      <point x="31" y="225" type="curve"/>
    </contour>
  </outline>
</glyph>
<glyph name="exclamdown" format="1">
  <advance width="233"/>
  <unicode hex="00A1"/>
  <note>
	exclamdown
  </note>
  <outline>
    <contour>
      <point x="200" y="-152" type="line"/>
      <point x="193" y="284" type="line"/>
      <point x="41" y="284" type="line"/>
      <point x="34" y="-152" type="line"/>
    </contour>
    <contour>
      <point x="202" y="377" type="line"/>
      <point x="202" y="495" type="line"/>
      <point x="31" y="495" type="line"/>
      <point x="31" y="377" type="line"/>
    </contour>
  </outline>
</glyph>
<glyph name="cent" format="1">
  <advance width="526"/>
  <unicode hex="00A2"/>
  <note>
	cent
  </note>
  <outline>
    <contour>
      <point x="351" y="-90" type="line"/>
      <point x="351" y="-13" type="line"/>
      <point x="413" y="-7"/>
      <point x="456" y="7"/>
      <point x="505" y="43" type="curve"/>
      <point x="452" y="129" type="line"/>
      <point x="417" y="104"/>
      <point x="375" y="94"/>
      <point x="321" y="94" type="curve" smooth="yes"/>
      <point x="232" y="94"/>
      <point x="178" y="134"/>
      <point x="178" y="234" type="curve" smooth="yes"/>
      <point x="178" y="342"/>
      <point x="227" y="387"/>
      <point x="291" y="387" type="curve" smooth="yes"/>
      <point x="325" y="387"/>
      <point x="347" y="382"/>
      <point x="368" y="369" type="curve"/>
      <point x="368" y="315" type="line"/>
      <point x="500" y="315" type="line"/>
      <point x="500" y="429" type="line"/>
      <point x="456" y="463"/>
      <point x="412" y="484"/>
      <point x="351" y="491" type="curve"/>
      <point x="351" y="570" type="line"/>
      <point x="209" y="570" type="line"/>
      <point x="209" y="486" type="line"/>
      <point x="93" y="462"/>
      <point x="21" y="378"/>
      <point x="21" y="234" type="curve" smooth="yes"/>
      <point x="21" y="100"/>
      <point x="99" y="19"/>
      <point x="209" y="-5" type="curve"/>
      <point x="209" y="-90" type="line"/>
    </contour>
  </outline>
</glyph>
<glyph name="sterling" format="1">
  <advance width="517"/>
  <unicode hex="00A3"/>
  <note>
	sterling
  </note>
  <outline>
    <contour>
      <point x="506" y="0" type="line"/>
      <point x="506" y="102" type="line"/>
      <point x="245" y="102" type="line"/>
      <point x="260" y="118"/>
      <point x="265" y="140"/>
      <point x="265" y="165" type="curve" smooth="yes"/>
      <point x="265" y="333" type="line"/>
      <point x="423" y="333" type="line"/>
      <point x="423" y="434" type="line"/>
      <point x="265" y="434" type="line"/>
      <point x="265" y="494" type="line" smooth="yes"/>
      <point x="265" y="541"/>
      <point x="289" y="562"/>
      <point x="330" y="562" type="curve" smooth="yes"/>
      <point x="352" y="562"/>
      <point x="366" y="557"/>
      <point x="380" y="545" type="curve"/>
      <point x="380" y="509" type="line"/>
      <point x="504" y="509" type="line"/>
      <point x="504" y="606" type="line"/>
      <point x="462" y="639"/>
      <point x="405" y="662"/>
      <point x="323" y="662" type="curve" smooth="yes"/>
      <point x="180" y="662"/>
      <point x="107" y="592"/>
      <point x="107" y="484" type="curve" smooth="yes"/>
      <point x="107" y="434" type="line"/>
      <point x="31" y="434" type="line"/>
      <point x="31" y="333" type="line"/>
      <point x="107" y="333" type="line"/>
      <point x="107" y="155" type="line" smooth="yes"/>
      <point x="107" y="118"/>
      <point x="93" y="102"/>
      <point x="61" y="102" type="curve" smooth="yes"/>
      <point x="33" y="102" type="line"/>
      <point x="33" y="0" type="line"/>
    </contour>
  </outline>
</glyph>
<glyph name="currency" format="1">
  <advance width="637"/>
  <unicode hex="00A4"/>
  <note>
	currency
  </note>
  <outline>
    <contour>
      <point x="223" y="126" type="line"/>
      <point x="251" y="112"/>
      <point x="284" y="105"/>
      <point x="319" y="105" type="curve" smooth="yes"/>
      <point x="352" y="105"/>
      <point x="386" y="112"/>
      <point x="414" y="126" type="curve"/>
      <point x="508" y="39" type="line"/>
      <point x="598" y="132" type="line"/>
      <point x="510" y="210" type="line"/>
      <point x="533" y="245"/>
      <point x="546" y="286"/>
      <point x="546" y="331" type="curve" smooth="yes"/>
      <point x="546" y="371"/>
      <point x="536" y="408"/>
      <point x="518" y="440" type="curve"/>
      <point x="606" y="521" type="line"/>
      <point x="517" y="612" type="line"/>
      <point x="429" y="530" type="line"/>
      <point x="396" y="548"/>
      <point x="358" y="559"/>
      <point x="319" y="559" type="curve" smooth="yes"/>
      <point x="279" y="559"/>
      <point x="241" y="548"/>
      <point x="209" y="530" type="curve"/>
      <point x="120" y="612" type="line"/>
      <point x="31" y="521" type="line"/>
      <point x="119" y="440" type="line"/>
      <point x="102" y="407"/>
      <point x="92" y="371"/>
      <point x="92" y="331" type="curve" smooth="yes"/>
      <point x="92" y="286"/>
      <point x="105" y="245"/>
      <point x="127" y="210" type="curve"/>
      <point x="41" y="132" type="line"/>
      <point x="129" y="39" type="line"/>
    </contour>
    <contour>
      <point x="261" y="228"/>
      <point x="217" y="274"/>
      <point x="217" y="331" type="curve" smooth="yes"/>
      <point x="217" y="389"/>
      <point x="261" y="435"/>
      <point x="319" y="435" type="curve" smooth="yes"/>
      <point x="377" y="435"/>
      <point x="422" y="389"/>
      <point x="422" y="331" type="curve" smooth="yes"/>
      <point x="422" y="274"/>
      <point x="377" y="228"/>
      <point x="319" y="228" type="curve" smooth="yes"/>
    </contour>
  </outline>
</glyph>
<glyph name="brokenbar" format="1">
  <advance width="219"/>
  <unicode hex="00A6"/>
  <note>
	brokenbar
  </note>
  <outline>
    <contour>
      <point x="188" y="403" type="line"/>
      <point x="188" y="767" type="line"/>
      <point x="31" y="767" type="line"/>
      <point x="31" y="403" type="line"/>
    </contour>
    <contour>
      <point x="188" y="-120" type="line"/>
      <point x="188" y="243" type="line"/>
      <point x="31" y="243" type="line"/>
      <point x="31" y="-120" type="line"/>
    </contour>
  </outline>
</glyph>
<glyph name="section" format="1">
  <advance width="528"/>
  <unicode hex="00A7"/>
  <note>
	section
  </note>
  <outline>
    <contour>
      <point x="432" y="-156"/>
      <point x="517" y="-76"/>
      <point x="517" y="28" type="curve" smooth="yes"/>
      <point x="517" y="69"/>
      <point x="508" y="100"/>
      <point x="486" y="126" type="curve"/>
      <point x="508" y="153"/>
      <point x="517" y="184"/>
      <point x="517" y="219" type="curve" smooth="yes"/>
      <point x="517" y="338"/>
      <point x="445" y="369"/>
      <point x="303" y="428" type="curve" smooth="yes"/>
      <point x="236" y="455"/>
      <point x="172" y="476"/>
      <point x="172" y="538" type="curve" smooth="yes"/>
      <point x="172" y="591"/>
      <point x="211" y="610"/>
      <point x="262" y="610" type="curve" smooth="yes"/>
      <point x="293" y="610"/>
      <point x="323" y="604"/>
      <point x="348" y="590" type="curve"/>
      <point x="348" y="524" type="line"/>
      <point x="506" y="524" type="line"/>
      <point x="506" y="629" type="line"/>
      <point x="455" y="674"/>
      <point x="383" y="712"/>
      <point x="270" y="712" type="curve" smooth="yes"/>
      <point x="132" y="712"/>
      <point x="17" y="656"/>
      <point x="17" y="532" type="curve" smooth="yes"/>
      <point x="17" y="493"/>
      <point x="27" y="462"/>
      <point x="49" y="435" type="curve"/>
      <point x="27" y="410"/>
      <point x="17" y="378"/>
      <point x="17" y="341" type="curve" smooth="yes"/>
      <point x="17" y="234"/>
      <point x="88" y="187"/>
      <point x="227" y="130" type="curve" smooth="yes"/>
      <point x="313" y="94"/>
      <point x="362" y="77"/>
      <point x="362" y="20" type="curve" smooth="yes"/>
      <point x="362" y="-32"/>
      <point x="329" y="-54"/>
      <point x="272" y="-54" type="curve" smooth="yes"/>
      <point x="231" y="-54"/>
      <point x="197" y="-46"/>
      <point x="170" y="-31" type="curve"/>
      <point x="170" y="42" type="line"/>
      <point x="11" y="42" type="line"/>
      <point x="11" y="-74" type="line"/>
      <point x="73" y="-124"/>
      <point x="161" y="-156"/>
      <point x="271" y="-156" type="curve" smooth="yes"/>
    </contour>
    <contour>
      <point x="323" y="220"/>
      <point x="280" y="237"/>
      <point x="247" y="253" type="curve" smooth="yes"/>
      <point x="191" y="280"/>
      <point x="158" y="300"/>
      <point x="158" y="338" type="curve" smooth="yes"/>
      <point x="158" y="344"/>
      <point x="160" y="352"/>
      <point x="163" y="356" type="curve"/>
      <point x="205" y="335"/>
      <point x="246" y="318"/>
      <point x="281" y="302" type="curve" smooth="yes"/>
      <point x="334" y="278"/>
      <point x="376" y="251"/>
      <point x="376" y="221" type="curve" smooth="yes"/>
      <point x="376" y="213"/>
      <point x="375" y="208"/>
      <point x="372" y="201" type="curve"/>
    </contour>
  </outline>
</glyph>
<glyph name="dieresis" format="1">
  <advance width="429"/>
  <unicode hex="00A8"/>
  <note>
	dieresis
  </note>
  <outline>
    <contour>
      <point x="398" y="528" type="line"/>
      <point x="398" y="651" type="line"/>
      <point x="284" y="651" type="line"/>
      <point x="284" y="528" type="line"/>
    </contour>
    <contour>
      <point x="143" y="528" type="line"/>
      <point x="143" y="651" type="line"/>
      <point x="31" y="651" type="line"/>
      <point x="31" y="528" type="line"/>
    </contour>
  </outline>
</glyph>
<glyph name="copyright" format="1">
  <advance width="778"/>
  <unicode hex="00A9"/>
  <note>
	copyright
  </note>
  <outline>
    <contour>
      <point x="587" y="-13"/>
      <point x="747" y="146"/>
      <point x="747" y="344" type="curve" smooth="yes"/>
      <point x="747" y="542"/>
      <point x="587" y="702"/>
      <point x="389" y="702" type="curve" smooth="yes"/>
      <point x="190" y="702"/>
      <point x="31" y="542"/>
      <point x="31" y="344" type="curve" smooth="yes"/>
      <point x="31" y="146"/>
      <point x="190" y="-13"/>
      <point x="389" y="-13" type="curve" smooth="yes"/>
    </contour>
    <contour>
      <point x="469" y="108"/>
      <point x="526" y="134"/>
      <point x="564" y="177" type="curve"/>
      <point x="523" y="245" type="line"/>
      <point x="495" y="217"/>
      <point x="455" y="198"/>
      <point x="409" y="198" type="curve" smooth="yes"/>
      <point x="333" y="198"/>
      <point x="292" y="247"/>
      <point x="292" y="337" type="curve" smooth="yes"/>
      <point x="292" y="437"/>
      <point x="331" y="485"/>
      <point x="387" y="485" type="curve" smooth="yes"/>
      <point x="417" y="485"/>
      <point x="433" y="479"/>
      <point x="452" y="467" type="curve"/>
      <point x="452" y="421" type="line"/>
      <point x="561" y="421" type="line"/>
      <point x="561" y="516" type="line"/>
      <point x="511" y="556"/>
      <point x="472" y="575"/>
      <point x="387" y="575" type="curve" smooth="yes"/>
      <point x="253" y="575"/>
      <point x="164" y="487"/>
      <point x="164" y="337" type="curve" smooth="yes"/>
      <point x="164" y="198"/>
      <point x="265" y="108"/>
      <point x="388" y="108" type="curve" smooth="yes"/>
    </contour>
    <contour>
      <point x="231" y="76"/>
      <point x="129" y="194"/>
      <point x="129" y="344" type="curve" smooth="yes"/>
      <point x="129" y="495"/>
      <point x="231" y="614"/>
      <point x="389" y="614" type="curve" smooth="yes"/>
      <point x="547" y="614"/>
      <point x="649" y="495"/>
      <point x="649" y="344" type="curve" smooth="yes"/>
      <point x="649" y="194"/>
      <point x="547" y="76"/>
      <point x="389" y="76" type="curve" smooth="yes"/>
    </contour>
  </outline>
</glyph>
<glyph name="ordfeminine" format="1">
  <advance width="387"/>
  <unicode hex="00AA"/>
  <note>
	ordfeminine
  </note>
  <outline>
    <contour>
      <point x="199" y="335"/>
      <point x="228" y="347"/>
      <point x="259" y="382" type="curve"/>
      <point x="270" y="345" type="line"/>
      <point x="356" y="345" type="line"/>
      <point x="356" y="409" type="line"/>
      <point x="346" y="409" type="line" smooth="yes"/>
      <point x="331" y="409"/>
      <point x="326" y="416"/>
      <point x="326" y="432" type="curve" smooth="yes"/>
      <point x="326" y="551" type="line" smooth="yes"/>
      <point x="326" y="615"/>
      <point x="284" y="662"/>
      <point x="189" y="662" type="curve" smooth="yes"/>
      <point x="138" y="662"/>
      <point x="94" y="648"/>
      <point x="59" y="626" type="curve"/>
      <point x="59" y="560" type="line"/>
      <point x="145" y="560" type="line"/>
      <point x="145" y="583" type="line"/>
      <point x="157" y="592"/>
      <point x="167" y="596"/>
      <point x="184" y="596" type="curve" smooth="yes"/>
      <point x="209" y="596"/>
      <point x="221" y="587"/>
      <point x="221" y="561" type="curve" smooth="yes"/>
      <point x="221" y="531" type="line"/>
      <point x="155" y="526" type="line" smooth="yes"/>
      <point x="78" y="520"/>
      <point x="31" y="488"/>
      <point x="31" y="423" type="curve" smooth="yes"/>
      <point x="31" y="369"/>
      <point x="68" y="335"/>
      <point x="141" y="335" type="curve" smooth="yes"/>
    </contour>
    <contour>
      <point x="141" y="401"/>
      <point x="128" y="412"/>
      <point x="128" y="431" type="curve" smooth="yes"/>
      <point x="128" y="452"/>
      <point x="138" y="464"/>
      <point x="167" y="467" type="curve" smooth="yes"/>
      <point x="221" y="471" type="line"/>
      <point x="221" y="449" type="line" smooth="yes"/>
      <point x="221" y="416"/>
      <point x="202" y="401"/>
      <point x="167" y="401" type="curve" smooth="yes"/>
    </contour>
  </outline>
</glyph>
<glyph name="guillemetleft" format="1">
  <advance width="639"/>
  <unicode hex="00AB"/>
  <note>
	guillemotleft
  </note>
  <outline>
    <contour>
      <point x="607" y="184" type="line"/>
      <point x="443" y="325" type="line"/>
      <point x="607" y="468" type="line"/>
      <point x="607" y="624" type="line"/>
      <point x="284" y="353" type="line"/>
      <point x="284" y="298" type="line"/>
      <point x="607" y="27" type="line"/>
    </contour>
    <contour>
      <point x="354" y="184" type="line"/>
      <point x="191" y="325" type="line"/>
      <point x="354" y="468" type="line"/>
      <point x="354" y="624" type="line"/>
      <point x="31" y="353" type="line"/>
      <point x="31" y="298" type="line"/>
      <point x="354" y="27" type="line"/>
    </contour>
  </outline>
</glyph>
<glyph name="logicalnot" format="1">
  <advance width="499"/>
  <unicode hex="00AC"/>
  <note>
	logicalnot
  </note>
  <outline>
    <contour>
      <point x="467" y="131" type="line"/>
      <point x="467" y="358" type="line"/>
      <point x="31" y="358" type="line"/>
      <point x="31" y="257" type="line"/>
      <point x="344" y="257" type="line"/>
      <point x="344" y="131" type="line"/>
    </contour>
  </outline>
</glyph>
<glyph name="softhyphen" format="1">
  <advance width="369"/>
  <unicode hex="00AD"/>
  <note>
	softhyphen
  </note>
  <outline>
    <contour>
      <point x="338" y="250" type="line"/>
      <point x="338" y="351" type="line"/>
      <point x="31" y="351" type="line"/>
      <point x="31" y="250" type="line"/>
    </contour>
  </outline>
</glyph>
<glyph name="registered" format="1">
  <advance width="778"/>
  <unicode hex="00AE"/>
  <note>
	registered
  </note>
  <outline>
    <contour>
      <point x="587" y="-13"/>
      <point x="747" y="146"/>
      <point x="747" y="344" type="curve" smooth="yes"/>
      <point x="747" y="542"/>
      <point x="587" y="702"/>
      <point x="389" y="702" type="curve" smooth="yes"/>
      <point x="190" y="702"/>
      <point x="31" y="542"/>
      <point x="31" y="344" type="curve" smooth="yes"/>
      <point x="31" y="146"/>
      <point x="190" y="-13"/>
      <point x="389" y="-13" type="curve" smooth="yes"/>
    </contour>
    <contour>
      <point x="231" y="76"/>
      <point x="129" y="194"/>
      <point x="129" y="344" type="curve" smooth="yes"/>
      <point x="129" y="495"/>
      <point x="231" y="614"/>
      <point x="389" y="614" type="curve" smooth="yes"/>
      <point x="547" y="614"/>
      <point x="649" y="495"/>
      <point x="649" y="344" type="curve" smooth="yes"/>
      <point x="649" y="194"/>
      <point x="547" y="76"/>
      <point x="389" y="76" type="curve" smooth="yes"/>
    </contour>
    <contour>
      <point x="378" y="156" type="line"/>
      <point x="378" y="230" type="line"/>
      <point x="368" y="230" type="line" smooth="yes"/>
      <point x="350" y="230"/>
      <point x="346" y="237"/>
      <point x="346" y="259" type="curve" smooth="yes"/>
      <point x="346" y="305" type="line"/>
      <point x="388" y="305" type="line"/>
      <point x="426" y="230" type="line"/>
      <point x="396" y="230" type="line"/>
      <point x="396" y="156" type="line"/>
      <point x="574" y="156" type="line"/>
      <point x="574" y="230" type="line"/>
      <point x="560" y="230" type="line" smooth="yes"/>
      <point x="544" y="230"/>
      <point x="533" y="236"/>
      <point x="523" y="255" type="curve" smooth="yes"/>
      <point x="491" y="316" type="line"/>
      <point x="541" y="331"/>
      <point x="564" y="373"/>
      <point x="564" y="424" type="curve" smooth="yes"/>
      <point x="564" y="495"/>
      <point x="508" y="539"/>
      <point x="415" y="539" type="curve" smooth="yes"/>
      <point x="211" y="539" type="line"/>
      <point x="211" y="462" type="line"/>
      <point x="219" y="462" type="line" smooth="yes"/>
      <point x="239" y="462"/>
      <point x="245" y="455"/>
      <point x="245" y="434" type="curve" smooth="yes"/>
      <point x="245" y="268" type="line" smooth="yes"/>
      <point x="245" y="240"/>
      <point x="242" y="230"/>
      <point x="219" y="230" type="curve" smooth="yes"/>
      <point x="211" y="230" type="line"/>
      <point x="211" y="156" type="line"/>
    </contour>
    <contour>
      <point x="362" y="462" type="line"/>
      <point x="409" y="462" type="line" smooth="yes"/>
      <point x="435" y="462"/>
      <point x="449" y="450"/>
      <point x="449" y="421" type="curve" smooth="yes"/>
      <point x="449" y="391"/>
      <point x="434" y="377"/>
      <point x="409" y="377" type="curve" smooth="yes"/>
      <point x="362" y="377" type="line"/>
    </contour>
  </outline>
</glyph>
<glyph name="macron" format="1">
  <advance width="425"/>
  <unicode hex="00AF"/>
  <note>
	macron
  </note>
  <outline>
    <contour>
      <point x="393" y="538" type="line"/>
      <point x="393" y="631" type="line"/>
      <point x="31" y="631" type="line"/>
      <point x="31" y="538" type="line"/>
    </contour>
  </outline>
</glyph>
<glyph name="degree" format="1">
  <advance width="336"/>
  <unicode hex="00B0"/>
  <note>
	degree
  </note>
  <outline>
    <contour>
      <point x="243" y="403"/>
      <point x="304" y="464"/>
      <point x="304" y="538" type="curve" smooth="yes"/>
      <point x="304" y="614"/>
      <point x="243" y="675"/>
      <point x="167" y="675" type="curve" smooth="yes"/>
      <point x="93" y="675"/>
      <point x="31" y="614"/>
      <point x="31" y="538" type="curve" smooth="yes"/>
      <point x="31" y="464"/>
      <point x="93" y="403"/>
      <point x="167" y="403" type="curve" smooth="yes"/>
    </contour>
    <contour>
      <point x="141" y="492"/>
      <point x="121" y="512"/>
      <point x="121" y="538" type="curve" smooth="yes"/>
      <point x="121" y="566"/>
      <point x="141" y="586"/>
      <point x="168" y="586" type="curve" smooth="yes"/>
      <point x="195" y="586"/>
      <point x="214" y="566"/>
      <point x="214" y="538" type="curve" smooth="yes"/>
      <point x="214" y="512"/>
      <point x="195" y="492"/>
      <point x="168" y="492" type="curve" smooth="yes"/>
    </contour>
  </outline>
</glyph>
<glyph name="plusminus" format="1">
  <advance width="413"/>
  <unicode hex="00B1"/>
  <note>
	plusminus
  </note>
  <outline>
    <contour>
      <point x="267" y="172" type="line"/>
      <point x="267" y="274" type="line"/>
      <point x="382" y="274" type="line"/>
      <point x="382" y="375" type="line"/>
      <point x="267" y="375" type="line"/>
      <point x="267" y="477" type="line"/>
      <point x="144" y="477" type="line"/>
      <point x="144" y="375" type="line"/>
      <point x="31" y="375" type="line"/>
      <point x="31" y="274" type="line"/>
      <point x="144" y="274" type="line"/>
      <point x="144" y="172" type="line"/>
    </contour>
    <contour>
      <point x="382" y="18" type="line"/>
      <point x="382" y="119" type="line"/>
      <point x="31" y="119" type="line"/>
      <point x="31" y="18" type="line"/>
    </contour>
  </outline>
</glyph>
<glyph name="twosuperior" format="1">
  <advance width="329"/>
  <unicode hex="00B2"/>
  <note>
	twosuperior
  </note>
  <outline>
    <contour>
      <point x="297" y="345" type="line"/>
      <point x="297" y="416" type="line"/>
      <point x="157" y="416" type="line"/>
      <point x="157" y="434"/>
      <point x="188" y="449"/>
      <point x="219" y="468" type="curve" smooth="yes"/>
      <point x="276" y="503"/>
      <point x="296" y="522"/>
      <point x="296" y="571" type="curve" smooth="yes"/>
      <point x="296" y="632"/>
      <point x="243" y="662"/>
      <point x="164" y="662" type="curve" smooth="yes"/>
      <point x="122" y="662"/>
      <point x="63" y="648"/>
      <point x="31" y="627" type="curve"/>
      <point x="31" y="560" type="line"/>
      <point x="124" y="560" type="line"/>
      <point x="124" y="591" type="line"/>
      <point x="132" y="595"/>
      <point x="143" y="598"/>
      <point x="156" y="598" type="curve" smooth="yes"/>
      <point x="179" y="598"/>
      <point x="190" y="588"/>
      <point x="190" y="568" type="curve" smooth="yes"/>
      <point x="190" y="538"/>
      <point x="166" y="524"/>
      <point x="126" y="500" type="curve" smooth="yes"/>
      <point x="62" y="461"/>
      <point x="31" y="435"/>
      <point x="31" y="377" type="curve" smooth="yes"/>
      <point x="31" y="345" type="line"/>
    </contour>
  </outline>
</glyph>
<glyph name="threesuperior" format="1">
  <advance width="340"/>
  <unicode hex="00B3"/>
  <note>
	threesuperior
  </note>
  <outline>
    <contour>
      <point x="270" y="335"/>
      <point x="308" y="373"/>
      <point x="308" y="437" type="curve" smooth="yes"/>
      <point x="308" y="469"/>
      <point x="295" y="492"/>
      <point x="264" y="503" type="curve"/>
      <point x="296" y="518"/>
      <point x="303" y="549"/>
      <point x="303" y="575" type="curve" smooth="yes"/>
      <point x="303" y="627"/>
      <point x="262" y="662"/>
      <point x="162" y="662" type="curve" smooth="yes"/>
      <point x="110" y="662"/>
      <point x="62" y="645"/>
      <point x="37" y="626" type="curve"/>
      <point x="37" y="562" type="line"/>
      <point x="128" y="562" type="line"/>
      <point x="128" y="590" type="line"/>
      <point x="137" y="595"/>
      <point x="151" y="598"/>
      <point x="164" y="598" type="curve" smooth="yes"/>
      <point x="191" y="598"/>
      <point x="202" y="589"/>
      <point x="202" y="569" type="curve" smooth="yes"/>
      <point x="202" y="541"/>
      <point x="190" y="535"/>
      <point x="163" y="535" type="curve" smooth="yes"/>
      <point x="129" y="535" type="line"/>
      <point x="129" y="472" type="line"/>
      <point x="163" y="472" type="line" smooth="yes"/>
      <point x="193" y="472"/>
      <point x="205" y="464"/>
      <point x="205" y="435" type="curve" smooth="yes"/>
      <point x="205" y="408"/>
      <point x="191" y="399"/>
      <point x="162" y="399" type="curve" smooth="yes"/>
      <point x="146" y="399"/>
      <point x="132" y="402"/>
      <point x="122" y="408" type="curve"/>
      <point x="122" y="440" type="line"/>
      <point x="31" y="440" type="line"/>
      <point x="31" y="377" type="line"/>
      <point x="60" y="352"/>
      <point x="106" y="335"/>
      <point x="164" y="335" type="curve" smooth="yes"/>
    </contour>
  </outline>
</glyph>
<glyph name="acute" format="1">
  <advance width="320"/>
  <unicode hex="00B4"/>
  <note>
	acute
  </note>
  <outline>
    <contour>
      <point x="165" y="508" type="line"/>
      <point x="289" y="706" type="line"/>
      <point x="118" y="706" type="line"/>
      <point x="31" y="508" type="line"/>
    </contour>
  </outline>
</glyph>
<glyph name="paragraph" format="1">
  <advance width="692"/>
  <unicode hex="00B6"/>
  <note>
	paragraph
  </note>
  <outline>
    <contour>
      <point x="368" y="-156" type="line"/>
      <point x="368" y="547" type="line"/>
      <point x="442" y="547" type="line"/>
      <point x="442" y="-156" type="line"/>
      <point x="661" y="-156" type="line"/>
      <point x="661" y="-55" type="line"/>
      <point x="637" y="-55" type="line" smooth="yes"/>
      <point x="609" y="-55"/>
      <point x="598" y="-42"/>
      <point x="598" y="-16" type="curve" smooth="yes"/>
      <point x="598" y="508" type="line" smooth="yes"/>
      <point x="598" y="533"/>
      <point x="609" y="547"/>
      <point x="638" y="547" type="curve" smooth="yes"/>
      <point x="659" y="547" type="line"/>
      <point x="659" y="647" type="line"/>
      <point x="247" y="647" type="line" smooth="yes"/>
      <point x="101" y="647"/>
      <point x="31" y="581"/>
      <point x="31" y="463" type="curve" smooth="yes"/>
      <point x="31" y="368"/>
      <point x="97" y="293"/>
      <point x="212" y="293" type="curve"/>
      <point x="212" y="-16" type="line" smooth="yes"/>
      <point x="212" y="-42"/>
      <point x="201" y="-55"/>
      <point x="173" y="-55" type="curve" smooth="yes"/>
      <point x="150" y="-55" type="line"/>
      <point x="150" y="-156" type="line"/>
    </contour>
  </outline>
</glyph>
<glyph name="periodcentered" format="1">
  <advance width="179"/>
  <unicode hex="00B7"/>
  <note>
	periodcentered
  </note>
  <outline>
    <contour>
      <point x="147" y="254" type="line"/>
      <point x="147" y="360" type="line"/>
      <point x="31" y="360" type="line"/>
      <point x="31" y="254" type="line"/>
    </contour>
  </outline>
</glyph>
<glyph name="cedilla" format="1">
  <advance width="314"/>
  <unicode hex="00B8"/>
  <note>
	cedilla
  </note>
  <outline>
    <contour>
      <point x="237" y="-228"/>
      <point x="283" y="-190"/>
      <point x="283" y="-127" type="curve" smooth="yes"/>
      <point x="283" y="-79"/>
      <point x="260" y="-50"/>
      <point x="207" y="-40" type="curve"/>
      <point x="213" y="0" type="line"/>
      <point x="69" y="0" type="line"/>
      <point x="58" y="-79" type="line"/>
      <point x="132" y="-79"/>
      <point x="149" y="-93"/>
      <point x="149" y="-120" type="curve" smooth="yes"/>
      <point x="149" y="-135"/>
      <point x="138" y="-144"/>
      <point x="108" y="-144" type="curve" smooth="yes"/>
      <point x="88" y="-144"/>
      <point x="58" y="-140"/>
      <point x="31" y="-127" type="curve"/>
      <point x="31" y="-211" type="line"/>
      <point x="63" y="-224"/>
      <point x="90" y="-228"/>
      <point x="127" y="-228" type="curve" smooth="yes"/>
    </contour>
  </outline>
</glyph>
<glyph name="onesuperior" format="1">
  <advance width="268"/>
  <unicode hex="00B9"/>
  <note>
	onesuperior
  </note>
  <outline>
    <contour>
      <point x="247" y="345" type="line"/>
      <point x="247" y="416" type="line"/>
      <point x="216" y="416" type="line" smooth="yes"/>
      <point x="198" y="416"/>
      <point x="194" y="422"/>
      <point x="194" y="437" type="curve" smooth="yes"/>
      <point x="194" y="657" type="line"/>
      <point x="114" y="657" type="line"/>
      <point x="21" y="599" type="line"/>
      <point x="59" y="538" type="line"/>
      <point x="99" y="564" type="line"/>
      <point x="99" y="437" type="line" smooth="yes"/>
      <point x="99" y="422"/>
      <point x="94" y="416"/>
      <point x="76" y="416" type="curve" smooth="yes"/>
      <point x="45" y="416" type="line"/>
      <point x="45" y="345" type="line"/>
    </contour>
  </outline>
</glyph>
<glyph name="ordmasculine" format="1">
  <advance width="394"/>
  <unicode hex="00BA"/>
  <note>
	ordmasculine
  </note>
  <outline>
    <contour>
      <point x="301" y="335"/>
      <point x="362" y="392"/>
      <point x="362" y="498" type="curve" smooth="yes"/>
      <point x="362" y="604"/>
      <point x="304" y="662"/>
      <point x="197" y="662" type="curve" smooth="yes"/>
      <point x="90" y="662"/>
      <point x="31" y="604"/>
      <point x="31" y="498" type="curve" smooth="yes"/>
      <point x="31" y="392"/>
      <point x="92" y="335"/>
      <point x="197" y="335" type="curve" smooth="yes"/>
    </contour>
    <contour>
      <point x="151" y="405"/>
      <point x="136" y="433"/>
      <point x="136" y="498" type="curve" smooth="yes"/>
      <point x="136" y="565"/>
      <point x="151" y="592"/>
      <point x="197" y="592" type="curve" smooth="yes"/>
      <point x="241" y="592"/>
      <point x="258" y="565"/>
      <point x="258" y="498" type="curve" smooth="yes"/>
      <point x="258" y="433"/>
      <point x="241" y="405"/>
      <point x="197" y="405" type="curve" smooth="yes"/>
    </contour>
  </outline>
</glyph>
<glyph name="guillemetright" format="1">
  <advance width="639"/>
  <unicode hex="00BB"/>
  <note>
	guillemotright
  </note>
  <outline>
    <contour>
      <point x="607" y="298" type="line"/>
      <point x="607" y="353" type="line"/>
      <point x="284" y="624" type="line"/>
      <point x="284" y="468" type="line"/>
      <point x="449" y="325" type="line"/>
      <point x="284" y="184" type="line"/>
      <point x="284" y="27" type="line"/>
    </contour>
    <contour>
      <point x="354" y="298" type="line"/>
      <point x="354" y="353" type="line"/>
      <point x="31" y="624" type="line"/>
      <point x="31" y="468" type="line"/>
      <point x="195" y="325" type="line"/>
      <point x="31" y="184" type="line"/>
      <point x="31" y="27" type="line"/>
    </contour>
  </outline>
</glyph>
<glyph name="onequarter" format="1">
  <advance width="655"/>
  <unicode hex="00BC"/>
  <note>
	onequarter
  </note>
  <outline>
    <contour>
      <point x="226" y="0" type="line"/>
      <point x="610" y="647" type="line"/>
      <point x="467" y="647" type="line"/>
      <point x="83" y="0" type="line"/>
    </contour>
    <contour>
      <point x="613" y="0" type="line"/>
      <point x="613" y="57" type="line"/>
      <point x="597" y="57" type="line" smooth="yes"/>
      <point x="582" y="57"/>
      <point x="577" y="63"/>
      <point x="577" y="76" type="curve" smooth="yes"/>
      <point x="577" y="87" type="line"/>
      <point x="624" y="87" type="line"/>
      <point x="624" y="150" type="line"/>
      <point x="577" y="150" type="line"/>
      <point x="577" y="312" type="line"/>
      <point x="475" y="312" type="line"/>
      <point x="346" y="144" type="line"/>
      <point x="346" y="87" type="line"/>
      <point x="483" y="87" type="line"/>
      <point x="483" y="76" type="line" smooth="yes"/>
      <point x="483" y="63"/>
      <point x="478" y="57"/>
      <point x="463" y="57" type="curve" smooth="yes"/>
      <point x="447" y="57" type="line"/>
      <point x="447" y="0" type="line"/>
    </contour>
    <contour>
      <point x="257" y="345" type="line"/>
      <point x="257" y="416" type="line"/>
      <point x="226" y="416" type="line" smooth="yes"/>
      <point x="208" y="416"/>
      <point x="204" y="422"/>
      <point x="204" y="437" type="curve" smooth="yes"/>
      <point x="204" y="657" type="line"/>
      <point x="124" y="657" type="line"/>
      <point x="31" y="599" type="line"/>
      <point x="69" y="538" type="line"/>
      <point x="109" y="564" type="line"/>
      <point x="109" y="437" type="line" smooth="yes"/>
      <point x="109" y="422"/>
      <point x="104" y="416"/>
      <point x="86" y="416" type="curve" smooth="yes"/>
      <point x="55" y="416" type="line"/>
      <point x="55" y="345" type="line"/>
    </contour>
    <contour>
      <point x="496" y="223" type="line"/>
      <point x="496" y="150" type="line"/>
      <point x="439" y="150" type="line"/>
    </contour>
  </outline>
</glyph>
<glyph name="onehalf" format="1">
  <advance width="712"/>
  <unicode hex="00BD"/>
  <note>
	onehalf
  </note>
  <outline>
    <contour>
      <point x="226" y="0" type="line"/>
      <point x="610" y="647" type="line"/>
      <point x="467" y="647" type="line"/>
      <point x="83" y="0" type="line"/>
    </contour>
    <contour>
      <point x="257" y="345" type="line"/>
      <point x="257" y="416" type="line"/>
      <point x="226" y="416" type="line" smooth="yes"/>
      <point x="208" y="416"/>
      <point x="204" y="422"/>
      <point x="204" y="437" type="curve" smooth="yes"/>
      <point x="204" y="657" type="line"/>
      <point x="124" y="657" type="line"/>
      <point x="31" y="599" type="line"/>
      <point x="69" y="538" type="line"/>
      <point x="109" y="564" type="line"/>
      <point x="109" y="437" type="line" smooth="yes"/>
      <point x="109" y="422"/>
      <point x="104" y="416"/>
      <point x="86" y="416" type="curve" smooth="yes"/>
      <point x="55" y="416" type="line"/>
      <point x="55" y="345" type="line"/>
    </contour>
    <contour>
      <point x="681" y="0" type="line"/>
      <point x="681" y="71" type="line"/>
      <point x="541" y="71" type="line"/>
      <point x="541" y="89"/>
      <point x="572" y="104"/>
      <point x="603" y="123" type="curve" smooth="yes"/>
      <point x="659" y="158"/>
      <point x="680" y="177"/>
      <point x="680" y="226" type="curve" smooth="yes"/>
      <point x="680" y="287"/>
      <point x="627" y="317"/>
      <point x="549" y="317" type="curve" smooth="yes"/>
      <point x="505" y="317"/>
      <point x="446" y="303"/>
      <point x="415" y="282" type="curve"/>
      <point x="415" y="215" type="line"/>
      <point x="508" y="215" type="line"/>
      <point x="508" y="246" type="line"/>
      <point x="516" y="250"/>
      <point x="528" y="253"/>
      <point x="539" y="253" type="curve" smooth="yes"/>
      <point x="563" y="253"/>
      <point x="573" y="243"/>
      <point x="573" y="223" type="curve" smooth="yes"/>
      <point x="573" y="193"/>
      <point x="549" y="180"/>
      <point x="509" y="155" type="curve" smooth="yes"/>
      <point x="445" y="116"/>
      <point x="415" y="90"/>
      <point x="415" y="32" type="curve" smooth="yes"/>
      <point x="415" y="0" type="line"/>
    </contour>
  </outline>
</glyph>
<glyph name="threequarters" format="1">
  <advance width="667"/>
  <unicode hex="00BE"/>
  <note>
	threequarters
  </note>
  <outline>
    <contour>
      <point x="238" y="0" type="line"/>
      <point x="622" y="647" type="line"/>
      <point x="478" y="647" type="line"/>
      <point x="95" y="0" type="line"/>
    </contour>
    <contour>
      <point x="625" y="0" type="line"/>
      <point x="625" y="57" type="line"/>
      <point x="608" y="57" type="line" smooth="yes"/>
      <point x="594" y="57"/>
      <point x="589" y="63"/>
      <point x="589" y="76" type="curve" smooth="yes"/>
      <point x="589" y="87" type="line"/>
      <point x="636" y="87" type="line"/>
      <point x="636" y="150" type="line"/>
      <point x="589" y="150" type="line"/>
      <point x="589" y="312" type="line"/>
      <point x="487" y="312" type="line"/>
      <point x="357" y="144" type="line"/>
      <point x="357" y="87" type="line"/>
      <point x="495" y="87" type="line"/>
      <point x="495" y="76" type="line" smooth="yes"/>
      <point x="495" y="63"/>
      <point x="489" y="57"/>
      <point x="475" y="57" type="curve" smooth="yes"/>
      <point x="459" y="57" type="line"/>
      <point x="459" y="0" type="line"/>
    </contour>
    <contour>
      <point x="508" y="223" type="line"/>
      <point x="508" y="150" type="line"/>
      <point x="450" y="150" type="line"/>
    </contour>
    <contour>
      <point x="270" y="335"/>
      <point x="308" y="373"/>
      <point x="308" y="437" type="curve" smooth="yes"/>
      <point x="308" y="469"/>
      <point x="295" y="492"/>
      <point x="264" y="503" type="curve"/>
      <point x="296" y="518"/>
      <point x="303" y="549"/>
      <point x="303" y="575" type="curve" smooth="yes"/>
      <point x="303" y="627"/>
      <point x="262" y="662"/>
      <point x="162" y="662" type="curve" smooth="yes"/>
      <point x="110" y="662"/>
      <point x="62" y="645"/>
      <point x="37" y="626" type="curve"/>
      <point x="37" y="562" type="line"/>
      <point x="128" y="562" type="line"/>
      <point x="128" y="590" type="line"/>
      <point x="137" y="595"/>
      <point x="151" y="598"/>
      <point x="164" y="598" type="curve" smooth="yes"/>
      <point x="191" y="598"/>
      <point x="202" y="589"/>
      <point x="202" y="570" type="curve" smooth="yes"/>
      <point x="202" y="542"/>
      <point x="190" y="535"/>
      <point x="163" y="535" type="curve" smooth="yes"/>
      <point x="129" y="535" type="line"/>
      <point x="129" y="472" type="line"/>
      <point x="163" y="472" type="line" smooth="yes"/>
      <point x="193" y="472"/>
      <point x="205" y="464"/>
      <point x="205" y="435" type="curve" smooth="yes"/>
      <point x="205" y="408"/>
      <point x="191" y="399"/>
      <point x="162" y="399" type="curve" smooth="yes"/>
      <point x="146" y="399"/>
      <point x="132" y="402"/>
      <point x="122" y="408" type="curve"/>
      <point x="122" y="440" type="line"/>
      <point x="31" y="440" type="line"/>
      <point x="31" y="377" type="line"/>
      <point x="60" y="352"/>
      <point x="106" y="335"/>
      <point x="164" y="335" type="curve" smooth="yes"/>
    </contour>
  </outline>
</glyph>
<glyph name="questiondown" format="1">
  <advance width="550"/>
  <unicode hex="00BF"/>
  <note>
	questiondown
  </note>
  <outline>
    <contour>
      <point x="379" y="-167"/>
      <point x="462" y="-137"/>
      <point x="518" y="-95" type="curve"/>
      <point x="518" y="19" type="line"/>
      <point x="380" y="19" type="line"/>
      <point x="380" y="-43" type="line"/>
      <point x="353" y="-55"/>
      <point x="321" y="-65"/>
      <point x="283" y="-65" type="curve" smooth="yes"/>
      <point x="218" y="-65"/>
      <point x="186" y="-39"/>
      <point x="186" y="10" type="curve" smooth="yes"/>
      <point x="186" y="62"/>
      <point x="221" y="85"/>
      <point x="271" y="113" type="curve" smooth="yes"/>
      <point x="359" y="162"/>
      <point x="391" y="221"/>
      <point x="391" y="303" type="curve" smooth="yes"/>
      <point x="391" y="331" type="line"/>
      <point x="234" y="331" type="line"/>
      <point x="234" y="311" type="line" smooth="yes"/>
      <point x="234" y="248"/>
      <point x="226" y="223"/>
      <point x="168" y="189" type="curve" smooth="yes"/>
      <point x="76" y="136"/>
      <point x="31" y="98"/>
      <point x="31" y="10" type="curve" smooth="yes"/>
      <point x="31" y="-110"/>
      <point x="122" y="-167"/>
      <point x="278" y="-167" type="curve" smooth="yes"/>
    </contour>
    <contour>
      <point x="399" y="375" type="line"/>
      <point x="399" y="495" type="line"/>
      <point x="227" y="495" type="line"/>
      <point x="227" y="375" type="line"/>
    </contour>
  </outline>
</glyph>
<glyph name="Aacute" format="1">
  <advance width="715"/>
  <unicode hex="00C1"/>
  <note>
	Aacute
  </note>
  <outline>
    <contour>
      <point x="292" y="0" type="line"/>
      <point x="292" y="101" type="line"/>
      <point x="250" y="101" type="line"/>
      <point x="280" y="193" type="line"/>
      <point x="437" y="193" type="line"/>
      <point x="465" y="101" type="line"/>
      <point x="423" y="101" type="line"/>
      <point x="423" y="0" type="line"/>
      <point x="693" y="0" type="line"/>
      <point x="693" y="101" type="line"/>
      <point x="667" y="101" type="line" smooth="yes"/>
      <point x="633" y="101"/>
      <point x="620" y="106"/>
      <point x="610" y="136" type="curve" smooth="yes"/>
      <point x="435" y="647" type="line"/>
      <point x="282" y="647" type="line"/>
      <point x="104" y="136" type="line" smooth="yes"/>
      <point x="93" y="106"/>
      <point x="81" y="101"/>
      <point x="48" y="101" type="curve" smooth="yes"/>
      <point x="21" y="101" type="line"/>
      <point x="21" y="0" type="line"/>
    </contour>
    <contour>
      <point x="360" y="446" type="line"/>
      <point x="413" y="274" type="line"/>
      <point x="304" y="274" type="line"/>
    </contour>
    <contour>
      <point x="420" y="699" type="line"/>
      <point x="533" y="879" type="line"/>
      <point x="362" y="879" type="line"/>
      <point x="287" y="699" type="line"/>
    </contour>
  </outline>
</glyph>
<glyph name="Atilde" format="1">
  <advance width="715"/>
  <unicode hex="00C3"/>
  <note>
	Atilde
  </note>
  <outline>
    <contour>
      <point x="292" y="0" type="line"/>
      <point x="292" y="101" type="line"/>
      <point x="250" y="101" type="line"/>
      <point x="280" y="193" type="line"/>
      <point x="437" y="193" type="line"/>
      <point x="465" y="101" type="line"/>
      <point x="423" y="101" type="line"/>
      <point x="423" y="0" type="line"/>
      <point x="693" y="0" type="line"/>
      <point x="693" y="101" type="line"/>
      <point x="667" y="101" type="line" smooth="yes"/>
      <point x="633" y="101"/>
      <point x="620" y="106"/>
      <point x="610" y="136" type="curve" smooth="yes"/>
      <point x="435" y="647" type="line"/>
      <point x="282" y="647" type="line"/>
      <point x="104" y="136" type="line" smooth="yes"/>
      <point x="93" y="106"/>
      <point x="81" y="101"/>
      <point x="48" y="101" type="curve" smooth="yes"/>
      <point x="21" y="101" type="line"/>
      <point x="21" y="0" type="line"/>
    </contour>
    <contour>
      <point x="360" y="446" type="line"/>
      <point x="413" y="274" type="line"/>
      <point x="304" y="274" type="line"/>
    </contour>
    <contour>
      <point x="255" y="699" type="line"/>
      <point x="255" y="732"/>
      <point x="271" y="747"/>
      <point x="299" y="747" type="curve" smooth="yes"/>
      <point x="344" y="747"/>
      <point x="377" y="699"/>
      <point x="453" y="699" type="curve" smooth="yes"/>
      <point x="541" y="699"/>
      <point x="575" y="751"/>
      <point x="575" y="867" type="curve"/>
      <point x="467" y="867" type="line"/>
      <point x="467" y="834"/>
      <point x="453" y="818"/>
      <point x="423" y="818" type="curve" smooth="yes"/>
      <point x="378" y="818"/>
      <point x="346" y="867"/>
      <point x="272" y="867" type="curve" smooth="yes"/>
      <point x="183" y="867"/>
      <point x="146" y="812"/>
      <point x="146" y="699" type="curve"/>
    </contour>
  </outline>
</glyph>
<glyph name="Aring" format="1">
  <advance width="715"/>
  <unicode hex="00C5"/>
  <note>
	Aring
  </note>
  <outline>
    <contour>
      <point x="292" y="0" type="line"/>
      <point x="292" y="101" type="line"/>
      <point x="250" y="101" type="line"/>
      <point x="280" y="193" type="line"/>
      <point x="437" y="193" type="line"/>
      <point x="465" y="101" type="line"/>
      <point x="423" y="101" type="line"/>
      <point x="423" y="0" type="line"/>
      <point x="693" y="0" type="line"/>
      <point x="693" y="101" type="line"/>
      <point x="667" y="101" type="line" smooth="yes"/>
      <point x="633" y="101"/>
      <point x="620" y="106"/>
      <point x="610" y="136" type="curve" smooth="yes"/>
      <point x="435" y="647" type="line"/>
      <point x="282" y="647" type="line"/>
      <point x="104" y="136" type="line" smooth="yes"/>
      <point x="93" y="106"/>
      <point x="81" y="101"/>
      <point x="48" y="101" type="curve" smooth="yes"/>
      <point x="21" y="101" type="line"/>
      <point x="21" y="0" type="line"/>
    </contour>
    <contour>
      <point x="360" y="446" type="line"/>
      <point x="413" y="274" type="line"/>
      <point x="304" y="274" type="line"/>
    </contour>
    <contour>
      <point x="426" y="599"/>
      <point x="479" y="651"/>
      <point x="479" y="717" type="curve" smooth="yes"/>
      <point x="479" y="783"/>
      <point x="426" y="836"/>
      <point x="360" y="836" type="curve" smooth="yes"/>
      <point x="294" y="836"/>
      <point x="241" y="783"/>
      <point x="241" y="717" type="curve" smooth="yes"/>
      <point x="241" y="651"/>
      <point x="294" y="599"/>
      <point x="360" y="599" type="curve" smooth="yes"/>
    </contour>
    <contour>
      <point x="336" y="675"/>
      <point x="318" y="694"/>
      <point x="318" y="717" type="curve" smooth="yes"/>
      <point x="318" y="741"/>
      <point x="336" y="760"/>
      <point x="360" y="760" type="curve" smooth="yes"/>
      <point x="384" y="760"/>
      <point x="402" y="741"/>
      <point x="402" y="717" type="curve" smooth="yes"/>
      <point x="402" y="694"/>
      <point x="384" y="675"/>
      <point x="360" y="675" type="curve" smooth="yes"/>
    </contour>
  </outline>
</glyph>
<glyph name="AE" format="1">
  <advance width="826"/>
  <unicode hex="00C6"/>
  <note>
	AE
  </note>
  <outline>
    <contour>
      <point x="292" y="0" type="line"/>
      <point x="292" y="101" type="line"/>
      <point x="250" y="101" type="line"/>
      <point x="281" y="193" type="line"/>
      <point x="374" y="193" type="line"/>
      <point x="374" y="140" type="line" smooth="yes"/>
      <point x="374" y="113"/>
      <point x="365" y="101"/>
      <point x="337" y="101" type="curve" smooth="yes"/>
      <point x="323" y="101" type="line"/>
      <point x="323" y="0" type="line"/>
      <point x="805" y="0" type="line"/>
      <point x="805" y="155" type="line"/>
      <point x="662" y="155" type="line"/>
      <point x="662" y="140" type="line" smooth="yes"/>
      <point x="662" y="113"/>
      <point x="649" y="101"/>
      <point x="622" y="101" type="curve" smooth="yes"/>
      <point x="527" y="101" type="line"/>
      <point x="527" y="273" type="line"/>
      <point x="657" y="273" type="line"/>
      <point x="657" y="374" type="line"/>
      <point x="527" y="374" type="line"/>
      <point x="527" y="546" type="line"/>
      <point x="607" y="546" type="line" smooth="yes"/>
      <point x="644" y="546"/>
      <point x="662" y="539"/>
      <point x="662" y="508" type="curve" smooth="yes"/>
      <point x="662" y="493" type="line"/>
      <point x="805" y="493" type="line"/>
      <point x="805" y="647" type="line"/>
      <point x="286" y="647" type="line"/>
      <point x="104" y="136" type="line" smooth="yes"/>
      <point x="93" y="106"/>
      <point x="81" y="101"/>
      <point x="48" y="101" type="curve" smooth="yes"/>
      <point x="21" y="101" type="line"/>
      <point x="21" y="0" type="line"/>
    </contour>
    <contour>
      <point x="373" y="500" type="line"/>
      <point x="373" y="500"/>
      <point x="374" y="500"/>
      <point x="374" y="500" type="curve"/>
      <point x="374" y="278" type="line"/>
      <point x="306" y="278" type="line"/>
    </contour>
  </outline>
</glyph>
<glyph name="Ccedilla" format="1">
  <advance width="608"/>
  <unicode hex="00C7"/>
  <note>
	Ccedilla
  </note>
  <outline>
    <contour>
      <point x="451" y="-228"/>
      <point x="497" y="-187"/>
      <point x="497" y="-123" type="curve" smooth="yes"/>
      <point x="497" y="-75"/>
      <point x="473" y="-47"/>
      <point x="423" y="-36" type="curve"/>
      <point x="427" y="-13" type="line"/>
      <point x="488" y="-7"/>
      <point x="533" y="9"/>
      <point x="587" y="46" type="curve"/>
      <point x="533" y="132" type="line"/>
      <point x="481" y="99"/>
      <point x="435" y="87"/>
      <point x="374" y="87" type="curve" smooth="yes"/>
      <point x="241" y="87"/>
      <point x="176" y="172"/>
      <point x="176" y="319" type="curve" smooth="yes"/>
      <point x="176" y="469"/>
      <point x="236" y="560"/>
      <point x="352" y="560" type="curve" smooth="yes"/>
      <point x="382" y="560"/>
      <point x="404" y="557"/>
      <point x="425" y="549" type="curve"/>
      <point x="425" y="475" type="line"/>
      <point x="582" y="475" type="line"/>
      <point x="582" y="601" type="line"/>
      <point x="520" y="643"/>
      <point x="454" y="662"/>
      <point x="349" y="662" type="curve" smooth="yes"/>
      <point x="121" y="662"/>
      <point x="21" y="514"/>
      <point x="21" y="319" type="curve" smooth="yes"/>
      <point x="21" y="157"/>
      <point x="100" y="34"/>
      <point x="258" y="-3" type="curve"/>
      <point x="248" y="-77" type="line"/>
      <point x="322" y="-77"/>
      <point x="339" y="-90"/>
      <point x="339" y="-114" type="curve" smooth="yes"/>
      <point x="339" y="-125"/>
      <point x="332" y="-133"/>
      <point x="308" y="-133" type="curve" smooth="yes"/>
      <point x="288" y="-133"/>
      <point x="254" y="-129"/>
      <point x="224" y="-113" type="curve"/>
      <point x="224" y="-208" type="line"/>
      <point x="259" y="-224"/>
      <point x="289" y="-228"/>
      <point x="331" y="-228" type="curve" smooth="yes"/>
    </contour>
  </outline>
</glyph>
<glyph name="Egrave" format="1">
  <advance width="547"/>
  <unicode hex="00C8"/>
  <note>
	Egrave
  </note>
  <outline>
    <contour>
      <point x="526" y="0" type="line"/>
      <point x="526" y="155" type="line"/>
      <point x="383" y="155" type="line"/>
      <point x="383" y="140" type="line" smooth="yes"/>
      <point x="383" y="113"/>
      <point x="370" y="101"/>
      <point x="343" y="101" type="curve" smooth="yes"/>
      <point x="242" y="101" type="line"/>
      <point x="242" y="273" type="line"/>
      <point x="378" y="273" type="line"/>
      <point x="378" y="374" type="line"/>
      <point x="242" y="374" type="line"/>
      <point x="242" y="546" type="line"/>
      <point x="343" y="546" type="line" smooth="yes"/>
      <point x="370" y="546"/>
      <point x="383" y="534"/>
      <point x="383" y="508" type="curve" smooth="yes"/>
      <point x="383" y="493" type="line"/>
      <point x="526" y="493" type="line"/>
      <point x="526" y="647" type="line"/>
      <point x="21" y="647" type="line"/>
      <point x="21" y="546" type="line"/>
      <point x="45" y="546" type="line" smooth="yes"/>
      <point x="73" y="546"/>
      <point x="85" y="533"/>
      <point x="85" y="509" type="curve" smooth="yes"/>
      <point x="85" y="140" type="line" smooth="yes"/>
      <point x="85" y="113"/>
      <point x="73" y="101"/>
      <point x="45" y="101" type="curve" smooth="yes"/>
      <point x="21" y="101" type="line"/>
      <point x="21" y="0" type="line"/>
    </contour>
    <contour>
      <point x="355" y="699" type="line"/>
      <point x="280" y="879" type="line"/>
      <point x="108" y="879" type="line"/>
      <point x="221" y="699" type="line"/>
    </contour>
  </outline>
</glyph>
<glyph name="Igrave" format="1">
  <advance width="325"/>
  <unicode hex="00CC"/>
  <note>
	Igrave
  </note>
  <outline>
    <contour>
      <point x="304" y="0" type="line"/>
      <point x="304" y="101" type="line"/>
      <point x="280" y="101" type="line" smooth="yes"/>
      <point x="252" y="101"/>
      <point x="241" y="114"/>
      <point x="241" y="138" type="curve" smooth="yes"/>
      <point x="241" y="509" type="line" smooth="yes"/>
      <point x="241" y="533"/>
      <point x="252" y="546"/>
      <point x="280" y="546" type="curve" smooth="yes"/>
      <point x="304" y="546" type="line"/>
      <point x="304" y="647" type="line"/>
      <point x="21" y="647" type="line"/>
      <point x="21" y="546" type="line"/>
      <point x="44" y="546" type="line" smooth="yes"/>
      <point x="73" y="546"/>
      <point x="84" y="533"/>
      <point x="84" y="509" type="curve" smooth="yes"/>
      <point x="84" y="140" type="line" smooth="yes"/>
      <point x="84" y="113"/>
      <point x="73" y="101"/>
      <point x="44" y="101" type="curve" smooth="yes"/>
      <point x="21" y="101" type="line"/>
      <point x="21" y="0" type="line"/>
    </contour>
    <contour>
      <point x="239" y="699" type="line"/>
      <point x="164" y="879" type="line"/>
      <point x="-8" y="879" type="line"/>
      <point x="105" y="699" type="line"/>
    </contour>
  </outline>
</glyph>
<glyph name="Iacute" format="1">
  <advance width="325"/>
  <unicode hex="00CD"/>
  <note>
	Iacute
  </note>
  <outline>
    <contour>
      <point x="304" y="0" type="line"/>
      <point x="304" y="101" type="line"/>
      <point x="280" y="101" type="line" smooth="yes"/>
      <point x="252" y="101"/>
      <point x="241" y="114"/>
      <point x="241" y="138" type="curve" smooth="yes"/>
      <point x="241" y="509" type="line" smooth="yes"/>
      <point x="241" y="533"/>
      <point x="252" y="546"/>
      <point x="280" y="546" type="curve" smooth="yes"/>
      <point x="304" y="546" type="line"/>
      <point x="304" y="647" type="line"/>
      <point x="21" y="647" type="line"/>
      <point x="21" y="546" type="line"/>
      <point x="44" y="546" type="line" smooth="yes"/>
      <point x="73" y="546"/>
      <point x="84" y="533"/>
      <point x="84" y="509" type="curve" smooth="yes"/>
      <point x="84" y="140" type="line" smooth="yes"/>
      <point x="84" y="113"/>
      <point x="73" y="101"/>
      <point x="44" y="101" type="curve" smooth="yes"/>
      <point x="21" y="101" type="line"/>
      <point x="21" y="0" type="line"/>
    </contour>
    <contour>
      <point x="219" y="699" type="line"/>
      <point x="332" y="879" type="line"/>
      <point x="161" y="879" type="line"/>
      <point x="86" y="699" type="line"/>
    </contour>
  </outline>
</glyph>
<glyph name="Icircumflex" format="1">
  <advance width="325"/>
  <unicode hex="00CE"/>
  <note>
	Icircumflex
  </note>
  <outline>
    <contour>
      <point x="304" y="0" type="line"/>
      <point x="304" y="101" type="line"/>
      <point x="280" y="101" type="line" smooth="yes"/>
      <point x="252" y="101"/>
      <point x="241" y="114"/>
      <point x="241" y="138" type="curve" smooth="yes"/>
      <point x="241" y="509" type="line" smooth="yes"/>
      <point x="241" y="533"/>
      <point x="252" y="546"/>
      <point x="280" y="546" type="curve" smooth="yes"/>
      <point x="304" y="546" type="line"/>
      <point x="304" y="647" type="line"/>
      <point x="21" y="647" type="line"/>
      <point x="21" y="546" type="line"/>
      <point x="44" y="546" type="line" smooth="yes"/>
      <point x="73" y="546"/>
      <point x="84" y="533"/>
      <point x="84" y="509" type="curve" smooth="yes"/>
      <point x="84" y="140" type="line" smooth="yes"/>
      <point x="84" y="113"/>
      <point x="73" y="101"/>
      <point x="44" y="101" type="curve" smooth="yes"/>
      <point x="21" y="101" type="line"/>
      <point x="21" y="0" type="line"/>
    </contour>
    <contour>
      <point x="98" y="699" type="line"/>
      <point x="162" y="813" type="line"/>
      <point x="225" y="699" type="line"/>
      <point x="366" y="699" type="line"/>
      <point x="231" y="897" type="line"/>
      <point x="95" y="897" type="line"/>
      <point x="-41" y="699" type="line"/>
    </contour>
  </outline>
</glyph>
<glyph name="Idieresis" format="1">
  <advance width="325"/>
  <unicode hex="00CF"/>
  <note>
	Idieresis
  </note>
  <outline>
    <contour>
      <point x="304" y="0" type="line"/>
      <point x="304" y="101" type="line"/>
      <point x="280" y="101" type="line" smooth="yes"/>
      <point x="252" y="101"/>
      <point x="241" y="114"/>
      <point x="241" y="138" type="curve" smooth="yes"/>
      <point x="241" y="509" type="line" smooth="yes"/>
      <point x="241" y="533"/>
      <point x="252" y="546"/>
      <point x="280" y="546" type="curve" smooth="yes"/>
      <point x="304" y="546" type="line"/>
      <point x="304" y="647" type="line"/>
      <point x="21" y="647" type="line"/>
      <point x="21" y="546" type="line"/>
      <point x="44" y="546" type="line" smooth="yes"/>
      <point x="73" y="546"/>
      <point x="84" y="533"/>
      <point x="84" y="509" type="curve" smooth="yes"/>
      <point x="84" y="140" type="line" smooth="yes"/>
      <point x="84" y="113"/>
      <point x="73" y="101"/>
      <point x="44" y="101" type="curve" smooth="yes"/>
      <point x="21" y="101" type="line"/>
      <point x="21" y="0" type="line"/>
    </contour>
    <contour>
      <point x="101" y="719" type="line"/>
      <point x="101" y="841" type="line"/>
      <point x="-15" y="841" type="line"/>
      <point x="-15" y="719" type="line"/>
    </contour>
    <contour>
      <point x="339" y="719" type="line"/>
      <point x="339" y="841" type="line"/>
      <point x="222" y="841" type="line"/>
      <point x="222" y="719" type="line"/>
    </contour>
  </outline>
</glyph>
<glyph name="Ntilde" format="1">
  <advance width="695"/>
  <unicode hex="00D1"/>
  <note>
	Ntilde
  </note>
  <outline>
    <contour>
      <point x="304" y="0" type="line"/>
      <point x="304" y="101" type="line"/>
      <point x="280" y="101" type="line" smooth="yes"/>
      <point x="253" y="101"/>
      <point x="241" y="115"/>
      <point x="241" y="138" type="curve" smooth="yes"/>
      <point x="241" y="392" type="line"/>
      <point x="494" y="0" type="line"/>
      <point x="611" y="0" type="line"/>
      <point x="611" y="509" type="line" smooth="yes"/>
      <point x="611" y="533"/>
      <point x="623" y="546"/>
      <point x="650" y="546" type="curve" smooth="yes"/>
      <point x="674" y="546" type="line"/>
      <point x="674" y="647" type="line"/>
      <point x="391" y="647" type="line"/>
      <point x="391" y="546" type="line"/>
      <point x="415" y="546" type="line" smooth="yes"/>
      <point x="443" y="546"/>
      <point x="455" y="533"/>
      <point x="455" y="509" type="curve" smooth="yes"/>
      <point x="455" y="252" type="line"/>
      <point x="201" y="647" type="line"/>
      <point x="21" y="647" type="line"/>
      <point x="21" y="546" type="line"/>
      <point x="45" y="546" type="line" smooth="yes"/>
      <point x="73" y="546"/>
      <point x="84" y="533"/>
      <point x="84" y="509" type="curve" smooth="yes"/>
      <point x="84" y="138" type="line" smooth="yes"/>
      <point x="84" y="115"/>
      <point x="73" y="101"/>
      <point x="45" y="101" type="curve" smooth="yes"/>
      <point x="21" y="101" type="line"/>
      <point x="21" y="0" type="line"/>
    </contour>
    <contour>
      <point x="232" y="699" type="line"/>
      <point x="232" y="732"/>
      <point x="248" y="747"/>
      <point x="276" y="747" type="curve" smooth="yes"/>
      <point x="321" y="747"/>
      <point x="354" y="699"/>
      <point x="430" y="699" type="curve" smooth="yes"/>
      <point x="518" y="699"/>
      <point x="552" y="751"/>
      <point x="552" y="867" type="curve"/>
      <point x="444" y="867" type="line"/>
      <point x="444" y="834"/>
      <point x="430" y="818"/>
      <point x="400" y="818" type="curve" smooth="yes"/>
      <point x="355" y="818"/>
      <point x="323" y="867"/>
      <point x="249" y="867" type="curve" smooth="yes"/>
      <point x="160" y="867"/>
      <point x="123" y="812"/>
      <point x="123" y="699" type="curve"/>
    </contour>
  </outline>
</glyph>
<glyph name="Ocircumflex" format="1">
  <advance width="666"/>
  <unicode hex="00D4"/>
  <note>
	Ocircumflex
  </note>
  <outline>
    <contour>
      <point x="544" y="-15"/>
      <point x="645" y="97"/>
      <point x="645" y="321" type="curve" smooth="yes"/>
      <point x="645" y="545"/>
      <point x="552" y="662"/>
      <point x="333" y="662" type="curve" smooth="yes"/>
      <point x="114" y="662"/>
      <point x="21" y="545"/>
      <point x="21" y="321" type="curve" smooth="yes"/>
      <point x="21" y="97"/>
      <point x="122" y="-15"/>
      <point x="333" y="-15" type="curve" smooth="yes"/>
    </contour>
    <contour>
      <point x="223" y="87"/>
      <point x="177" y="150"/>
      <point x="177" y="321" type="curve" smooth="yes"/>
      <point x="177" y="496"/>
      <point x="222" y="560"/>
      <point x="333" y="560" type="curve" smooth="yes"/>
      <point x="444" y="560"/>
      <point x="490" y="496"/>
      <point x="490" y="321" type="curve" smooth="yes"/>
      <point x="490" y="150"/>
      <point x="444" y="87"/>
      <point x="333" y="87" type="curve" smooth="yes"/>
    </contour>
    <contour>
      <point x="269" y="698" type="line"/>
      <point x="333" y="812" type="line"/>
      <point x="396" y="698" type="line"/>
      <point x="537" y="698" type="line"/>
      <point x="402" y="896" type="line"/>
      <point x="266" y="896" type="line"/>
      <point x="130" y="698" type="line"/>
    </contour>
  </outline>
</glyph>
<glyph name="Otilde" format="1">
  <advance width="666"/>
  <unicode hex="00D5"/>
  <note>
	Otilde
  </note>
  <outline>
    <contour>
      <point x="544" y="-15"/>
      <point x="645" y="97"/>
      <point x="645" y="321" type="curve" smooth="yes"/>
      <point x="645" y="545"/>
      <point x="552" y="662"/>
      <point x="333" y="662" type="curve" smooth="yes"/>
      <point x="114" y="662"/>
      <point x="21" y="545"/>
      <point x="21" y="321" type="curve" smooth="yes"/>
      <point x="21" y="97"/>
      <point x="122" y="-15"/>
      <point x="333" y="-15" type="curve" smooth="yes"/>
    </contour>
    <contour>
      <point x="223" y="87"/>
      <point x="177" y="150"/>
      <point x="177" y="321" type="curve" smooth="yes"/>
      <point x="177" y="496"/>
      <point x="222" y="560"/>
      <point x="333" y="560" type="curve" smooth="yes"/>
      <point x="444" y="560"/>
      <point x="490" y="496"/>
      <point x="490" y="321" type="curve" smooth="yes"/>
      <point x="490" y="150"/>
      <point x="444" y="87"/>
      <point x="333" y="87" type="curve" smooth="yes"/>
    </contour>
    <contour>
      <point x="227" y="699" type="line"/>
      <point x="227" y="732"/>
      <point x="243" y="747"/>
      <point x="271" y="747" type="curve" smooth="yes"/>
      <point x="316" y="747"/>
      <point x="349" y="699"/>
      <point x="425" y="699" type="curve" smooth="yes"/>
      <point x="513" y="699"/>
      <point x="547" y="751"/>
      <point x="547" y="867" type="curve"/>
      <point x="439" y="867" type="line"/>
      <point x="439" y="834"/>
      <point x="425" y="818"/>
      <point x="395" y="818" type="curve" smooth="yes"/>
      <point x="350" y="818"/>
      <point x="318" y="867"/>
      <point x="244" y="867" type="curve" smooth="yes"/>
      <point x="155" y="867"/>
      <point x="118" y="812"/>
      <point x="118" y="699" type="curve"/>
    </contour>
  </outline>
</glyph>
<glyph name="Odieresis" format="1">
  <advance width="666"/>
  <unicode hex="00D6"/>
  <note>
	Odieresis
  </note>
  <outline>
    <contour>
      <point x="544" y="-15"/>
      <point x="645" y="97"/>
      <point x="645" y="321" type="curve" smooth="yes"/>
      <point x="645" y="545"/>
      <point x="552" y="662"/>
      <point x="333" y="662" type="curve" smooth="yes"/>
      <point x="114" y="662"/>
      <point x="21" y="545"/>
      <point x="21" y="321" type="curve" smooth="yes"/>
      <point x="21" y="97"/>
      <point x="122" y="-15"/>
      <point x="333" y="-15" type="curve" smooth="yes"/>
    </contour>
    <contour>
      <point x="223" y="87"/>
      <point x="177" y="150"/>
      <point x="177" y="321" type="curve" smooth="yes"/>
      <point x="177" y="496"/>
      <point x="222" y="560"/>
      <point x="333" y="560" type="curve" smooth="yes"/>
      <point x="444" y="560"/>
      <point x="490" y="496"/>
      <point x="490" y="321" type="curve" smooth="yes"/>
      <point x="490" y="150"/>
      <point x="444" y="87"/>
      <point x="333" y="87" type="curve" smooth="yes"/>
    </contour>
    <contour>
      <point x="271" y="718" type="line"/>
      <point x="271" y="840" type="line"/>
      <point x="155" y="840" type="line"/>
      <point x="155" y="718" type="line"/>
    </contour>
    <contour>
      <point x="509" y="718" type="line"/>
      <point x="509" y="840" type="line"/>
      <point x="392" y="840" type="line"/>
      <point x="392" y="718" type="line"/>
    </contour>
  </outline>
</glyph>
<glyph name="multiply" format="1">
  <advance width="383"/>
  <unicode hex="00D7"/>
  <note>
	multiply
  </note>
  <outline>
    <contour>
      <point x="192" y="228" type="line"/>
      <point x="271" y="149" type="line"/>
      <point x="352" y="229" type="line"/>
      <point x="272" y="308" type="line"/>
      <point x="352" y="389" type="line"/>
      <point x="271" y="468" type="line"/>
      <point x="191" y="389" type="line"/>
      <point x="112" y="468" type="line"/>
      <point x="31" y="389" type="line"/>
      <point x="111" y="308" type="line"/>
      <point x="32" y="229" type="line"/>
      <point x="112" y="148" type="line"/>
    </contour>
  </outline>
</glyph>
<glyph name="Udieresis" format="1">
  <advance width="693"/>
  <unicode hex="00DC"/>
  <note>
	Udieresis
  </note>
  <outline>
    <contour>
      <point x="527" y="-15"/>
      <point x="611" y="66"/>
      <point x="611" y="187" type="curve" smooth="yes"/>
      <point x="611" y="509" type="line" smooth="yes"/>
      <point x="611" y="533"/>
      <point x="622" y="546"/>
      <point x="650" y="546" type="curve" smooth="yes"/>
      <point x="671" y="546" type="line"/>
      <point x="671" y="647" type="line"/>
      <point x="399" y="647" type="line"/>
      <point x="399" y="546" type="line"/>
      <point x="416" y="546" type="line" smooth="yes"/>
      <point x="444" y="546"/>
      <point x="455" y="533"/>
      <point x="455" y="508" type="curve" smooth="yes"/>
      <point x="455" y="181" type="line" smooth="yes"/>
      <point x="455" y="114"/>
      <point x="416" y="87"/>
      <point x="346" y="87" type="curve" smooth="yes"/>
      <point x="276" y="87"/>
      <point x="237" y="114"/>
      <point x="237" y="181" type="curve" smooth="yes"/>
      <point x="237" y="508" type="line" smooth="yes"/>
      <point x="237" y="533"/>
      <point x="248" y="546"/>
      <point x="277" y="546" type="curve" smooth="yes"/>
      <point x="293" y="546" type="line"/>
      <point x="293" y="647" type="line"/>
      <point x="21" y="647" type="line"/>
      <point x="21" y="546" type="line"/>
      <point x="42" y="546" type="line" smooth="yes"/>
      <point x="71" y="546"/>
      <point x="82" y="533"/>
      <point x="82" y="509" type="curve" smooth="yes"/>
      <point x="82" y="187" type="line" smooth="yes"/>
      <point x="82" y="66"/>
      <point x="165" y="-15"/>
      <point x="346" y="-15" type="curve" smooth="yes"/>
    </contour>
    <contour>
      <point x="285" y="718" type="line"/>
      <point x="285" y="840" type="line"/>
      <point x="169" y="840" type="line"/>
      <point x="169" y="718" type="line"/>
    </contour>
    <contour>
      <point x="523" y="718" type="line"/>
      <point x="523" y="840" type="line"/>
      <point x="406" y="840" type="line"/>
      <point x="406" y="718" type="line"/>
    </contour>
  </outline>
</glyph>
<glyph name="Thorn" format="1">
  <advance width="629"/>
  <unicode hex="00DE"/>
  <note>
	Thorn
  </note>
  <outline>
    <contour>
      <point x="304" y="0" type="line"/>
      <point x="304" y="101" type="line"/>
      <point x="280" y="101" type="line" smooth="yes"/>
      <point x="251" y="101"/>
      <point x="240" y="113"/>
      <point x="240" y="136" type="curve"/>
      <point x="293" y="147" type="line"/>
      <point x="320" y="147"/>
      <point x="347" y="147"/>
      <point x="374" y="147" type="curve" smooth="yes"/>
      <point x="517" y="147"/>
      <point x="608" y="225"/>
      <point x="608" y="361" type="curve" smooth="yes"/>
      <point x="608" y="499"/>
      <point x="517" y="567"/>
      <point x="375" y="567" type="curve" smooth="yes"/>
      <point x="240" y="567" type="line"/>
      <point x="240" y="647" type="line"/>
      <point x="21" y="647" type="line"/>
      <point x="21" y="546" type="line"/>
      <point x="44" y="546" type="line" smooth="yes"/>
      <point x="73" y="546"/>
      <point x="84" y="532"/>
      <point x="84" y="509" type="curve" smooth="yes"/>
      <point x="84" y="138" type="line" smooth="yes"/>
      <point x="84" y="115"/>
      <point x="73" y="101"/>
      <point x="44" y="101" type="curve" smooth="yes"/>
      <point x="21" y="101" type="line"/>
      <point x="21" y="0" type="line"/>
    </contour>
    <contour>
      <point x="240" y="466" type="line"/>
      <point x="353" y="466" type="line" smooth="yes"/>
      <point x="422" y="466"/>
      <point x="453" y="440"/>
      <point x="453" y="361" type="curve" smooth="yes"/>
      <point x="453" y="284"/>
      <point x="422" y="249"/>
      <point x="353" y="249" type="curve" smooth="yes"/>
      <point x="240" y="249" type="line"/>
    </contour>
  </outline>
</glyph>
<glyph name="germandbls" format="1">
  <advance width="649"/>
  <unicode hex="00DF"/>
  <note>
	germandbls
  </note>
  <outline>
    <contour>
      <point x="562" y="-15"/>
      <point x="628" y="70"/>
      <point x="628" y="191" type="curve" smooth="yes"/>
      <point x="628" y="261"/>
      <point x="606" y="316"/>
      <point x="535" y="349" type="curve"/>
      <point x="591" y="376"/>
      <point x="614" y="442"/>
      <point x="614" y="507" type="curve" smooth="yes"/>
      <point x="614" y="626"/>
      <point x="534" y="712"/>
      <point x="347" y="712" type="curve" smooth="yes"/>
      <point x="167" y="712"/>
      <point x="85" y="622"/>
      <point x="85" y="497" type="curve" smooth="yes"/>
      <point x="85" y="140" type="line" smooth="yes"/>
      <point x="85" y="113"/>
      <point x="74" y="101"/>
      <point x="46" y="101" type="curve" smooth="yes"/>
      <point x="21" y="101" type="line"/>
      <point x="21" y="0" type="line"/>
      <point x="242" y="0" type="line"/>
      <point x="242" y="508" type="line" smooth="yes"/>
      <point x="242" y="583"/>
      <point x="290" y="610"/>
      <point x="350" y="610" type="curve" smooth="yes"/>
      <point x="419" y="610"/>
      <point x="458" y="581"/>
      <point x="458" y="507" type="curve" smooth="yes"/>
      <point x="458" y="434"/>
      <point x="433" y="398"/>
      <point x="361" y="398" type="curve" smooth="yes"/>
      <point x="314" y="398" type="line"/>
      <point x="314" y="299" type="line"/>
      <point x="366" y="299" type="line" smooth="yes"/>
      <point x="444" y="299"/>
      <point x="473" y="264"/>
      <point x="473" y="192" type="curve" smooth="yes"/>
      <point x="473" y="115"/>
      <point x="444" y="84"/>
      <point x="400" y="84" type="curve" smooth="yes"/>
      <point x="375" y="84"/>
      <point x="352" y="91"/>
      <point x="330" y="105" type="curve"/>
      <point x="281" y="19" type="line"/>
      <point x="317" y="-6"/>
      <point x="369" y="-15"/>
      <point x="413" y="-15" type="curve" smooth="yes"/>
    </contour>
  </outline>
</glyph>
<glyph name="ccedilla" format="1">
  <advance width="524"/>
  <unicode hex="00E7"/>
  <note>
	ccedilla
  </note>
  <outline>
    <contour>
      <point x="392" y="-15"/>
      <point x="441" y="1"/>
      <point x="503" y="47" type="curve"/>
      <point x="452" y="129" type="line"/>
      <point x="417" y="104"/>
      <point x="375" y="91"/>
      <point x="321" y="91" type="curve" smooth="yes"/>
      <point x="232" y="91"/>
      <point x="177" y="134"/>
      <point x="177" y="234" type="curve" smooth="yes"/>
      <point x="177" y="342"/>
      <point x="226" y="389"/>
      <point x="290" y="389" type="curve" smooth="yes"/>
      <point x="325" y="389"/>
      <point x="345" y="384"/>
      <point x="366" y="371" type="curve"/>
      <point x="366" y="315" type="line"/>
      <point x="498" y="315" type="line"/>
      <point x="498" y="429" type="line"/>
      <point x="441" y="473"/>
      <point x="387" y="495"/>
      <point x="291" y="495" type="curve" smooth="yes"/>
      <point x="127" y="495"/>
      <point x="21" y="407"/>
      <point x="21" y="234" type="curve" smooth="yes"/>
      <point x="21" y="70"/>
      <point x="139" y="-15"/>
      <point x="290" y="-15" type="curve" smooth="yes"/>
    </contour>
    <contour>
      <point x="399" y="-228"/>
      <point x="445" y="-187"/>
      <point x="445" y="-123" type="curve" smooth="yes"/>
      <point x="445" y="-75"/>
      <point x="421" y="-47"/>
      <point x="371" y="-36" type="curve"/>
      <point x="377" y="0" type="line"/>
      <point x="207" y="0" type="line"/>
      <point x="196" y="-77" type="line"/>
      <point x="270" y="-77"/>
      <point x="287" y="-90"/>
      <point x="287" y="-114" type="curve" smooth="yes"/>
      <point x="287" y="-125"/>
      <point x="280" y="-133"/>
      <point x="256" y="-133" type="curve" smooth="yes"/>
      <point x="236" y="-133"/>
      <point x="202" y="-129"/>
      <point x="172" y="-113" type="curve"/>
      <point x="172" y="-208" type="line"/>
      <point x="207" y="-224"/>
      <point x="237" y="-228"/>
      <point x="279" y="-228" type="curve" smooth="yes"/>
    </contour>
  </outline>
</glyph>
<glyph name="eacute" format="1">
  <advance width="543"/>
  <unicode hex="00E9"/>
  <note>
	eacute
  </note>
  <outline>
    <contour>
      <point x="388" y="-15"/>
      <point x="455" y="8"/>
      <point x="505" y="53" type="curve"/>
      <point x="505" y="135" type="line"/>
      <point x="373" y="135" type="line"/>
      <point x="373" y="98" type="line"/>
      <point x="348" y="87"/>
      <point x="323" y="83"/>
      <point x="290" y="83" type="curve" smooth="yes"/>
      <point x="214" y="83"/>
      <point x="178" y="118"/>
      <point x="178" y="206" type="curve"/>
      <point x="522" y="206" type="line"/>
      <point x="522" y="254" type="line" smooth="yes"/>
      <point x="522" y="396"/>
      <point x="442" y="495"/>
      <point x="277" y="495" type="curve" smooth="yes"/>
      <point x="116" y="495"/>
      <point x="21" y="413"/>
      <point x="21" y="236" type="curve" smooth="yes"/>
      <point x="21" y="66"/>
      <point x="125" y="-15"/>
      <point x="288" y="-15" type="curve" smooth="yes"/>
    </contour>
    <contour>
      <point x="178" y="358"/>
      <point x="211" y="396"/>
      <point x="275" y="396" type="curve" smooth="yes"/>
      <point x="335" y="396"/>
      <point x="366" y="360"/>
      <point x="366" y="291" type="curve"/>
      <point x="178" y="291" type="line"/>
    </contour>
    <contour>
      <point x="336" y="523" type="line"/>
      <point x="449" y="703" type="line"/>
      <point x="278" y="703" type="line"/>
      <point x="203" y="523" type="line"/>
    </contour>
  </outline>
</glyph>
<glyph name="iacute" format="1">
  <advance width="307"/>
  <unicode hex="00ED"/>
  <note>
	iacute
  </note>
  <outline>
    <contour>
      <point x="296" y="0" type="line"/>
      <point x="296" y="102" type="line"/>
      <point x="272" y="102" type="line" smooth="yes"/>
      <point x="245" y="102"/>
      <point x="233" y="115"/>
      <point x="233" y="139" type="curve" smooth="yes"/>
      <point x="233" y="480" type="line"/>
      <point x="11" y="480" type="line"/>
      <point x="11" y="378" type="line"/>
      <point x="36" y="378" type="line" smooth="yes"/>
      <point x="66" y="378"/>
      <point x="75" y="363"/>
      <point x="75" y="338" type="curve" smooth="yes"/>
      <point x="75" y="141" type="line" smooth="yes"/>
      <point x="75" y="114"/>
      <point x="63" y="102"/>
      <point x="35" y="102" type="curve" smooth="yes"/>
      <point x="11" y="102" type="line"/>
      <point x="11" y="0" type="line"/>
    </contour>
    <contour>
      <point x="187" y="521" type="line"/>
      <point x="300" y="701" type="line"/>
      <point x="129" y="701" type="line"/>
      <point x="54" y="521" type="line"/>
    </contour>
  </outline>
</glyph>
<glyph name="icircumflex" format="1">
  <advance width="307"/>
  <unicode hex="00EE"/>
  <note>
	icircumflex
  </note>
  <outline>
    <contour>
      <point x="296" y="0" type="line"/>
      <point x="296" y="102" type="line"/>
      <point x="272" y="102" type="line" smooth="yes"/>
      <point x="245" y="102"/>
      <point x="233" y="115"/>
      <point x="233" y="139" type="curve" smooth="yes"/>
      <point x="233" y="480" type="line"/>
      <point x="11" y="480" type="line"/>
      <point x="11" y="378" type="line"/>
      <point x="36" y="378" type="line" smooth="yes"/>
      <point x="66" y="378"/>
      <point x="75" y="363"/>
      <point x="75" y="338" type="curve" smooth="yes"/>
      <point x="75" y="141" type="line" smooth="yes"/>
      <point x="75" y="114"/>
      <point x="63" y="102"/>
      <point x="35" y="102" type="curve" smooth="yes"/>
      <point x="11" y="102" type="line"/>
      <point x="11" y="0" type="line"/>
    </contour>
    <contour>
      <point x="76" y="514" type="line"/>
      <point x="140" y="628" type="line"/>
      <point x="203" y="514" type="line"/>
      <point x="344" y="514" type="line"/>
      <point x="209" y="712" type="line"/>
      <point x="73" y="712" type="line"/>
      <point x="-63" y="514" type="line"/>
    </contour>
  </outline>
</glyph>
<glyph name="idieresis" format="1">
  <advance width="307"/>
  <unicode hex="00EF"/>
  <note>
	idieresis
  </note>
  <outline>
    <contour>
      <point x="296" y="0" type="line"/>
      <point x="296" y="102" type="line"/>
      <point x="272" y="102" type="line" smooth="yes"/>
      <point x="245" y="102"/>
      <point x="233" y="115"/>
      <point x="233" y="139" type="curve" smooth="yes"/>
      <point x="233" y="480" type="line"/>
      <point x="11" y="480" type="line"/>
      <point x="11" y="378" type="line"/>
      <point x="36" y="378" type="line" smooth="yes"/>
      <point x="66" y="378"/>
      <point x="75" y="363"/>
      <point x="75" y="338" type="curve" smooth="yes"/>
      <point x="75" y="141" type="line" smooth="yes"/>
      <point x="75" y="114"/>
      <point x="63" y="102"/>
      <point x="35" y="102" type="curve" smooth="yes"/>
      <point x="11" y="102" type="line"/>
      <point x="11" y="0" type="line"/>
    </contour>
    <contour>
      <point x="76" y="544" type="line"/>
      <point x="76" y="666" type="line"/>
      <point x="-40" y="666" type="line"/>
      <point x="-40" y="544" type="line"/>
    </contour>
    <contour>
      <point x="314" y="544" type="line"/>
      <point x="314" y="666" type="line"/>
      <point x="197" y="666" type="line"/>
      <point x="197" y="544" type="line"/>
    </contour>
  </outline>
</glyph>
<glyph name="eth" format="1">
  <advance width="589"/>
  <unicode hex="00F0"/>
  <note>
	eth
  </note>
  <outline>
    <contour>
      <point x="490" y="-15"/>
      <point x="568" y="155"/>
      <point x="568" y="368" type="curve" smooth="yes"/>
      <point x="568" y="487"/>
      <point x="538" y="560"/>
      <point x="491" y="605" type="curve"/>
      <point x="543" y="634" type="line"/>
      <point x="529" y="678" type="line"/>
      <point x="450" y="633" type="line"/>
      <point x="413" y="653"/>
      <point x="368" y="662"/>
      <point x="323" y="662" type="curve" smooth="yes"/>
      <point x="250" y="662"/>
      <point x="177" y="646"/>
      <point x="118" y="611" type="curve"/>
      <point x="155" y="521" type="line"/>
      <point x="192" y="542"/>
      <point x="224" y="552"/>
      <point x="261" y="557" type="curve" smooth="yes"/>
      <point x="280" y="559"/>
      <point x="300" y="560"/>
      <point x="319" y="557" type="curve"/>
      <point x="277" y="534" type="line"/>
      <point x="292" y="492" type="line"/>
      <point x="372" y="537" type="line"/>
      <point x="396" y="517"/>
      <point x="408" y="488"/>
      <point x="411" y="445" type="curve"/>
      <point x="385" y="469"/>
      <point x="343" y="478"/>
      <point x="300" y="478" type="curve" smooth="yes"/>
      <point x="134" y="478"/>
      <point x="25" y="379"/>
      <point x="22" y="220" type="curve" smooth="yes"/>
      <point x="18" y="49"/>
      <point x="123" y="-15"/>
      <point x="267" y="-15" type="curve" smooth="yes"/>
    </contour>
    <contour>
      <point x="188" y="87"/>
      <point x="174" y="131"/>
      <point x="177" y="203" type="curve" smooth="yes"/>
      <point x="181" y="311"/>
      <point x="219" y="376"/>
      <point x="307" y="376" type="curve" smooth="yes"/>
      <point x="364" y="376"/>
      <point x="400" y="353"/>
      <point x="398" y="272" type="curve" smooth="yes"/>
      <point x="395" y="146"/>
      <point x="349" y="87"/>
      <point x="272" y="87" type="curve" smooth="yes"/>
    </contour>
  </outline>
</glyph>
<glyph name="ntilde" format="1">
  <advance width="600"/>
  <unicode hex="00F1"/>
  <note>
	ntilde
  </note>
  <outline>
    <contour>
      <point x="283" y="0" type="line"/>
      <point x="283" y="102" type="line"/>
      <point x="263" y="102" type="line" smooth="yes"/>
      <point x="237" y="102"/>
      <point x="228" y="115"/>
      <point x="228" y="139" type="curve" smooth="yes"/>
      <point x="228" y="320" type="line" smooth="yes"/>
      <point x="228" y="373"/>
      <point x="257" y="397"/>
      <point x="304" y="397" type="curve" smooth="yes"/>
      <point x="348" y="397"/>
      <point x="369" y="377"/>
      <point x="369" y="326" type="curve" smooth="yes"/>
      <point x="369" y="0" type="line"/>
      <point x="589" y="0" type="line"/>
      <point x="589" y="102" type="line"/>
      <point x="566" y="102" type="line" smooth="yes"/>
      <point x="538" y="102"/>
      <point x="527" y="115"/>
      <point x="527" y="139" type="curve" smooth="yes"/>
      <point x="527" y="327" type="line" smooth="yes"/>
      <point x="527" y="434"/>
      <point x="478" y="495"/>
      <point x="359" y="495" type="curve" smooth="yes"/>
      <point x="277" y="495"/>
      <point x="218" y="468"/>
      <point x="176" y="415" type="curve"/>
      <point x="169" y="480" type="line"/>
      <point x="11" y="480" type="line"/>
      <point x="11" y="377" type="line"/>
      <point x="32" y="377" type="line" smooth="yes"/>
      <point x="60" y="377"/>
      <point x="70" y="364"/>
      <point x="70" y="340" type="curve" smooth="yes"/>
      <point x="70" y="140" type="line" smooth="yes"/>
      <point x="70" y="115"/>
      <point x="58" y="102"/>
      <point x="30" y="102" type="curve" smooth="yes"/>
      <point x="11" y="102" type="line"/>
      <point x="11" y="0" type="line"/>
    </contour>
    <contour>
      <point x="175" y="522" type="line"/>
      <point x="175" y="555"/>
      <point x="191" y="570"/>
      <point x="219" y="570" type="curve" smooth="yes"/>
      <point x="264" y="570"/>
      <point x="297" y="522"/>
      <point x="373" y="522" type="curve" smooth="yes"/>
      <point x="461" y="522"/>
      <point x="495" y="574"/>
      <point x="495" y="690" type="curve"/>
      <point x="387" y="690" type="line"/>
      <point x="387" y="657"/>
      <point x="373" y="641"/>
      <point x="343" y="641" type="curve" smooth="yes"/>
      <point x="298" y="641"/>
      <point x="266" y="690"/>
      <point x="192" y="690" type="curve" smooth="yes"/>
      <point x="103" y="690"/>
      <point x="66" y="635"/>
      <point x="66" y="522" type="curve"/>
    </contour>
  </outline>
</glyph>
<glyph name="ograve" format="1">
  <advance width="558"/>
  <unicode hex="00F2"/>
  <note>
	ograve
  </note>
  <outline>
    <contour>
      <point x="444" y="-15"/>
      <point x="537" y="74"/>
      <point x="537" y="239" type="curve" smooth="yes"/>
      <point x="537" y="404"/>
      <point x="448" y="495"/>
      <point x="279" y="495" type="curve" smooth="yes"/>
      <point x="111" y="495"/>
      <point x="21" y="404"/>
      <point x="21" y="239" type="curve" smooth="yes"/>
      <point x="21" y="74"/>
      <point x="114" y="-15"/>
      <point x="279" y="-15" type="curve" smooth="yes"/>
    </contour>
    <contour>
      <point x="206" y="88"/>
      <point x="178" y="135"/>
      <point x="178" y="239" type="curve" smooth="yes"/>
      <point x="178" y="346"/>
      <point x="206" y="392"/>
      <point x="279" y="392" type="curve" smooth="yes"/>
      <point x="352" y="392"/>
      <point x="381" y="346"/>
      <point x="381" y="239" type="curve" smooth="yes"/>
      <point x="381" y="135"/>
      <point x="352" y="88"/>
      <point x="279" y="88" type="curve" smooth="yes"/>
    </contour>
    <contour>
      <point x="356" y="523" type="line"/>
      <point x="281" y="703" type="line"/>
      <point x="109" y="703" type="line"/>
      <point x="222" y="523" type="line"/>
    </contour>
  </outline>
</glyph>
<glyph name="otilde" format="1">
  <advance width="558"/>
  <unicode hex="00F5"/>
  <note>
	otilde
  </note>
  <outline>
    <contour>
      <point x="444" y="-15"/>
      <point x="537" y="74"/>
      <point x="537" y="239" type="curve" smooth="yes"/>
      <point x="537" y="404"/>
      <point x="448" y="495"/>
      <point x="279" y="495" type="curve" smooth="yes"/>
      <point x="111" y="495"/>
      <point x="21" y="404"/>
      <point x="21" y="239" type="curve" smooth="yes"/>
      <point x="21" y="74"/>
      <point x="114" y="-15"/>
      <point x="279" y="-15" type="curve" smooth="yes"/>
    </contour>
    <contour>
      <point x="206" y="88"/>
      <point x="178" y="135"/>
      <point x="178" y="239" type="curve" smooth="yes"/>
      <point x="178" y="346"/>
      <point x="206" y="392"/>
      <point x="279" y="392" type="curve" smooth="yes"/>
      <point x="352" y="392"/>
      <point x="381" y="346"/>
      <point x="381" y="239" type="curve" smooth="yes"/>
      <point x="381" y="135"/>
      <point x="352" y="88"/>
      <point x="279" y="88" type="curve" smooth="yes"/>
    </contour>
    <contour>
      <point x="174" y="522" type="line"/>
      <point x="174" y="555"/>
      <point x="190" y="570"/>
      <point x="218" y="570" type="curve" smooth="yes"/>
      <point x="263" y="570"/>
      <point x="296" y="522"/>
      <point x="372" y="522" type="curve" smooth="yes"/>
      <point x="460" y="522"/>
      <point x="494" y="574"/>
      <point x="494" y="690" type="curve"/>
      <point x="386" y="690" type="line"/>
      <point x="386" y="657"/>
      <point x="372" y="641"/>
      <point x="342" y="641" type="curve" smooth="yes"/>
      <point x="297" y="641"/>
      <point x="265" y="690"/>
      <point x="191" y="690" type="curve" smooth="yes"/>
      <point x="102" y="690"/>
      <point x="65" y="635"/>
      <point x="65" y="522" type="curve"/>
    </contour>
  </outline>
</glyph>
<glyph name="odieresis" format="1">
  <advance width="558"/>
  <unicode hex="00F6"/>
  <note>
	odieresis
  </note>
  <outline>
    <contour>
      <point x="444" y="-15"/>
      <point x="537" y="74"/>
      <point x="537" y="239" type="curve" smooth="yes"/>
      <point x="537" y="404"/>
      <point x="448" y="495"/>
      <point x="279" y="495" type="curve" smooth="yes"/>
      <point x="111" y="495"/>
      <point x="21" y="404"/>
      <point x="21" y="239" type="curve" smooth="yes"/>
      <point x="21" y="74"/>
      <point x="114" y="-15"/>
      <point x="279" y="-15" type="curve" smooth="yes"/>
    </contour>
    <contour>
      <point x="206" y="88"/>
      <point x="178" y="135"/>
      <point x="178" y="239" type="curve" smooth="yes"/>
      <point x="178" y="346"/>
      <point x="206" y="392"/>
      <point x="279" y="392" type="curve" smooth="yes"/>
      <point x="352" y="392"/>
      <point x="381" y="346"/>
      <point x="381" y="239" type="curve" smooth="yes"/>
      <point x="381" y="135"/>
      <point x="352" y="88"/>
      <point x="279" y="88" type="curve" smooth="yes"/>
    </contour>
    <contour>
      <point x="218" y="542" type="line"/>
      <point x="218" y="664" type="line"/>
      <point x="102" y="664" type="line"/>
      <point x="102" y="542" type="line"/>
    </contour>
    <contour>
      <point x="456" y="542" type="line"/>
      <point x="456" y="664" type="line"/>
      <point x="339" y="664" type="line"/>
      <point x="339" y="542" type="line"/>
    </contour>
  </outline>
</glyph>
<glyph name="divide" format="1">
  <advance width="413"/>
  <unicode hex="00F7"/>
  <note>
	divide
  </note>
  <outline>
    <contour>
      <point x="382" y="265" type="line"/>
      <point x="382" y="353" type="line"/>
      <point x="31" y="353" type="line"/>
      <point x="31" y="265" type="line"/>
    </contour>
    <contour>
      <point x="255" y="142" type="line"/>
      <point x="255" y="234" type="line"/>
      <point x="158" y="234" type="line"/>
      <point x="158" y="142" type="line"/>
    </contour>
    <contour>
      <point x="255" y="384" type="line"/>
      <point x="255" y="476" type="line"/>
      <point x="158" y="476" type="line"/>
      <point x="158" y="384" type="line"/>
    </contour>
  </outline>
</glyph>
<glyph name="oslash" format="1">
  <advance width="558"/>
  <unicode hex="00F8"/>
  <note>
	oslash
  </note>
  <outline>
    <contour>
      <point x="204" y="-52" type="line"/>
      <point x="219" y="-10" type="line"/>
      <point x="238" y="-13"/>
      <point x="258" y="-15"/>
      <point x="279" y="-15" type="curve" smooth="yes"/>
      <point x="444" y="-15"/>
      <point x="537" y="74"/>
      <point x="537" y="239" type="curve" smooth="yes"/>
      <point x="537" y="361"/>
      <point x="488" y="443"/>
      <point x="394" y="477" type="curve"/>
      <point x="415" y="535" type="line"/>
      <point x="360" y="535" type="line"/>
      <point x="344" y="489" type="line"/>
      <point x="324" y="492"/>
      <point x="303" y="495"/>
      <point x="279" y="495" type="curve" smooth="yes"/>
      <point x="111" y="495"/>
      <point x="21" y="404"/>
      <point x="21" y="239" type="curve" smooth="yes"/>
      <point x="21" y="117"/>
      <point x="73" y="35"/>
      <point x="168" y="2" type="curve"/>
      <point x="147" y="-52" type="line"/>
    </contour>
    <contour>
      <point x="189" y="143"/>
      <point x="178" y="182"/>
      <point x="178" y="239" type="curve" smooth="yes"/>
      <point x="178" y="346"/>
      <point x="206" y="392"/>
      <point x="279" y="392" type="curve" smooth="yes"/>
      <point x="290" y="392"/>
      <point x="299" y="390"/>
      <point x="307" y="389" type="curve"/>
      <point x="209" y="120" type="line"/>
    </contour>
    <contour>
      <point x="270" y="88"/>
      <point x="262" y="89"/>
      <point x="255" y="90" type="curve"/>
      <point x="351" y="356" type="line"/>
      <point x="371" y="332"/>
      <point x="381" y="294"/>
      <point x="381" y="239" type="curve" smooth="yes"/>
      <point x="381" y="135"/>
      <point x="352" y="88"/>
      <point x="279" y="88" type="curve" smooth="yes"/>
    </contour>
  </outline>
</glyph>
<glyph name="udieresis" format="1">
  <advance width="600"/>
  <unicode hex="00FC"/>
  <note>
	udieresis
  </note>
  <outline>
    <contour>
      <point x="329" y="-15"/>
      <point x="377" y="8"/>
      <point x="424" y="64" type="curve"/>
      <point x="431" y="0" type="line"/>
      <point x="589" y="0" type="line"/>
      <point x="589" y="102" type="line"/>
      <point x="569" y="102" type="line" smooth="yes"/>
      <point x="541" y="102"/>
      <point x="530" y="115"/>
      <point x="530" y="140" type="curve" smooth="yes"/>
      <point x="530" y="341" type="line" smooth="yes"/>
      <point x="530" y="365"/>
      <point x="538" y="378"/>
      <point x="564" y="378" type="curve" smooth="yes"/>
      <point x="589" y="378" type="line"/>
      <point x="589" y="480" type="line"/>
      <point x="317" y="480" type="line"/>
      <point x="317" y="378" type="line"/>
      <point x="338" y="378" type="line" smooth="yes"/>
      <point x="364" y="378"/>
      <point x="372" y="365"/>
      <point x="372" y="341" type="curve" smooth="yes"/>
      <point x="372" y="159" type="line" smooth="yes"/>
      <point x="372" y="106"/>
      <point x="344" y="82"/>
      <point x="298" y="82" type="curve" smooth="yes"/>
      <point x="253" y="82"/>
      <point x="231" y="102"/>
      <point x="231" y="154" type="curve" smooth="yes"/>
      <point x="231" y="480" type="line"/>
      <point x="11" y="480" type="line"/>
      <point x="11" y="378" type="line"/>
      <point x="34" y="378" type="line" smooth="yes"/>
      <point x="62" y="378"/>
      <point x="73" y="365"/>
      <point x="73" y="341" type="curve" smooth="yes"/>
      <point x="73" y="153" type="line" smooth="yes"/>
      <point x="73" y="46"/>
      <point x="126" y="-15"/>
      <point x="245" y="-15" type="curve" smooth="yes"/>
    </contour>
    <contour>
      <point x="229" y="542" type="line"/>
      <point x="229" y="664" type="line"/>
      <point x="113" y="664" type="line"/>
      <point x="113" y="542" type="line"/>
    </contour>
    <contour>
      <point x="467" y="542" type="line"/>
      <point x="467" y="664" type="line"/>
      <point x="350" y="664" type="line"/>
      <point x="350" y="542" type="line"/>
    </contour>
  </outline>
</glyph>
<glyph name="thorn" format="1">
  <advance width="614"/>
  <unicode hex="00FE"/>
  <note>
	thorn
  </note>
  <outline>
    <contour>
      <point x="284" y="-208" type="line"/>
      <point x="284" y="-106" type="line"/>
      <point x="265" y="-106" type="line" smooth="yes"/>
      <point x="237" y="-106"/>
      <point x="226" y="-93"/>
      <point x="226" y="-69" type="curve" smooth="yes"/>
      <point x="226" y="36" type="line"/>
      <point x="268" y="0"/>
      <point x="306" y="-15"/>
      <point x="374" y="-15" type="curve" smooth="yes"/>
      <point x="515" y="-15"/>
      <point x="593" y="79"/>
      <point x="593" y="245" type="curve" smooth="yes"/>
      <point x="593" y="410"/>
      <point x="507" y="495"/>
      <point x="371" y="495" type="curve" smooth="yes"/>
      <point x="305" y="495"/>
      <point x="265" y="481"/>
      <point x="226" y="447" type="curve"/>
      <point x="226" y="662" type="line"/>
      <point x="26" y="662" type="line"/>
      <point x="26" y="559" type="line"/>
      <point x="40" y="559" type="line" smooth="yes"/>
      <point x="68" y="559"/>
      <point x="80" y="545"/>
      <point x="80" y="521" type="curve" smooth="yes"/>
      <point x="80" y="-68" type="line" smooth="yes"/>
      <point x="80" y="-93"/>
      <point x="68" y="-106"/>
      <point x="40" y="-106" type="curve" smooth="yes"/>
      <point x="21" y="-106" type="line"/>
      <point x="21" y="-208" type="line"/>
    </contour>
    <contour>
      <point x="272" y="79"/>
      <point x="231" y="129"/>
      <point x="231" y="212" type="curve" smooth="yes"/>
      <point x="231" y="267" type="line" smooth="yes"/>
      <point x="231" y="343"/>
      <point x="270" y="404"/>
      <point x="336" y="404" type="curve" smooth="yes"/>
      <point x="413" y="404"/>
      <point x="437" y="353"/>
      <point x="437" y="244" type="curve" smooth="yes"/>
      <point x="437" y="134"/>
      <point x="412" y="79"/>
      <point x="334" y="79" type="curve" smooth="yes"/>
    </contour>
  </outline>
</glyph>
<glyph name="Amacron" format="1">
  <advance width="715"/>
  <unicode hex="0100"/>
  <note>
	Amacron
  </note>
  <outline>
    <contour>
      <point x="292" y="0" type="line"/>
      <point x="292" y="101" type="line"/>
      <point x="250" y="101" type="line"/>
      <point x="280" y="193" type="line"/>
      <point x="437" y="193" type="line"/>
      <point x="465" y="101" type="line"/>
      <point x="423" y="101" type="line"/>
      <point x="423" y="0" type="line"/>
      <point x="693" y="0" type="line"/>
      <point x="693" y="101" type="line"/>
      <point x="667" y="101" type="line" smooth="yes"/>
      <point x="633" y="101"/>
      <point x="620" y="106"/>
      <point x="610" y="136" type="curve" smooth="yes"/>
      <point x="435" y="647" type="line"/>
      <point x="282" y="647" type="line"/>
      <point x="104" y="136" type="line" smooth="yes"/>
      <point x="93" y="106"/>
      <point x="81" y="101"/>
      <point x="48" y="101" type="curve" smooth="yes"/>
      <point x="21" y="101" type="line"/>
      <point x="21" y="0" type="line"/>
    </contour>
    <contour>
      <point x="360" y="446" type="line"/>
      <point x="413" y="274" type="line"/>
      <point x="304" y="274" type="line"/>
    </contour>
    <contour>
      <point x="514" y="719" type="line"/>
      <point x="514" y="811" type="line"/>
      <point x="207" y="811" type="line"/>
      <point x="207" y="719" type="line"/>
    </contour>
  </outline>
</glyph>
<glyph name="Aogonek" format="1">
  <advance width="715"/>
  <unicode hex="0104"/>
  <note>
	Aogonek
  </note>
  <outline>
    <contour>
      <point x="292" y="0" type="line"/>
      <point x="292" y="101" type="line"/>
      <point x="250" y="101" type="line"/>
      <point x="280" y="193" type="line"/>
      <point x="437" y="193" type="line"/>
      <point x="465" y="101" type="line"/>
      <point x="423" y="101" type="line"/>
      <point x="423" y="0" type="line"/>
      <point x="693" y="0" type="line"/>
      <point x="693" y="101" type="line"/>
      <point x="667" y="101" type="line" smooth="yes"/>
      <point x="633" y="101"/>
      <point x="620" y="106"/>
      <point x="610" y="136" type="curve" smooth="yes"/>
      <point x="435" y="647" type="line"/>
      <point x="282" y="647" type="line"/>
      <point x="104" y="136" type="line" smooth="yes"/>
      <point x="93" y="106"/>
      <point x="81" y="101"/>
      <point x="48" y="101" type="curve" smooth="yes"/>
      <point x="21" y="101" type="line"/>
      <point x="21" y="0" type="line"/>
    </contour>
    <contour>
      <point x="572" y="-217"/>
      <point x="600" y="-210"/>
      <point x="625" y="-191" type="curve"/>
      <point x="625" y="-105" type="line"/>
      <point x="614" y="-110"/>
      <point x="601" y="-113"/>
      <point x="590" y="-113" type="curve" smooth="yes"/>
      <point x="569" y="-113"/>
      <point x="559" y="-98"/>
      <point x="559" y="-76" type="curve" smooth="yes"/>
      <point x="559" y="-46"/>
      <point x="574" y="-25"/>
      <point x="607" y="0" type="curve"/>
      <point x="478" y="0" type="line"/>
      <point x="446" y="-25"/>
      <point x="425" y="-70"/>
      <point x="425" y="-115" type="curve" smooth="yes"/>
      <point x="425" y="-188"/>
      <point x="475" y="-217"/>
      <point x="533" y="-217" type="curve" smooth="yes"/>
    </contour>
    <contour>
      <point x="360" y="446" type="line"/>
      <point x="413" y="274" type="line"/>
      <point x="304" y="274" type="line"/>
    </contour>
  </outline>
</glyph>
<glyph name="ccircumflex" format="1">
  <advance width="524"/>
  <unicode hex="0109"/>
  <note>
	ccircumflex
  </note>
  <outline>
    <contour>
      <point x="392" y="-15"/>
      <point x="441" y="1"/>
      <point x="503" y="47" type="curve"/>
      <point x="452" y="129" type="line"/>
      <point x="417" y="104"/>
      <point x="375" y="91"/>
      <point x="321" y="91" type="curve" smooth="yes"/>
      <point x="232" y="91"/>
      <point x="177" y="134"/>
      <point x="177" y="234" type="curve" smooth="yes"/>
      <point x="177" y="342"/>
      <point x="226" y="389"/>
      <point x="290" y="389" type="curve" smooth="yes"/>
      <point x="325" y="389"/>
      <point x="345" y="384"/>
      <point x="366" y="371" type="curve"/>
      <point x="366" y="315" type="line"/>
      <point x="498" y="315" type="line"/>
      <point x="498" y="429" type="line"/>
      <point x="441" y="473"/>
      <point x="387" y="495"/>
      <point x="291" y="495" type="curve" smooth="yes"/>
      <point x="127" y="495"/>
      <point x="21" y="407"/>
      <point x="21" y="234" type="curve" smooth="yes"/>
      <point x="21" y="70"/>
      <point x="139" y="-15"/>
      <point x="290" y="-15" type="curve" smooth="yes"/>
    </contour>
    <contour>
      <point x="210" y="521" type="line"/>
      <point x="274" y="635" type="line"/>
      <point x="337" y="521" type="line"/>
      <point x="478" y="521" type="line"/>
      <point x="343" y="719" type="line"/>
      <point x="207" y="719" type="line"/>
      <point x="71" y="521" type="line"/>
    </contour>
  </outline>
</glyph>
<glyph name="Dcaron" format="1">
  <advance width="635"/>
  <unicode hex="010E"/>
  <note>
	Dcaron
  </note>
  <outline>
    <contour>
      <point x="333" y="0" type="line" smooth="yes"/>
      <point x="523" y="0"/>
      <point x="614" y="140"/>
      <point x="614" y="321" type="curve" smooth="yes"/>
      <point x="614" y="528"/>
      <point x="525" y="647"/>
      <point x="333" y="647" type="curve" smooth="yes"/>
      <point x="21" y="647" type="line"/>
      <point x="21" y="546" type="line"/>
      <point x="45" y="546" type="line" smooth="yes"/>
      <point x="73" y="546"/>
      <point x="85" y="533"/>
      <point x="85" y="509" type="curve" smooth="yes"/>
      <point x="85" y="140" type="line" smooth="yes"/>
      <point x="85" y="113"/>
      <point x="73" y="101"/>
      <point x="45" y="101" type="curve" smooth="yes"/>
      <point x="21" y="101" type="line"/>
      <point x="21" y="0" type="line"/>
    </contour>
    <contour>
      <point x="240" y="546" type="line"/>
      <point x="309" y="546" type="line" smooth="yes"/>
      <point x="424" y="546"/>
      <point x="459" y="466"/>
      <point x="459" y="321" type="curve" smooth="yes"/>
      <point x="459" y="180"/>
      <point x="423" y="101"/>
      <point x="309" y="101" type="curve" smooth="yes"/>
      <point x="240" y="101" type="line"/>
    </contour>
    <contour>
      <point x="358" y="698" type="line"/>
      <point x="493" y="896" type="line"/>
      <point x="352" y="896" type="line"/>
      <point x="289" y="782" type="line"/>
      <point x="225" y="896" type="line"/>
      <point x="86" y="896" type="line"/>
      <point x="222" y="698" type="line"/>
    </contour>
  </outline>
</glyph>
<glyph name="Emacron" format="1">
  <advance width="547"/>
  <unicode hex="0112"/>
  <note>
	Emacron
  </note>
  <outline>
    <contour>
      <point x="526" y="0" type="line"/>
      <point x="526" y="155" type="line"/>
      <point x="383" y="155" type="line"/>
      <point x="383" y="140" type="line" smooth="yes"/>
      <point x="383" y="113"/>
      <point x="370" y="101"/>
      <point x="343" y="101" type="curve" smooth="yes"/>
      <point x="242" y="101" type="line"/>
      <point x="242" y="273" type="line"/>
      <point x="378" y="273" type="line"/>
      <point x="378" y="374" type="line"/>
      <point x="242" y="374" type="line"/>
      <point x="242" y="546" type="line"/>
      <point x="343" y="546" type="line" smooth="yes"/>
      <point x="370" y="546"/>
      <point x="383" y="534"/>
      <point x="383" y="508" type="curve" smooth="yes"/>
      <point x="383" y="493" type="line"/>
      <point x="526" y="493" type="line"/>
      <point x="526" y="647" type="line"/>
      <point x="21" y="647" type="line"/>
      <point x="21" y="546" type="line"/>
      <point x="45" y="546" type="line" smooth="yes"/>
      <point x="73" y="546"/>
      <point x="85" y="533"/>
      <point x="85" y="509" type="curve" smooth="yes"/>
      <point x="85" y="140" type="line" smooth="yes"/>
      <point x="85" y="113"/>
      <point x="73" y="101"/>
      <point x="45" y="101" type="curve" smooth="yes"/>
      <point x="21" y="101" type="line"/>
      <point x="21" y="0" type="line"/>
    </contour>
    <contour>
      <point x="437" y="719" type="line"/>
      <point x="437" y="811" type="line"/>
      <point x="130" y="811" type="line"/>
      <point x="130" y="719" type="line"/>
    </contour>
  </outline>
</glyph>
<glyph name="Ebreve" format="1">
  <advance width="547"/>
  <unicode hex="0114"/>
  <note>
	Ebreve
  </note>
  <outline>
    <contour>
      <point x="526" y="0" type="line"/>
      <point x="526" y="155" type="line"/>
      <point x="383" y="155" type="line"/>
      <point x="383" y="140" type="line" smooth="yes"/>
      <point x="383" y="113"/>
      <point x="370" y="101"/>
      <point x="343" y="101" type="curve" smooth="yes"/>
      <point x="242" y="101" type="line"/>
      <point x="242" y="273" type="line"/>
      <point x="378" y="273" type="line"/>
      <point x="378" y="374" type="line"/>
      <point x="242" y="374" type="line"/>
      <point x="242" y="546" type="line"/>
      <point x="343" y="546" type="line" smooth="yes"/>
      <point x="370" y="546"/>
      <point x="383" y="534"/>
      <point x="383" y="508" type="curve" smooth="yes"/>
      <point x="383" y="493" type="line"/>
      <point x="526" y="493" type="line"/>
      <point x="526" y="647" type="line"/>
      <point x="21" y="647" type="line"/>
      <point x="21" y="546" type="line"/>
      <point x="45" y="546" type="line" smooth="yes"/>
      <point x="73" y="546"/>
      <point x="85" y="533"/>
      <point x="85" y="509" type="curve" smooth="yes"/>
      <point x="85" y="140" type="line" smooth="yes"/>
      <point x="85" y="113"/>
      <point x="73" y="101"/>
      <point x="45" y="101" type="curve" smooth="yes"/>
      <point x="21" y="101" type="line"/>
      <point x="21" y="0" type="line"/>
    </contour>
    <contour>
      <point x="390" y="698"/>
      <point x="454" y="760"/>
      <point x="454" y="854" type="curve"/>
      <point x="324" y="854" type="line"/>
      <point x="324" y="815"/>
      <point x="313" y="791"/>
      <point x="276" y="791" type="curve" smooth="yes"/>
      <point x="243" y="791"/>
      <point x="228" y="815"/>
      <point x="228" y="854" type="curve"/>
      <point x="98" y="854" type="line"/>
      <point x="98" y="760"/>
      <point x="162" y="698"/>
      <point x="276" y="698" type="curve" smooth="yes"/>
    </contour>
  </outline>
</glyph>
<glyph name="Eogonek" format="1">
  <advance width="547"/>
  <unicode hex="0118"/>
  <note>
	Eogonek
  </note>
  <outline>
    <contour>
      <point x="526" y="0" type="line"/>
      <point x="526" y="155" type="line"/>
      <point x="383" y="155" type="line"/>
      <point x="383" y="140" type="line" smooth="yes"/>
      <point x="383" y="113"/>
      <point x="370" y="101"/>
      <point x="343" y="101" type="curve" smooth="yes"/>
      <point x="242" y="101" type="line"/>
      <point x="242" y="273" type="line"/>
      <point x="378" y="273" type="line"/>
      <point x="378" y="374" type="line"/>
      <point x="242" y="374" type="line"/>
      <point x="242" y="546" type="line"/>
      <point x="343" y="546" type="line" smooth="yes"/>
      <point x="370" y="546"/>
      <point x="383" y="534"/>
      <point x="383" y="508" type="curve" smooth="yes"/>
      <point x="383" y="493" type="line"/>
      <point x="526" y="493" type="line"/>
      <point x="526" y="647" type="line"/>
      <point x="21" y="647" type="line"/>
      <point x="21" y="546" type="line"/>
      <point x="45" y="546" type="line" smooth="yes"/>
      <point x="73" y="546"/>
      <point x="85" y="533"/>
      <point x="85" y="509" type="curve" smooth="yes"/>
      <point x="85" y="140" type="line" smooth="yes"/>
      <point x="85" y="113"/>
      <point x="73" y="101"/>
      <point x="45" y="101" type="curve" smooth="yes"/>
      <point x="21" y="101" type="line"/>
      <point x="21" y="0" type="line"/>
    </contour>
    <contour>
      <point x="470" y="-217"/>
      <point x="498" y="-210"/>
      <point x="523" y="-191" type="curve"/>
      <point x="523" y="-105" type="line"/>
      <point x="512" y="-110"/>
      <point x="499" y="-113"/>
      <point x="488" y="-113" type="curve" smooth="yes"/>
      <point x="467" y="-113"/>
      <point x="457" y="-98"/>
      <point x="457" y="-76" type="curve" smooth="yes"/>
      <point x="457" y="-46"/>
      <point x="472" y="-25"/>
      <point x="505" y="0" type="curve"/>
      <point x="376" y="0" type="line"/>
      <point x="344" y="-25"/>
      <point x="323" y="-70"/>
      <point x="323" y="-115" type="curve" smooth="yes"/>
      <point x="323" y="-188"/>
      <point x="373" y="-217"/>
      <point x="431" y="-217" type="curve" smooth="yes"/>
    </contour>
  </outline>
</glyph>
<glyph name="eogonek" format="1">
  <advance width="543"/>
  <unicode hex="0119"/>
  <note>
	eogonek
  </note>
  <outline>
    <contour>
      <point x="388" y="-15"/>
      <point x="455" y="8"/>
      <point x="505" y="53" type="curve"/>
      <point x="505" y="135" type="line"/>
      <point x="373" y="135" type="line"/>
      <point x="373" y="98" type="line"/>
      <point x="348" y="87"/>
      <point x="323" y="83"/>
      <point x="290" y="83" type="curve" smooth="yes"/>
      <point x="214" y="83"/>
      <point x="178" y="118"/>
      <point x="178" y="206" type="curve"/>
      <point x="522" y="206" type="line"/>
      <point x="522" y="254" type="line" smooth="yes"/>
      <point x="522" y="396"/>
      <point x="442" y="495"/>
      <point x="277" y="495" type="curve" smooth="yes"/>
      <point x="116" y="495"/>
      <point x="21" y="413"/>
      <point x="21" y="236" type="curve" smooth="yes"/>
      <point x="21" y="66"/>
      <point x="125" y="-15"/>
      <point x="288" y="-15" type="curve" smooth="yes"/>
    </contour>
    <contour>
      <point x="363" y="-221"/>
      <point x="393" y="-214"/>
      <point x="424" y="-190" type="curve"/>
      <point x="424" y="-92" type="line"/>
      <point x="415" y="-97"/>
      <point x="403" y="-100"/>
      <point x="392" y="-100" type="curve" smooth="yes"/>
      <point x="373" y="-100"/>
      <point x="364" y="-86"/>
      <point x="364" y="-68" type="curve" smooth="yes"/>
      <point x="364" y="-41"/>
      <point x="379" y="-23"/>
      <point x="412" y="0" type="curve"/>
      <point x="261" y="0" type="line"/>
      <point x="228" y="-23"/>
      <point x="206" y="-72"/>
      <point x="206" y="-118" type="curve" smooth="yes"/>
      <point x="206" y="-192"/>
      <point x="260" y="-221"/>
      <point x="318" y="-221" type="curve" smooth="yes"/>
    </contour>
    <contour>
      <point x="178" y="358"/>
      <point x="211" y="396"/>
      <point x="275" y="396" type="curve" smooth="yes"/>
      <point x="335" y="396"/>
      <point x="366" y="360"/>
      <point x="366" y="291" type="curve"/>
      <point x="178" y="291" type="line"/>
    </contour>
  </outline>
</glyph>
<glyph name="Gcircumflex" format="1">
  <advance width="632"/>
  <unicode hex="011C"/>
  <note>
	Gcircumflex
  </note>
  <outline>
    <contour>
      <point x="458" y="-15"/>
      <point x="541" y="6"/>
      <point x="611" y="56" type="curve"/>
      <point x="611" y="356" type="line"/>
      <point x="330" y="356" type="line"/>
      <point x="330" y="255" type="line"/>
      <point x="454" y="255" type="line"/>
      <point x="454" y="99" type="line"/>
      <point x="424" y="90"/>
      <point x="396" y="87"/>
      <point x="365" y="87" type="curve" smooth="yes"/>
      <point x="243" y="87"/>
      <point x="177" y="172"/>
      <point x="177" y="319" type="curve" smooth="yes"/>
      <point x="177" y="469"/>
      <point x="240" y="560"/>
      <point x="356" y="560" type="curve" smooth="yes"/>
      <point x="388" y="560"/>
      <point x="407" y="556"/>
      <point x="429" y="546" type="curve"/>
      <point x="429" y="475" type="line"/>
      <point x="586" y="475" type="line"/>
      <point x="586" y="601" type="line"/>
      <point x="523" y="643"/>
      <point x="458" y="662"/>
      <point x="352" y="662" type="curve" smooth="yes"/>
      <point x="125" y="662"/>
      <point x="21" y="514"/>
      <point x="21" y="319" type="curve" smooth="yes"/>
      <point x="21" y="124"/>
      <point x="139" y="-15"/>
      <point x="357" y="-15" type="curve" smooth="yes"/>
    </contour>
    <contour>
      <point x="274" y="698" type="line"/>
      <point x="338" y="812" type="line"/>
      <point x="401" y="698" type="line"/>
      <point x="542" y="698" type="line"/>
      <point x="407" y="896" type="line"/>
      <point x="271" y="896" type="line"/>
      <point x="135" y="698" type="line"/>
    </contour>
  </outline>
</glyph>
<glyph name="Gbreve" format="1">
  <advance width="632"/>
  <unicode hex="011E"/>
  <note>
	Gbreve
  </note>
  <outline>
    <contour>
      <point x="458" y="-15"/>
      <point x="541" y="6"/>
      <point x="611" y="56" type="curve"/>
      <point x="611" y="356" type="line"/>
      <point x="330" y="356" type="line"/>
      <point x="330" y="255" type="line"/>
      <point x="454" y="255" type="line"/>
      <point x="454" y="99" type="line"/>
      <point x="424" y="90"/>
      <point x="396" y="87"/>
      <point x="365" y="87" type="curve" smooth="yes"/>
      <point x="243" y="87"/>
      <point x="177" y="172"/>
      <point x="177" y="319" type="curve" smooth="yes"/>
      <point x="177" y="469"/>
      <point x="240" y="560"/>
      <point x="356" y="560" type="curve" smooth="yes"/>
      <point x="388" y="560"/>
      <point x="407" y="556"/>
      <point x="429" y="546" type="curve"/>
      <point x="429" y="475" type="line"/>
      <point x="586" y="475" type="line"/>
      <point x="586" y="601" type="line"/>
      <point x="523" y="643"/>
      <point x="458" y="662"/>
      <point x="352" y="662" type="curve" smooth="yes"/>
      <point x="125" y="662"/>
      <point x="21" y="514"/>
      <point x="21" y="319" type="curve" smooth="yes"/>
      <point x="21" y="124"/>
      <point x="139" y="-15"/>
      <point x="357" y="-15" type="curve" smooth="yes"/>
    </contour>
    <contour>
      <point x="458" y="698"/>
      <point x="522" y="760"/>
      <point x="522" y="854" type="curve"/>
      <point x="392" y="854" type="line"/>
      <point x="392" y="815"/>
      <point x="381" y="791"/>
      <point x="344" y="791" type="curve" smooth="yes"/>
      <point x="311" y="791"/>
      <point x="296" y="815"/>
      <point x="296" y="854" type="curve"/>
      <point x="166" y="854" type="line"/>
      <point x="166" y="760"/>
      <point x="230" y="698"/>
      <point x="344" y="698" type="curve" smooth="yes"/>
    </contour>
  </outline>
</glyph>
<glyph name="Gdotaccent" format="1">
  <advance width="632"/>
  <unicode hex="0120"/>
  <note>
	Gdotaccent
  </note>
  <outline>
    <contour>
      <point x="458" y="-15"/>
      <point x="541" y="6"/>
      <point x="611" y="56" type="curve"/>
      <point x="611" y="356" type="line"/>
      <point x="330" y="356" type="line"/>
      <point x="330" y="255" type="line"/>
      <point x="454" y="255" type="line"/>
      <point x="454" y="99" type="line"/>
      <point x="424" y="90"/>
      <point x="396" y="87"/>
      <point x="365" y="87" type="curve" smooth="yes"/>
      <point x="243" y="87"/>
      <point x="177" y="172"/>
      <point x="177" y="319" type="curve" smooth="yes"/>
      <point x="177" y="469"/>
      <point x="240" y="560"/>
      <point x="356" y="560" type="curve" smooth="yes"/>
      <point x="388" y="560"/>
      <point x="407" y="556"/>
      <point x="429" y="546" type="curve"/>
      <point x="429" y="475" type="line"/>
      <point x="586" y="475" type="line"/>
      <point x="586" y="601" type="line"/>
      <point x="523" y="643"/>
      <point x="458" y="662"/>
      <point x="352" y="662" type="curve" smooth="yes"/>
      <point x="125" y="662"/>
      <point x="21" y="514"/>
      <point x="21" y="319" type="curve" smooth="yes"/>
      <point x="21" y="124"/>
      <point x="139" y="-15"/>
      <point x="357" y="-15" type="curve" smooth="yes"/>
    </contour>
    <contour>
      <point x="406" y="714" type="line"/>
      <point x="406" y="836" type="line"/>
      <point x="290" y="836" type="line"/>
      <point x="290" y="714" type="line"/>
    </contour>
  </outline>
</glyph>
<glyph name="gdotaccent" format="1">
  <advance width="589"/>
  <unicode hex="0121"/>
  <note>
	gdotaccent
  </note>
  <outline>
    <contour>
      <point x="457" y="-200"/>
      <point x="532" y="-119"/>
      <point x="532" y="3" type="curve" smooth="yes"/>
      <point x="532" y="339" type="line" smooth="yes"/>
      <point x="532" y="368"/>
      <point x="538" y="381"/>
      <point x="564" y="381" type="curve" smooth="yes"/>
      <point x="578" y="381" type="line"/>
      <point x="578" y="480" type="line"/>
      <point x="423" y="480" type="line"/>
      <point x="415" y="413" type="line"/>
      <point x="376" y="470"/>
      <point x="331" y="495"/>
      <point x="249" y="495" type="curve" smooth="yes"/>
      <point x="117" y="495"/>
      <point x="21" y="409"/>
      <point x="21" y="247" type="curve" smooth="yes"/>
      <point x="21" y="78"/>
      <point x="104" y="-3"/>
      <point x="244" y="-3" type="curve" smooth="yes"/>
      <point x="309" y="-3"/>
      <point x="351" y="13"/>
      <point x="388" y="49" type="curve"/>
      <point x="388" y="-25" type="line" smooth="yes"/>
      <point x="388" y="-73"/>
      <point x="367" y="-104"/>
      <point x="314" y="-104" type="curve" smooth="yes"/>
      <point x="282" y="-104"/>
      <point x="260" y="-99"/>
      <point x="240" y="-86" type="curve"/>
      <point x="240" y="-52" type="line"/>
      <point x="108" y="-52" type="line"/>
      <point x="108" y="-130" type="line"/>
      <point x="158" y="-174"/>
      <point x="222" y="-200"/>
      <point x="317" y="-200" type="curve" smooth="yes"/>
    </contour>
    <contour>
      <point x="203" y="90"/>
      <point x="177" y="136"/>
      <point x="177" y="247" type="curve" smooth="yes"/>
      <point x="177" y="356"/>
      <point x="203" y="404"/>
      <point x="279" y="404" type="curve" smooth="yes"/>
      <point x="352" y="404"/>
      <point x="379" y="338"/>
      <point x="379" y="263" type="curve" smooth="yes"/>
      <point x="379" y="226" type="line" smooth="yes"/>
      <point x="379" y="144"/>
      <point x="350" y="90"/>
      <point x="280" y="90" type="curve" smooth="yes"/>
    </contour>
    <contour>
      <point x="346" y="526" type="line"/>
      <point x="346" y="648" type="line"/>
      <point x="230" y="648" type="line"/>
      <point x="230" y="526" type="line"/>
    </contour>
  </outline>
</glyph>
<glyph name="Gcommaaccent" format="1">
  <advance width="632"/>
  <unicode hex="0122"/>
  <note>
	Gcommaaccent
  </note>
  <outline>
    <contour>
      <point x="458" y="-15"/>
      <point x="541" y="6"/>
      <point x="611" y="56" type="curve"/>
      <point x="611" y="356" type="line"/>
      <point x="330" y="356" type="line"/>
      <point x="330" y="255" type="line"/>
      <point x="454" y="255" type="line"/>
      <point x="454" y="99" type="line"/>
      <point x="424" y="90"/>
      <point x="396" y="87"/>
      <point x="365" y="87" type="curve" smooth="yes"/>
      <point x="243" y="87"/>
      <point x="177" y="172"/>
      <point x="177" y="319" type="curve" smooth="yes"/>
      <point x="177" y="469"/>
      <point x="240" y="560"/>
      <point x="356" y="560" type="curve" smooth="yes"/>
      <point x="388" y="560"/>
      <point x="407" y="556"/>
      <point x="429" y="546" type="curve"/>
      <point x="429" y="475" type="line"/>
      <point x="586" y="475" type="line"/>
      <point x="586" y="601" type="line"/>
      <point x="523" y="643"/>
      <point x="458" y="662"/>
      <point x="352" y="662" type="curve" smooth="yes"/>
      <point x="125" y="662"/>
      <point x="21" y="514"/>
      <point x="21" y="319" type="curve" smooth="yes"/>
      <point x="21" y="124"/>
      <point x="139" y="-15"/>
      <point x="357" y="-15" type="curve" smooth="yes"/>
    </contour>
    <contour>
      <point x="393" y="-272" type="line"/>
      <point x="461" y="-49" type="line"/>
      <point x="297" y="-49" type="line"/>
      <point x="263" y="-272" type="line"/>
    </contour>
  </outline>
</glyph>
<glyph name="hbar" format="1">
  <advance width="610"/>
  <unicode hex="0127"/>
  <note>
	hbar
  </note>
  <outline>
    <contour>
      <point x="287" y="0" type="line"/>
      <point x="287" y="103" type="line"/>
      <point x="269" y="103" type="line" smooth="yes"/>
      <point x="245" y="103"/>
      <point x="236" y="116"/>
      <point x="236" y="140" type="curve" smooth="yes"/>
      <point x="236" y="320" type="line" smooth="yes"/>
      <point x="236" y="373"/>
      <point x="265" y="397"/>
      <point x="312" y="397" type="curve" smooth="yes"/>
      <point x="355" y="397"/>
      <point x="377" y="377"/>
      <point x="377" y="326" type="curve" smooth="yes"/>
      <point x="377" y="0" type="line"/>
      <point x="599" y="0" type="line"/>
      <point x="599" y="103" type="line"/>
      <point x="577" y="103" type="line" smooth="yes"/>
      <point x="549" y="103"/>
      <point x="537" y="116"/>
      <point x="537" y="140" type="curve" smooth="yes"/>
      <point x="537" y="327" type="line" smooth="yes"/>
      <point x="537" y="434"/>
      <point x="490" y="495"/>
      <point x="378" y="495" type="curve" smooth="yes"/>
      <point x="313" y="495"/>
      <point x="269" y="484"/>
      <point x="216" y="439" type="curve"/>
      <point x="216" y="518" type="line"/>
      <point x="344" y="518" type="line"/>
      <point x="344" y="616" type="line"/>
      <point x="216" y="616" type="line"/>
      <point x="216" y="662" type="line"/>
      <point x="77" y="662" type="line"/>
      <point x="77" y="616" type="line"/>
      <point x="21" y="616" type="line"/>
      <point x="21" y="518" type="line"/>
      <point x="77" y="518" type="line"/>
      <point x="77" y="140" type="line" smooth="yes"/>
      <point x="77" y="116"/>
      <point x="65" y="103"/>
      <point x="36" y="103" type="curve" smooth="yes"/>
      <point x="21" y="103" type="line"/>
      <point x="21" y="0" type="line"/>
    </contour>
  </outline>
</glyph>
